<svg xmlns="http://www.w3.org/2000/svg" xmlns:xlink="http://www.w3.org/1999/xlink" width="500" zoomAndPan="magnify" viewBox="0 0 375 374.999991" height="500" preserveAspectRatio="xMidYMid meet" version="1.0"><defs><clipPath id="ac6c71c0ee"><path d="M 0 87.65625 L 375 87.65625 L 375 287.15625 L 0 287.15625 Z M 0 87.65625 " clip-rule="nonzero"/></clipPath></defs><g clip-path="url(#ac6c71c0ee)"><path fill="#ffd427" d="M 100.136719 87.65625 C 45.351562 87.65625 0.292969 132.488281 0.292969 187.40625 C 0.292969 242.277344 45.214844 287.15625 100.136719 287.15625 C 133.160156 287.15625 155.304688 271.511719 172.242188 250.164062 C 164.378906 238.070312 157.753906 225.527344 151.789062 213.78125 C 137.535156 236.535156 122.949219 249.75 100.136719 249.75 C 65.449219 249.75 37.734375 222.0625 37.734375 187.40625 C 37.734375 152.800781 65.664062 125.0625 100.136719 125.0625 C 117.941406 125.0625 128.4375 131.554688 139.527344 144.082031 C 150.617188 156.609375 160.480469 175.542969 170.679688 195.808594 C 180.882812 216.074219 191.4375 237.679688 207.292969 255.546875 C 223.148438 273.410156 246.117188 287.15625 274.863281 287.15625 C 329.3125 287.15625 374.707031 242.445312 374.707031 187.40625 C 374.707031 132.535156 329.785156 87.65625 274.863281 87.65625 C 241.789062 87.65625 219.660156 103.433594 202.734375 124.917969 C 210.585938 137.046875 217.195312 149.613281 223.160156 161.371094 C 237.464844 138.394531 252.050781 125.0625 274.863281 125.0625 C 309.550781 125.0625 337.265625 152.75 337.265625 187.40625 C 337.265625 221.890625 308.800781 249.75 274.863281 249.75 C 256.972656 249.75 246.417969 243.234375 235.300781 230.707031 C 224.183594 218.179688 214.320312 199.261719 204.125 179.003906 C 193.925781 158.746094 183.402344 137.15625 167.585938 119.289062 C 151.769531 101.425781 128.828125 87.65625 100.136719 87.65625 Z M 100.136719 87.65625 " fill-opacity="1" fill-rule="nonzero"/></g></svg>