<svg xmlns="http://www.w3.org/2000/svg" xmlns:xlink="http://www.w3.org/1999/xlink" width="500" zoomAndPan="magnify" viewBox="0 0 375 374.999991" height="500" preserveAspectRatio="xMidYMid meet" version="1.0"><defs><clipPath id="1bd4fa7334"><path d="M 190 0 L 372.75 0 L 372.75 375 L 190 375 Z M 190 0 " clip-rule="nonzero"/></clipPath><clipPath id="2934d91b8a"><path d="M 6 62 L 372.75 62 L 372.75 361 L 6 361 Z M 6 62 " clip-rule="nonzero"/></clipPath></defs><path fill="#eaeaea" d="M 242.535156 286.417969 C 242.515625 283.628906 242.277344 280.820312 241.855469 278.011719 L 259.699219 278.011719 C 262.214844 278.011719 264.253906 275.972656 264.253906 273.457031 L 264.253906 251.988281 C 262.890625 252.554688 261.402344 252.878906 259.835938 252.878906 C 253.441406 252.878906 248.261719 247.691406 248.261719 241.296875 C 248.261719 234.902344 253.441406 229.714844 259.835938 229.714844 C 261.402344 229.714844 262.890625 230.039062 264.253906 230.605469 L 264.253906 210.191406 C 264.253906 207.675781 262.214844 205.632812 259.699219 205.632812 L 237.847656 205.632812 C 238.714844 204.007812 239.210938 202.152344 239.210938 200.175781 C 239.210938 193.78125 234.03125 188.597656 227.636719 188.597656 C 221.246094 188.597656 216.0625 193.78125 216.0625 200.175781 C 216.0625 202.152344 216.558594 204.007812 217.429688 205.632812 L 196.46875 205.632812 C 193.953125 205.632812 191.914062 207.675781 191.914062 210.191406 L 191.914062 237.878906 C 189.890625 237.496094 187.839844 237.21875 185.765625 237.09375 L 182.207031 226.949219 C 179.898438 226.964844 177.578125 227.132812 175.257812 227.429688 L 175.257812 195.097656 C 175.257812 192.582031 173.21875 190.539062 170.703125 190.539062 L 148.847656 190.539062 C 149.71875 188.914062 150.214844 187.058594 150.214844 185.085938 C 150.214844 178.6875 145.03125 173.503906 138.640625 173.503906 C 132.25 173.503906 127.066406 178.6875 127.066406 185.085938 C 127.066406 187.058594 127.5625 188.914062 128.433594 190.539062 L 107.46875 190.539062 C 104.953125 190.539062 102.914062 192.582031 102.914062 195.097656 L 102.914062 258.363281 C 102.914062 260.882812 104.953125 262.921875 107.46875 262.921875 L 127.796875 262.921875 C 127.273438 264.113281 126.78125 265.316406 126.339844 266.542969 L 134.703125 273.265625 C 133.730469 276.667969 133.125 280.175781 132.910156 283.75 L 122.769531 287.3125 C 122.792969 290.671875 123.117188 294.058594 123.726562 297.441406 L 134.320312 299.066406 C 134.753906 300.78125 135.273438 302.472656 135.902344 304.167969 C 136.523438 305.851562 137.230469 307.476562 138.011719 309.058594 L 131.023438 317.191406 C 132.761719 320.15625 134.71875 322.9375 136.886719 325.503906 L 146.902344 321.609375 C 149.390625 324.183594 152.132812 326.453125 155.085938 328.414062 L 153.101562 338.953125 C 156.054688 340.628906 159.148438 342.054688 162.339844 343.207031 L 169.054688 334.84375 C 172.460938 335.8125 175.96875 336.421875 179.539062 336.636719 L 183.101562 346.78125 C 186.457031 346.757812 189.839844 346.433594 193.222656 345.824219 L 194.851562 335.222656 C 196.5625 334.789062 198.253906 334.269531 199.9375 333.644531 C 201.628906 333.019531 203.253906 332.3125 204.832031 331.527344 L 212.960938 338.519531 C 215.925781 336.78125 218.707031 334.828125 221.269531 332.65625 L 217.378906 322.636719 C 219.953125 320.148438 222.21875 317.402344 224.167969 314.449219 L 234.714844 316.429688 C 236.390625 313.476562 237.8125 310.382812 238.964844 307.1875 L 230.605469 300.472656 C 231.566406 297.0625 232.179688 293.550781 232.394531 289.976562 Z M 191.585938 311.054688 C 178.242188 315.992188 163.414062 309.164062 158.480469 295.8125 C 153.542969 282.453125 160.363281 267.613281 173.707031 262.675781 C 179.832031 260.410156 186.261719 260.628906 191.910156 262.804688 L 191.910156 273.457031 C 191.910156 275.972656 193.949219 278.011719 196.464844 278.011719 L 206.859375 278.011719 C 211.730469 291.34375 204.910156 306.125 191.585938 311.054688 Z M 191.585938 311.054688 " fill-opacity="1" fill-rule="nonzero"/><g clip-path="url(#1bd4fa7334)"><path fill="#eaeaea" d="M 372.636719 226.558594 C 372.636719 226.546875 372.644531 226.539062 372.644531 226.53125 C 372.617188 225.878906 372.457031 224.152344 372.242188 222 C 371.675781 216.328125 370.714844 207.664062 370.714844 207.660156 L 366.835938 172.914062 L 368.332031 172.617188 C 366.65625 156.015625 366.140625 136.378906 365.847656 132.496094 C 365.449219 127.910156 365.066406 123.328125 364.496094 118.753906 C 363.957031 114.449219 361.210938 110.964844 357.535156 109.273438 C 357.542969 109.242188 357.546875 109.21875 357.546875 109.21875 C 349.035156 105.542969 340.722656 103.113281 332.480469 101.925781 L 332.617188 103.75 L 331.4375 88.074219 L 331.46875 88.511719 C 333.808594 88.101562 343.007812 85.945312 341.964844 77.582031 C 341.964844 77.582031 349.210938 69.257812 342.019531 62.777344 C 342.101562 55.253906 338.046875 51.601562 330.492188 51.238281 C 330.492188 51.238281 316.773438 50.070312 311.195312 49.660156 C 311.714844 48.113281 312.128906 46.527344 312.410156 44.90625 L 319.257812 43.328125 C 319.488281 41.140625 319.523438 38.917969 319.375 36.675781 L 312.605469 34.847656 C 312.449219 33.703125 312.234375 32.566406 311.953125 31.425781 C 311.667969 30.277344 311.328125 29.171875 310.933594 28.085938 L 316.0625 23.308594 C 315.148438 21.253906 314.082031 19.304688 312.859375 17.480469 L 306.066406 19.285156 C 304.636719 17.429688 303.011719 15.757812 301.242188 14.273438 L 303.296875 7.558594 C 301.5 6.257812 299.59375 5.105469 297.601562 4.125 L 292.625 9.074219 C 290.488281 8.199219 288.253906 7.546875 285.945312 7.144531 L 284.367188 0.292969 C 282.183594 0.0664062 279.960938 0.03125 277.71875 0.179688 L 275.894531 6.949219 C 274.75 7.109375 273.613281 7.324219 272.46875 7.609375 C 271.328125 7.890625 270.222656 8.230469 269.136719 8.625 L 264.363281 3.492188 C 262.308594 4.40625 260.359375 5.476562 258.535156 6.699219 L 260.339844 13.492188 C 258.488281 14.925781 256.816406 16.546875 255.324219 18.320312 L 248.621094 16.265625 C 247.320312 18.0625 246.167969 19.972656 245.1875 21.964844 L 250.136719 26.941406 C 249.257812 29.082031 248.609375 31.316406 248.210938 33.625 L 241.363281 35.203125 C 241.132812 37.386719 241.097656 39.609375 241.246094 41.855469 L 248.015625 43.683594 C 248.171875 44.828125 248.386719 45.964844 248.671875 47.109375 C 248.953125 48.25 249.292969 49.355469 249.6875 50.441406 L 247.410156 52.5625 L 238.023438 52.5625 C 238.875 54.164062 239.359375 55.988281 239.359375 57.929688 C 239.359375 64.253906 234.238281 69.382812 227.914062 69.382812 C 221.59375 69.382812 216.46875 64.253906 216.46875 57.929688 C 216.46875 55.988281 216.957031 54.164062 217.808594 52.5625 L 194.734375 52.5625 C 192.234375 52.5625 190.210938 54.589844 190.210938 57.09375 L 190.210938 77.960938 C 191.855469 77.308594 193.683594 77.015625 195.605469 77.226562 C 201.160156 77.828125 205.535156 82.527344 205.730469 88.113281 C 205.960938 94.578125 200.789062 99.890625 194.378906 99.890625 C 192.90625 99.890625 191.5 99.601562 190.210938 99.089844 L 190.210938 119.957031 C 190.210938 122.457031 192.234375 124.484375 194.734375 124.484375 L 202.988281 124.484375 C 202.921875 125.320312 203.503906 126.089844 204.820312 126.285156 C 205.261719 126.351562 205.808594 126.414062 206.433594 126.472656 C 205.96875 127.40625 206.308594 128.386719 207.664062 128.539062 C 208.253906 128.609375 209.136719 128.703125 210.183594 128.816406 C 210.4375 129.164062 210.824219 129.460938 211.363281 129.625 C 213.753906 130.347656 218.328125 131.359375 220.085938 131.742188 C 220.558594 131.84375 221.03125 131.914062 221.511719 131.953125 C 221.511719 131.953125 230.703125 132.71875 232.082031 132.789062 L 232.109375 132.792969 C 232.425781 132.808594 232.746094 132.816406 233.070312 132.820312 L 252.636719 168.25 C 255.957031 173.710938 263.078125 175.445312 268.539062 172.121094 C 269.472656 171.550781 273.398438 167.527344 277.394531 163.320312 L 281.511719 169.09375 L 288.269531 153.828125 L 288.445312 155.71875 C 288.46875 155.949219 288.660156 156.121094 288.886719 156.121094 C 288.898438 156.121094 288.914062 156.121094 288.929688 156.121094 C 288.949219 156.117188 288.96875 156.105469 288.992188 156.101562 C 289.339844 160.777344 289.554688 164.6875 289.554688 167.09375 C 289.554688 176.101562 288.1875 191.96875 288.1875 198.5625 C 288.1875 199.695312 288.726562 200.710938 289.570312 201.367188 L 289.304688 208.609375 C 289.335938 208.601562 289.363281 208.589844 289.390625 208.589844 C 289.101562 208.589844 288.863281 208.824219 288.863281 209.117188 C 288.863281 209.40625 289.101562 209.644531 289.390625 209.644531 C 289.347656 209.644531 289.308594 209.628906 289.269531 209.617188 L 286.929688 273.273438 L 283.875 345.050781 L 284.347656 345.050781 C 284 349.410156 283.363281 352.351562 282.394531 354.804688 C 287.160156 361.097656 293.398438 360.605469 297.554688 358.957031 C 293.398438 360.605469 287.160156 361.097656 282.390625 354.804688 C 279.285156 358.691406 271.144531 363.636719 264.832031 366.707031 L 267.574219 370.988281 L 300.460938 370.988281 C 300.539062 367.601562 300.34375 362.660156 298.941406 358.339844 C 298.921875 354.265625 299.488281 348.800781 299.953125 345.050781 L 301.75 345.050781 C 305.644531 332.128906 314.679688 300.269531 310.269531 277.378906 L 319.90625 212.023438 L 314.171875 211.660156 L 322.296875 212.175781 C 322.304688 212.175781 322.316406 212.175781 322.328125 212.175781 C 322.332031 212.175781 322.339844 212.171875 322.34375 212.171875 L 326.398438 345.050781 L 327.398438 345.050781 C 327.390625 345.328125 327.378906 345.597656 327.378906 345.886719 C 327.378906 350.984375 327.082031 354.882812 326.832031 360.3125 C 326.8125 360.71875 326.796875 361.136719 326.777344 361.5625 C 326.773438 361.71875 326.765625 361.882812 326.757812 362.046875 C 326.75 362.285156 326.738281 362.527344 326.730469 362.773438 C 326.71875 363.035156 326.710938 363.304688 326.703125 363.578125 C 326.695312 363.730469 326.691406 363.886719 326.683594 364.046875 C 326.675781 364.367188 326.664062 364.699219 326.652344 365.03125 C 326.652344 365.125 326.648438 365.222656 326.644531 365.320312 C 326.574219 367.683594 326.527344 370.34375 326.511719 373.449219 C 326.507812 374.328125 327.21875 375.046875 328.097656 375.046875 L 355.949219 375.046875 C 356.921875 375.046875 357.679688 374.179688 357.523438 373.222656 C 356.933594 369.613281 354.617188 367.074219 351.972656 364.664062 C 351.972656 364.664062 351.976562 364.664062 351.976562 364.664062 C 351.882812 364.578125 351.785156 364.496094 351.6875 364.410156 C 350.890625 363.691406 350.074219 362.976562 349.265625 362.25 C 349.078125 362.082031 348.890625 361.910156 348.703125 361.738281 C 348.503906 361.554688 348.308594 361.371094 348.109375 361.183594 C 347.910156 360.996094 347.714844 360.804688 347.523438 360.609375 C 347.34375 360.433594 347.167969 360.253906 346.996094 360.074219 C 346.796875 359.871094 346.605469 359.65625 346.414062 359.441406 C 346.257812 359.265625 346.097656 359.089844 345.945312 358.910156 C 345.75 358.675781 345.566406 358.433594 345.382812 358.195312 C 345.25 358.019531 345.113281 357.847656 344.988281 357.667969 C 344.792969 357.390625 344.617188 357.101562 344.4375 356.8125 C 344.34375 356.652344 344.238281 356.5 344.144531 356.339844 C 343.890625 355.882812 343.660156 355.414062 343.457031 354.921875 C 343.453125 354.914062 343.449219 354.910156 343.449219 354.902344 C 343.363281 354.699219 343.296875 354.496094 343.222656 354.289062 C 342.097656 351.230469 341.914062 348.144531 342.023438 345.046875 L 344.242188 345.046875 C 345.734375 336.152344 348.550781 319.078125 349.902344 308.945312 C 351.789062 294.777344 348.996094 273.957031 348.996094 273.957031 L 350.257812 209.640625 C 350.261719 209.640625 350.261719 209.640625 350.265625 209.640625 C 350.558594 209.640625 350.792969 209.40625 350.792969 209.113281 C 350.792969 208.828125 350.5625 208.597656 350.277344 208.589844 L 350.414062 201.539062 C 351.382812 200.894531 352.011719 199.8125 352.011719 198.589844 C 352.011719 195.605469 351.730469 190.699219 351.421875 185.390625 C 354.003906 194.617188 357.019531 205.367188 358.101562 209.230469 L 358.09375 209.234375 C 357.859375 209.304688 357.730469 209.554688 357.800781 209.785156 C 357.832031 209.886719 357.898438 209.964844 357.976562 210.019531 C 357.898438 210.144531 357.804688 210.273438 357.738281 210.398438 C 356.027344 213.558594 355.695312 215.695312 356.191406 220.230469 C 356.035156 220.324219 355.949219 220.503906 355.984375 220.6875 C 355.902344 220.664062 355.824219 220.628906 355.734375 220.617188 C 354.558594 220.476562 353.53125 221.421875 353.582031 222.609375 L 353.832031 228.804688 C 353.855469 229.378906 354.132812 229.914062 354.59375 230.261719 L 358.933594 233.542969 C 359.175781 233.964844 359.464844 234.339844 359.832031 234.632812 C 360.117188 234.855469 360.464844 234.972656 360.820312 234.972656 C 360.824219 234.972656 360.832031 234.96875 360.839844 234.96875 C 361.519531 235.429688 362.417969 235.425781 363.078125 234.925781 L 371.886719 228.273438 C 372.390625 227.894531 372.675781 227.292969 372.648438 226.660156 Z M 328.046875 360.566406 C 328.132812 360.570312 328.21875 360.570312 328.308594 360.570312 C 328.21875 360.570312 328.132812 360.570312 328.046875 360.566406 Z M 330.996094 359.375 C 331.199219 359.203125 331.40625 359.011719 331.613281 358.789062 C 331.878906 358.507812 332.144531 358.238281 332.410156 357.976562 C 332.144531 358.238281 331.878906 358.507812 331.613281 358.789062 C 331.40625 359.011719 331.203125 359.199219 330.996094 359.375 Z M 328.550781 360.550781 C 328.652344 360.539062 328.753906 360.523438 328.855469 360.5 C 328.753906 360.519531 328.652344 360.539062 328.550781 360.550781 Z M 329.078125 360.453125 C 329.253906 360.40625 329.429688 360.351562 329.605469 360.273438 C 329.429688 360.351562 329.253906 360.40625 329.078125 360.453125 Z M 329.738281 360.207031 C 329.886719 360.140625 330.035156 360.0625 330.1875 359.96875 C 330.035156 360.0625 329.886719 360.140625 329.738281 360.207031 Z M 330.386719 359.839844 C 330.527344 359.746094 330.667969 359.640625 330.8125 359.527344 C 330.667969 359.640625 330.527344 359.746094 330.386719 359.839844 Z M 340.269531 353.886719 C 339.773438 353.910156 339.277344 353.984375 338.785156 354.097656 C 338.503906 354.164062 338.222656 354.246094 337.941406 354.34375 C 339.199219 353.921875 340.472656 353.773438 341.742188 353.945312 C 341.253906 353.878906 340.761719 353.859375 340.269531 353.886719 Z M 332.652344 357.746094 C 332.84375 357.566406 333.03125 357.394531 333.222656 357.226562 C 333.03125 357.394531 332.84375 357.566406 332.652344 357.746094 Z M 333.5 356.984375 C 333.691406 356.820312 333.882812 356.667969 334.074219 356.519531 C 333.882812 356.667969 333.691406 356.820312 333.5 356.984375 Z M 334.324219 356.320312 C 334.867188 355.90625 335.417969 355.542969 335.96875 355.230469 C 335.417969 355.542969 334.867188 355.90625 334.324219 356.320312 Z M 336.21875 355.097656 C 336.417969 354.992188 336.613281 354.890625 336.8125 354.800781 C 336.613281 354.890625 336.417969 354.992188 336.21875 355.097656 Z M 337.09375 354.671875 C 337.292969 354.585938 337.492188 354.507812 337.691406 354.433594 C 337.492188 354.507812 337.292969 354.585938 337.09375 354.671875 Z M 342.480469 354.082031 C 342.261719 354.03125 342.039062 353.992188 341.816406 353.960938 C 342.039062 353.992188 342.257812 354.03125 342.480469 354.082031 Z M 343.351562 202.941406 C 343.058594 202.980469 342.765625 203.019531 342.472656 203.058594 C 343.199219 202.96875 343.925781 202.867188 344.644531 202.769531 C 344.214844 202.828125 343.789062 202.890625 343.355469 202.945312 C 343.351562 202.945312 343.351562 202.941406 343.351562 202.941406 Z M 345.777344 202.613281 C 346.871094 202.453125 347.957031 202.285156 349.03125 202.101562 C 347.957031 202.285156 346.871094 202.453125 345.777344 202.613281 Z M 341.074219 203.222656 C 340.425781 203.296875 339.78125 203.371094 339.128906 203.4375 C 339.78125 203.371094 340.425781 203.296875 341.074219 203.222656 Z M 337.570312 203.589844 C 336.972656 203.644531 336.367188 203.699219 335.765625 203.75 C 336.367188 203.699219 336.96875 203.644531 337.570312 203.589844 Z M 334.078125 203.878906 C 333.515625 203.921875 332.949219 203.960938 332.382812 203.996094 C 332.949219 203.960938 333.515625 203.921875 334.078125 203.878906 Z M 330.578125 204.101562 C 330.0625 204.128906 329.542969 204.152344 329.027344 204.175781 C 329.542969 204.152344 330.0625 204.132812 330.578125 204.101562 Z M 276.253906 22.894531 C 285.289062 20.65625 294.433594 26.171875 296.671875 35.210938 C 298.910156 44.246094 293.398438 53.394531 284.359375 55.632812 C 275.328125 57.871094 266.1875 52.359375 263.949219 43.320312 C 261.710938 34.28125 267.222656 25.132812 276.253906 22.894531 Z M 287.019531 108.238281 C 287.007812 108.242188 286.996094 108.25 286.984375 108.257812 C 284.105469 109.253906 281.625 111.367188 280.25 114.363281 L 263.492188 143.828125 L 274.4375 159.171875 L 264.289062 144.945312 L 263.488281 145.75 L 247.109375 124.484375 L 257.566406 124.484375 C 260.066406 124.484375 262.09375 122.457031 262.09375 119.957031 L 262.09375 73.921875 C 262.398438 74.085938 262.707031 74.25 263.019531 74.40625 L 267.988281 69.457031 C 270.132812 70.332031 272.367188 70.984375 274.671875 71.382812 L 276.25 78.234375 C 278.433594 78.464844 280.65625 78.5 282.898438 78.347656 L 284.726562 71.578125 C 285.871094 71.417969 287.007812 71.203125 288.144531 70.921875 C 289.292969 70.636719 290.398438 70.296875 291.480469 69.902344 L 296.257812 75.035156 C 298.308594 74.121094 300.257812 73.054688 302.082031 71.828125 L 300.28125 65.035156 C 302.132812 63.605469 303.804688 61.984375 305.289062 60.207031 L 305.621094 60.308594 C 305.710938 60.636719 305.835938 60.929688 305.980469 61.195312 C 305.011719 63.113281 304.378906 65.242188 304.195312 67.519531 C 303.949219 70.484375 304.472656 73.332031 305.597656 75.871094 C 305.578125 76.332031 305.574219 76.59375 305.574219 76.59375 L 305.738281 86.09375 C 305.808594 90.394531 307.941406 94.273438 311.207031 96.636719 L 311.160156 101.675781 C 303.179688 102.65625 295.167969 104.835938 287.019531 108.238281 Z M 307.925781 62.710938 C 307.796875 63.117188 307.675781 63.523438 307.558594 63.925781 C 307.675781 63.523438 307.796875 63.117188 307.925781 62.710938 Z M 307.453125 64.304688 C 307.371094 64.582031 307.296875 64.863281 307.226562 65.140625 C 307.296875 64.863281 307.371094 64.582031 307.453125 64.304688 Z M 307.117188 65.558594 C 307.050781 65.832031 306.984375 66.101562 306.921875 66.371094 C 306.984375 66.101562 307.050781 65.832031 307.117188 65.558594 Z M 306.835938 66.742188 C 306.761719 67.085938 306.6875 67.425781 306.621094 67.761719 C 306.6875 67.425781 306.761719 67.085938 306.835938 66.742188 Z M 306.59375 67.878906 C 306.519531 68.253906 306.449219 68.625 306.386719 68.988281 C 306.449219 68.625 306.519531 68.253906 306.59375 67.878906 Z M 306.335938 69.289062 C 306.289062 69.550781 306.246094 69.804688 306.207031 70.058594 C 306.246094 69.804688 306.289062 69.550781 306.335938 69.289062 Z M 306.152344 70.40625 C 306.117188 70.640625 306.082031 70.871094 306.050781 71.097656 C 306.082031 70.871094 306.117188 70.640625 306.152344 70.40625 Z M 306.007812 71.40625 C 305.972656 71.675781 305.941406 71.933594 305.910156 72.183594 C 305.941406 71.933594 305.972656 71.675781 306.007812 71.40625 Z M 305.894531 72.328125 C 305.859375 72.625 305.828125 72.910156 305.800781 73.183594 C 305.828125 72.910156 305.859375 72.625 305.894531 72.328125 Z M 305.777344 73.40625 C 305.761719 73.597656 305.742188 73.78125 305.726562 73.957031 C 305.742188 73.78125 305.761719 73.597656 305.777344 73.40625 Z M 305.703125 74.230469 C 305.691406 74.375 305.683594 74.515625 305.671875 74.644531 C 305.683594 74.511719 305.691406 74.375 305.703125 74.230469 Z M 305.652344 74.90625 C 305.644531 75.023438 305.636719 75.136719 305.632812 75.246094 C 305.636719 75.136719 305.644531 75.023438 305.652344 74.90625 Z M 305.617188 75.464844 C 305.613281 75.53125 305.613281 75.582031 305.609375 75.640625 C 305.613281 75.582031 305.613281 75.53125 305.617188 75.464844 Z M 297.425781 202.957031 C 297.375 202.953125 297.328125 202.945312 297.28125 202.941406 C 297.308594 202.945312 297.335938 202.949219 297.359375 202.949219 C 297.382812 202.953125 297.402344 202.957031 297.425781 202.957031 Z M 290.453125 201.863281 C 290.355469 201.824219 290.261719 201.78125 290.167969 201.734375 C 290.261719 201.78125 290.355469 201.828125 290.453125 201.863281 Z M 291.195312 202.078125 C 291.007812 202.046875 290.828125 201.996094 290.652344 201.9375 C 290.828125 201.996094 291.007812 202.046875 291.195312 202.078125 Z M 300.300781 203.289062 C 300.402344 203.300781 300.507812 203.3125 300.609375 203.324219 C 300.507812 203.3125 300.402344 203.300781 300.300781 203.289062 Z M 310.179688 204.085938 C 310.308594 204.09375 310.441406 204.097656 310.570312 204.105469 C 310.441406 204.097656 310.308594 204.09375 310.179688 204.085938 Z M 303.507812 203.605469 C 303.65625 203.617188 303.808594 203.632812 303.957031 203.644531 C 303.808594 203.632812 303.65625 203.617188 303.507812 203.605469 Z M 306.816406 203.875 C 306.976562 203.886719 307.136719 203.894531 307.296875 203.90625 C 307.136719 203.894531 306.976562 203.886719 306.816406 203.875 Z M 322.695312 212.027344 C 322.703125 212.019531 322.707031 212.007812 322.714844 212 C 322.707031 212.007812 322.703125 212.019531 322.695312 212.027344 Z M 322.804688 211.875 C 322.832031 211.816406 322.851562 211.75 322.855469 211.679688 C 322.851562 211.75 322.832031 211.816406 322.804688 211.875 Z M 325.773438 204.292969 C 326.203125 204.28125 326.632812 204.273438 327.0625 204.257812 C 326.632812 204.273438 326.203125 204.28125 325.773438 204.292969 Z M 323.027344 204.351562 C 323.195312 204.347656 323.363281 204.347656 323.53125 204.347656 C 323.363281 204.351562 323.195312 204.347656 323.027344 204.351562 Z M 342.496094 203.605469 C 342.417969 203.429688 342.347656 203.253906 342.285156 203.085938 C 342.347656 203.253906 342.417969 203.429688 342.496094 203.605469 Z M 344.042969 206.355469 C 344.042969 206.351562 344.039062 206.351562 344.039062 206.351562 C 344.039062 206.351562 344.039062 206.351562 344.042969 206.355469 Z M 343.007812 204.699219 C 343 204.683594 342.992188 204.664062 342.984375 204.648438 C 342.992188 204.667969 343 204.683594 343.007812 204.699219 Z M 349.746094 201.894531 C 349.765625 201.886719 349.78125 201.878906 349.796875 201.871094 C 349.78125 201.878906 349.765625 201.886719 349.746094 201.894531 Z M 351.164062 180.820312 C 351.199219 181.488281 351.238281 182.15625 351.277344 182.824219 C 351.238281 182.15625 351.199219 181.488281 351.164062 180.820312 Z M 350.914062 176.101562 C 350.949219 176.777344 350.984375 177.46875 351.019531 178.15625 C 350.984375 177.464844 350.949219 176.777344 350.914062 176.101562 Z M 351.050781 178.746094 C 351.082031 179.335938 351.113281 179.925781 351.144531 180.519531 C 351.113281 179.925781 351.082031 179.335938 351.050781 178.746094 Z M 351.332031 183.835938 C 351.347656 184.066406 351.359375 184.292969 351.375 184.523438 C 351.359375 184.292969 351.347656 184.066406 351.332031 183.835938 Z M 351.332031 183.835938 " fill-opacity="1" fill-rule="nonzero"/></g><path fill="#eaeaea" d="M 257.179688 373.253906 C 257.054688 374.207031 257.796875 375.046875 258.757812 375.046875 L 298.757812 375.046875 C 299.585938 375.046875 300.277344 374.410156 300.339844 373.582031 C 300.386719 372.902344 300.4375 372.015625 300.460938 370.988281 L 267.574219 370.988281 L 264.832031 366.707031 C 263.875 367.171875 262.957031 367.59375 262.105469 367.964844 C 258.367188 369.585938 257.421875 371.453125 257.179688 373.253906 Z M 257.179688 373.253906 " fill-opacity="1" fill-rule="nonzero"/><path fill="#eaeaea" d="M 102.140625 163.503906 C 102.140625 165.992188 104.15625 168.011719 106.644531 168.011719 L 126.550781 168.011719 C 126.015625 166.679688 125.714844 165.226562 125.714844 163.703125 C 125.714844 157.308594 130.894531 152.125 137.289062 152.125 C 143.679688 152.125 148.863281 157.308594 148.863281 163.703125 C 148.863281 165.226562 148.5625 166.679688 148.027344 168.011719 L 169.167969 168.011719 C 171.652344 168.011719 173.671875 165.992188 173.671875 163.503906 L 173.671875 141.882812 C 175.277344 142.746094 177.113281 143.234375 179.0625 143.234375 C 185.382812 143.234375 190.507812 138.109375 190.507812 131.785156 C 190.507812 125.460938 185.382812 120.332031 179.0625 120.332031 C 177.113281 120.332031 175.277344 120.824219 173.671875 121.683594 L 173.671875 100.945312 C 173.671875 98.457031 171.652344 96.4375 169.167969 96.4375 L 128.960938 96.4375 C 128.984375 96.324219 129.011719 96.203125 129.035156 96.09375 L 130.707031 93.082031 C 131.199219 92.003906 130.625 90.738281 129.492188 90.394531 C 128.710938 90.15625 127.929688 90.445312 127.4375 91.03125 C 127.363281 90.140625 126.738281 89.335938 125.800781 89.109375 C 124.734375 88.847656 123.714844 89.441406 123.296875 90.421875 C 123.339844 89.28125 122.488281 88.265625 121.308594 88.164062 C 120.078125 88.058594 119.058594 89.003906 118.9375 90.234375 C 118.929688 90.3125 118.921875 90.417969 118.914062 90.535156 L 117.496094 90.40625 C 117.140625 89.441406 116.136719 88.816406 115.0625 89.011719 C 114.410156 89.132812 113.90625 89.53125 113.601562 90.0625 L 113.351562 90.039062 C 113.351562 90.039062 112.949219 92.414062 112.4375 96.117188 C 112.027344 95.359375 111.527344 94.386719 111.035156 93.34375 C 110.441406 92.070312 109.769531 91.164062 109.109375 90.542969 C 109.640625 89.601562 110.152344 88.652344 110.628906 87.6875 L 106.441406 83.480469 C 107.265625 79.242188 108.308594 75.492188 108.707031 69.753906 L 116.320312 67.996094 C 116.664062 64.75 116.714844 61.441406 116.488281 58.105469 L 106.425781 55.386719 C 106.191406 53.683594 105.875 51.992188 105.453125 50.296875 C 105.03125 48.59375 104.523438 46.949219 103.9375 45.332031 L 111.570312 38.230469 C 110.210938 35.175781 108.621094 32.273438 106.804688 29.558594 L 96.703125 32.242188 C 94.578125 29.484375 92.160156 26.996094 89.53125 24.792969 L 92.582031 14.808594 C 89.910156 12.867188 87.074219 11.160156 84.113281 9.695312 L 76.710938 17.058594 C 73.535156 15.761719 70.207031 14.785156 66.777344 14.191406 L 64.433594 4.003906 C 61.1875 3.664062 57.882812 3.613281 54.546875 3.835938 L 51.832031 13.90625 C 50.128906 14.140625 48.4375 14.457031 46.734375 14.882812 C 45.039062 15.300781 43.394531 15.808594 41.78125 16.394531 L 34.679688 8.761719 C 31.628906 10.121094 28.730469 11.710938 26.015625 13.527344 L 28.695312 23.636719 C 25.941406 25.761719 23.457031 28.179688 21.242188 30.8125 L 11.269531 27.757812 C 9.332031 30.433594 7.625 33.269531 6.164062 36.234375 L 13.523438 43.636719 C 12.214844 46.820312 11.25 50.144531 10.65625 53.574219 L 0.472656 55.917969 C 0.128906 59.167969 0.078125 62.476562 0.304688 65.8125 L 10.367188 68.53125 C 10.601562 70.234375 10.917969 71.921875 11.34375 73.628906 C 11.761719 75.324219 12.269531 76.96875 12.855469 78.585938 L 5.222656 85.6875 C 6.582031 88.742188 8.171875 91.644531 9.988281 94.359375 L 20.089844 91.675781 C 22.214844 94.433594 24.621094 96.921875 27.265625 99.136719 L 24.210938 109.113281 C 25.960938 110.378906 27.785156 111.539062 29.660156 112.605469 C 21.632812 127.183594 18.382812 146.511719 31.925781 159.160156 C 32.335938 158.761719 32.71875 158.402344 33.058594 158.089844 C 33.453125 158.433594 33.917969 158.714844 34.433594 158.90625 C 34.605469 158.96875 34.785156 159.027344 34.960938 159.085938 L 32.191406 159.421875 C 32.097656 159.335938 32.015625 159.246094 31.921875 159.160156 C 26.292969 164.597656 14.710938 177.761719 14.710938 194.058594 L 15.582031 240.246094 C 15.675781 246.625 14.617188 252.96875 12.421875 258.957031 C 3.257812 283.984375 4.980469 324.261719 4.980469 341.734375 L 6.53125 341.734375 C 6.535156 344.03125 6.519531 346.585938 6.457031 349.234375 C 6.457031 349.238281 6.457031 349.238281 6.457031 349.238281 C 6.457031 349.238281 6.457031 349.238281 6.460938 349.234375 C 5.808594 354.113281 4.957031 357.734375 4.851562 362.363281 L 4.757812 362.363281 C 4.511719 362.363281 4.316406 362.5625 4.316406 362.804688 C 4.316406 363.050781 4.511719 363.246094 4.757812 363.246094 L 4.839844 363.246094 C 4.839844 364.261719 4.871094 365.320312 4.949219 366.460938 L 30.59375 366.460938 C 30.542969 365.03125 30.207031 363.851562 29.691406 362.828125 C 29.691406 362.820312 29.699219 362.8125 29.699219 362.804688 C 29.699219 362.648438 29.609375 362.515625 29.484375 362.4375 C 26.90625 357.890625 20.726562 356.441406 20.683594 349.457031 C 20.589844 348.898438 20.425781 348.445312 20.210938 348.078125 C 20.316406 348.253906 20.40625 348.453125 20.484375 348.671875 C 20.527344 346.496094 20.691406 344.070312 20.910156 341.734375 L 22.667969 341.734375 L 41.890625 258.597656 L 44.199219 242.824219 C 44.207031 242.917969 44.210938 243.011719 44.222656 243.109375 L 43.089844 251.679688 C 43.054688 251.96875 43.257812 252.234375 43.542969 252.269531 C 43.566406 252.273438 43.589844 252.277344 43.613281 252.277344 C 43.875 252.277344 44.101562 252.082031 44.136719 251.816406 L 51.535156 195.734375 L 44.488281 249.148438 C 44.4375 252.484375 44.058594 255.773438 43.34375 258.957031 C 37.707031 283.984375 43.15625 324.261719 45.621094 341.734375 L 46.527344 341.734375 C 46.578125 344.851562 46.386719 347.894531 45.765625 350.597656 C 45.761719 350.609375 43.921875 355.40625 44.050781 362.363281 C 43.808594 362.367188 43.613281 362.5625 43.613281 362.804688 C 43.613281 363.050781 43.8125 363.246094 44.054688 363.246094 L 44.074219 363.246094 C 44.117188 364.28125 44.203125 365.355469 44.347656 366.464844 L 87.6875 366.460938 C 87.6875 366.460938 88.03125 364.933594 87.207031 363.195312 C 87.351562 363.121094 87.449219 362.976562 87.449219 362.804688 C 87.449219 362.558594 87.253906 362.363281 87.007812 362.363281 L 86.71875 362.363281 C 86 361.324219 84.808594 360.28125 82.816406 359.5 C 77.484375 357.402344 70.65625 355.78125 62.933594 347.40625 C 56.367188 354.171875 46.761719 350.953125 45.84375 350.625 C 46.761719 350.953125 56.316406 354.152344 62.878906 347.457031 C 62.757812 345.746094 62.726562 343.789062 62.746094 341.734375 L 63.308594 341.734375 L 70.925781 258.597656 L 69.144531 186.367188 L 69.144531 162.070312 C 69.71875 161.867188 70.238281 161.542969 70.671875 161.128906 C 73.414062 162.523438 76.832031 162.265625 79.359375 160.191406 L 110.726562 134.46875 L 102.140625 141.511719 Z M 19.648438 347.433594 C 19.574219 347.371094 19.5 347.304688 19.417969 347.25 C 19.5 347.304688 19.574219 347.371094 19.648438 347.433594 Z M 19.179688 347.128906 C 19.09375 347.085938 19.007812 347.042969 18.917969 347.011719 C 19.007812 347.042969 19.09375 347.085938 19.179688 347.128906 Z M 18.652344 346.9375 C 18.558594 346.910156 18.464844 346.886719 18.367188 346.871094 C 18.464844 346.886719 18.558594 346.910156 18.652344 346.9375 Z M 18.074219 346.84375 C 17.972656 346.835938 17.867188 346.828125 17.761719 346.828125 C 17.867188 346.828125 17.96875 346.835938 18.074219 346.84375 Z M 17.453125 346.835938 C 17.34375 346.84375 17.234375 346.851562 17.121094 346.867188 C 17.234375 346.851562 17.34375 346.84375 17.453125 346.835938 Z M 16.796875 346.910156 C 16.683594 346.929688 16.566406 346.953125 16.449219 346.976562 C 16.566406 346.953125 16.683594 346.929688 16.796875 346.910156 Z M 16.117188 347.054688 C 15.996094 347.085938 15.875 347.121094 15.753906 347.15625 C 15.875 347.121094 15.996094 347.085938 16.117188 347.054688 Z M 15.417969 347.261719 C 15.292969 347.304688 15.167969 347.347656 15.042969 347.394531 C 15.167969 347.347656 15.292969 347.304688 15.417969 347.261719 Z M 14.710938 347.515625 C 14.582031 347.566406 14.453125 347.621094 14.324219 347.675781 C 14.453125 347.621094 14.582031 347.566406 14.710938 347.515625 Z M 14 347.816406 C 13.867188 347.875 13.734375 347.9375 13.605469 348 C 13.734375 347.9375 13.867188 347.875 14 347.816406 Z M 13.296875 348.144531 C 13.160156 348.210938 13.023438 348.285156 12.886719 348.355469 C 13.023438 348.28125 13.160156 348.214844 13.296875 348.144531 Z M 12.613281 348.496094 C 12.457031 348.578125 12.308594 348.664062 12.160156 348.746094 C 12.308594 348.664062 12.457031 348.578125 12.613281 348.496094 Z M 11.949219 348.863281 C 11.734375 348.988281 11.523438 349.113281 11.320312 349.234375 C 11.523438 349.113281 11.734375 348.988281 11.949219 348.863281 Z M 19.851562 347.605469 C 19.925781 347.683594 19.988281 347.78125 20.054688 347.871094 C 19.988281 347.777344 19.925781 347.683594 19.851562 347.605469 Z M 106.609375 96.445312 C 106.167969 96.445312 105.753906 96.53125 105.351562 96.652344 C 105.347656 96.46875 105.34375 96.289062 105.339844 96.109375 L 105.523438 96.164062 C 105.828125 95.742188 106.117188 95.308594 106.410156 94.878906 C 106.472656 95.390625 106.539062 95.910156 106.609375 96.445312 Z M 75.535156 110.101562 C 75.476562 110.039062 75.417969 109.980469 75.359375 109.921875 C 75.421875 109.980469 75.476562 110.039062 75.535156 110.101562 Z M 44.734375 161.75 C 44.65625 161.734375 44.582031 161.71875 44.507812 161.707031 C 44.582031 161.71875 44.65625 161.734375 44.734375 161.75 Z M 42.636719 161.304688 C 42.585938 161.292969 42.539062 161.285156 42.492188 161.273438 C 42.539062 161.285156 42.585938 161.292969 42.636719 161.304688 Z M 40.59375 160.808594 C 40.570312 160.804688 40.546875 160.800781 40.527344 160.792969 C 40.550781 160.796875 40.570312 160.804688 40.59375 160.808594 Z M 46.894531 162.136719 C 46.785156 162.121094 46.671875 162.105469 46.566406 162.085938 C 46.675781 162.105469 46.785156 162.121094 46.894531 162.136719 Z M 55.960938 163.046875 C 55.6875 163.039062 55.417969 163.035156 55.148438 163.023438 C 55.417969 163.035156 55.6875 163.039062 55.960938 163.046875 Z M 53.652344 162.929688 C 53.421875 162.914062 53.191406 162.902344 52.957031 162.882812 C 53.191406 162.902344 53.421875 162.910156 53.652344 162.929688 Z M 51.367188 162.734375 C 51.175781 162.714844 50.984375 162.699219 50.796875 162.679688 C 50.984375 162.699219 51.175781 162.714844 51.367188 162.734375 Z M 49.105469 162.46875 C 48.960938 162.449219 48.808594 162.433594 48.664062 162.410156 C 48.8125 162.433594 48.960938 162.449219 49.105469 162.46875 Z M 57.355469 163.089844 C 57.667969 163.09375 57.980469 163.089844 58.292969 163.089844 C 57.980469 163.089844 57.667969 163.09375 57.355469 163.089844 Z M 76.433594 111.074219 C 76.484375 111.132812 76.539062 111.1875 76.585938 111.25 C 76.539062 111.1875 76.484375 111.132812 76.433594 111.074219 Z M 77.546875 112.460938 C 77.785156 112.609375 78.023438 112.761719 78.253906 112.933594 C 78.023438 112.761719 77.785156 112.613281 77.546875 112.460938 Z M 52.363281 37.617188 C 63.277344 34.914062 74.292969 39.8125 79.832031 48.953125 C 79.59375 48.996094 79.359375 49.035156 79.121094 49.085938 C 64.984375 51.660156 56.800781 51.222656 53.976562 67.375 C 52.359375 76.617188 52.796875 81.246094 50.863281 85.882812 C 42.816406 83.335938 36.242188 76.789062 34.066406 67.996094 C 30.738281 54.550781 38.933594 40.945312 52.363281 37.617188 Z M 31.6875 153.875 C 31.632812 154.113281 31.605469 154.355469 31.589844 154.59375 C 31.605469 154.355469 31.632812 154.113281 31.6875 153.875 Z M 31.585938 154.804688 C 31.585938 154.976562 31.59375 155.148438 31.613281 155.320312 C 31.59375 155.148438 31.585938 154.976562 31.585938 154.804688 Z M 31.796875 156.195312 C 31.726562 155.980469 31.675781 155.753906 31.640625 155.527344 C 31.675781 155.753906 31.726562 155.980469 31.796875 156.195312 Z M 31.820312 156.25 C 31.890625 156.445312 31.976562 156.636719 32.070312 156.824219 C 31.976562 156.636719 31.890625 156.445312 31.820312 156.25 Z M 32.59375 157.601562 C 32.734375 157.773438 32.890625 157.9375 33.058594 158.085938 C 32.890625 157.9375 32.734375 157.773438 32.59375 157.601562 Z M 32.1875 157.023438 C 32.269531 157.160156 32.355469 157.292969 32.453125 157.417969 C 32.355469 157.292969 32.265625 157.160156 32.1875 157.023438 Z M 38.636719 160.273438 C 38.628906 160.269531 38.621094 160.269531 38.613281 160.265625 C 38.621094 160.269531 38.628906 160.269531 38.636719 160.273438 Z M 61.804688 163.003906 C 62.207031 162.980469 62.605469 162.945312 63.003906 162.917969 C 62.605469 162.945312 62.207031 162.980469 61.804688 163.003906 Z M 59.578125 163.085938 C 59.933594 163.078125 60.285156 163.058594 60.640625 163.046875 C 60.285156 163.058594 59.933594 163.078125 59.578125 163.085938 Z M 66.257812 162.589844 C 66.996094 162.492188 67.734375 162.378906 68.46875 162.253906 C 67.734375 162.378906 66.996094 162.492188 66.257812 162.589844 Z M 64.035156 162.839844 C 64.507812 162.796875 64.976562 162.738281 65.449219 162.679688 C 64.976562 162.738281 64.507812 162.796875 64.035156 162.839844 Z M 77.722656 141.203125 C 77.945312 140.429688 78.164062 139.65625 78.378906 138.882812 L 79.714844 139.875 Z M 102.039062 124.996094 C 102.070312 124.777344 102.101562 124.554688 102.140625 124.335938 L 102.140625 124.929688 L 104.476562 123.375 Z M 102.039062 124.996094 " fill-opacity="1" fill-rule="nonzero"/><path fill="#eaeaea" d="M 41.78125 16.394531 L 34.683594 8.757812 C 31.628906 10.121094 28.730469 11.707031 26.015625 13.527344 L 28.699219 23.632812 C 25.941406 25.761719 23.457031 28.175781 21.242188 30.8125 L 11.273438 27.753906 C 9.335938 30.429688 7.625 33.269531 6.164062 36.230469 L 13.523438 43.636719 C 12.214844 46.816406 11.25 50.140625 10.65625 53.574219 L 0.472656 55.917969 C 0.128906 59.167969 0.078125 62.476562 0.304688 65.8125 L 10.367188 68.53125 C 10.601562 70.234375 10.921875 71.921875 11.34375 73.628906 C 11.761719 75.324219 12.269531 76.96875 12.855469 78.585938 L 5.222656 85.6875 C 6.582031 88.742188 8.171875 91.644531 9.988281 94.359375 L 20.089844 91.675781 C 22.214844 94.433594 24.621094 96.921875 27.265625 99.136719 L 24.210938 109.113281 C 26.882812 111.050781 29.71875 112.761719 32.679688 114.222656 L 40.070312 106.863281 C 43.261719 108.167969 46.585938 109.132812 50.011719 109.726562 L 52.359375 119.917969 C 55.605469 120.257812 58.910156 120.308594 62.246094 120.085938 L 64.960938 110.019531 C 66.664062 109.785156 68.355469 109.464844 70.046875 109.042969 C 71.753906 108.621094 73.398438 108.113281 75.011719 107.527344 L 82.109375 115.160156 C 85.164062 113.800781 88.0625 112.210938 90.777344 110.394531 L 88.09375 100.289062 C 90.851562 98.160156 93.339844 95.753906 95.542969 93.109375 L 105.519531 96.164062 C 107.457031 93.488281 109.167969 90.652344 110.628906 87.691406 L 103.273438 80.296875 C 104.570312 77.105469 105.542969 73.777344 106.136719 70.347656 L 116.320312 68.003906 C 116.664062 64.753906 116.714844 61.445312 116.488281 58.109375 L 106.425781 55.390625 C 106.191406 53.6875 105.871094 51.996094 105.453125 50.300781 C 105.03125 48.597656 104.523438 46.953125 103.9375 45.335938 L 111.570312 38.234375 C 110.210938 35.179688 108.621094 32.277344 106.804688 29.5625 L 96.703125 32.246094 C 94.578125 29.488281 92.160156 27 89.53125 24.796875 L 92.582031 14.8125 C 89.910156 12.871094 87.074219 11.164062 84.113281 9.699219 L 76.710938 17.0625 C 73.535156 15.765625 70.207031 14.789062 66.777344 14.195312 L 64.433594 4.003906 C 61.1875 3.664062 57.882812 3.613281 54.546875 3.835938 L 51.832031 13.90625 C 50.128906 14.140625 48.4375 14.457031 46.734375 14.882812 C 45.039062 15.300781 43.394531 15.808594 41.78125 16.394531 Z M 52.363281 37.617188 C 65.804688 34.285156 79.398438 42.488281 82.730469 55.933594 C 86.054688 69.371094 77.859375 82.976562 64.421875 86.304688 C 50.992188 89.636719 37.394531 81.433594 34.066406 67.996094 C 30.738281 54.550781 38.933594 40.945312 52.363281 37.617188 Z M 269.136719 8.625 L 264.363281 3.488281 C 262.308594 4.40625 260.359375 5.472656 258.539062 6.695312 L 260.339844 13.492188 C 258.488281 14.921875 256.816406 16.546875 255.328125 18.320312 L 248.625 16.261719 C 247.320312 18.0625 246.171875 19.96875 245.1875 21.960938 L 250.136719 26.941406 C 249.257812 29.082031 248.609375 31.316406 248.207031 33.625 L 241.363281 35.203125 C 241.132812 37.386719 241.097656 39.609375 241.246094 41.855469 L 248.015625 43.679688 C 248.171875 44.824219 248.386719 45.960938 248.671875 47.109375 C 248.953125 48.25 249.292969 49.355469 249.6875 50.441406 L 244.558594 55.21875 C 245.472656 57.273438 246.539062 59.222656 247.761719 61.046875 L 254.554688 59.246094 C 255.984375 61.097656 257.601562 62.773438 259.378906 64.261719 L 257.324219 70.96875 C 259.121094 72.269531 261.027344 73.421875 263.019531 74.402344 L 267.988281 69.453125 C 270.132812 70.332031 272.367188 70.980469 274.675781 71.382812 L 276.25 78.234375 C 278.4375 78.460938 280.65625 78.496094 282.902344 78.347656 L 284.726562 71.578125 C 285.871094 71.417969 287.007812 71.203125 288.148438 70.921875 C 289.292969 70.636719 290.398438 70.296875 291.484375 69.902344 L 296.257812 75.035156 C 298.3125 74.121094 300.261719 73.050781 302.085938 71.828125 L 300.28125 65.035156 C 302.132812 63.601562 303.808594 61.984375 305.289062 60.207031 L 312 62.261719 C 313.300781 60.464844 314.449219 58.554688 315.433594 56.5625 L 310.488281 51.589844 C 311.359375 49.445312 312.011719 47.210938 312.414062 44.902344 L 319.261719 43.324219 C 319.488281 41.136719 319.523438 38.914062 319.375 36.671875 L 312.605469 34.84375 C 312.449219 33.699219 312.234375 32.5625 311.953125 31.421875 C 311.667969 30.277344 311.328125 29.167969 310.933594 28.082031 L 316.0625 23.304688 C 315.148438 21.25 314.082031 19.300781 312.859375 17.476562 L 306.066406 19.28125 C 304.636719 17.425781 303.015625 15.753906 301.246094 14.269531 L 303.296875 7.554688 C 301.5 6.253906 299.59375 5.101562 297.601562 4.121094 L 292.625 9.070312 C 290.488281 8.199219 288.253906 7.542969 285.945312 7.140625 L 284.371094 0.289062 C 282.1875 0.0625 279.964844 0.0273438 277.722656 0.175781 L 275.894531 6.949219 C 274.75 7.105469 273.613281 7.320312 272.46875 7.605469 C 271.328125 7.890625 270.222656 8.230469 269.136719 8.625 Z M 276.253906 22.894531 C 285.289062 20.65625 294.433594 26.171875 296.671875 35.210938 C 298.910156 44.246094 293.398438 53.394531 284.359375 55.632812 C 275.328125 57.871094 266.1875 52.359375 263.949219 43.320312 C 261.710938 34.28125 267.222656 25.132812 276.253906 22.894531 Z M 160.46875 242.199219 L 152.34375 235.207031 C 149.378906 236.949219 146.597656 238.902344 144.03125 241.074219 L 147.925781 251.09375 C 145.351562 253.582031 143.085938 256.335938 141.125 259.28125 L 130.589844 257.296875 C 128.914062 260.253906 127.492188 263.347656 126.335938 266.542969 L 134.703125 273.265625 C 133.730469 276.667969 133.121094 280.175781 132.90625 283.75 L 122.769531 287.3125 C 122.789062 290.671875 123.113281 294.058594 123.722656 297.441406 L 134.320312 299.066406 C 134.753906 300.78125 135.273438 302.472656 135.898438 304.167969 C 136.523438 305.851562 137.226562 307.476562 138.011719 309.058594 L 131.023438 317.191406 C 132.761719 320.15625 134.714844 322.9375 136.882812 325.503906 L 146.898438 321.609375 C 149.386719 324.183594 152.128906 326.453125 155.085938 328.414062 L 153.101562 338.957031 C 156.054688 340.628906 159.148438 342.054688 162.339844 343.207031 L 169.050781 334.84375 C 172.460938 335.8125 175.96875 336.421875 179.539062 336.636719 L 183.101562 346.78125 C 186.457031 346.757812 189.839844 346.433594 193.222656 345.824219 L 194.847656 335.222656 C 196.5625 334.789062 198.25 334.269531 199.9375 333.644531 C 201.628906 333.019531 203.253906 332.3125 204.835938 331.527344 L 212.960938 338.519531 C 215.925781 336.78125 218.707031 334.828125 221.269531 332.65625 L 217.378906 322.636719 C 219.953125 320.148438 222.21875 317.402344 224.167969 314.449219 L 234.714844 316.429688 C 236.390625 313.476562 237.8125 310.382812 238.964844 307.1875 L 230.605469 300.472656 C 231.566406 297.0625 232.179688 293.550781 232.394531 289.976562 L 242.535156 286.417969 C 242.515625 283.054688 242.1875 279.671875 241.578125 276.289062 L 230.984375 274.660156 C 230.550781 272.949219 230.03125 271.257812 229.40625 269.570312 C 228.78125 267.875 228.078125 266.253906 227.292969 264.671875 L 234.28125 256.539062 C 232.542969 253.570312 230.585938 250.789062 228.417969 248.222656 L 218.402344 252.121094 C 215.917969 249.546875 213.164062 247.28125 210.222656 245.328125 L 212.203125 234.773438 C 209.25 233.097656 206.15625 231.675781 202.960938 230.519531 L 196.242188 238.890625 C 192.84375 237.925781 189.335938 237.308594 185.761719 237.09375 L 182.203125 226.949219 C 178.84375 226.972656 175.464844 227.296875 172.082031 227.90625 L 170.453125 238.507812 C 168.742188 238.941406 167.050781 239.460938 165.359375 240.085938 C 163.675781 240.710938 162.050781 241.414062 160.46875 242.199219 Z M 173.707031 262.675781 C 187.0625 257.738281 201.890625 264.5625 206.828125 277.925781 C 211.761719 291.277344 204.941406 306.113281 191.585938 311.054688 C 178.242188 315.992188 163.414062 309.164062 158.476562 295.8125 C 153.539062 282.453125 160.363281 267.613281 173.707031 262.675781 Z M 43.617188 252.273438 C 43.59375 252.273438 43.570312 252.273438 43.546875 252.269531 C 43.257812 252.230469 43.054688 251.96875 43.09375 251.679688 L 50.515625 195.410156 C 50.53125 195.292969 50.585938 195.179688 50.675781 195.097656 L 58.46875 187.6875 C 58.679688 187.484375 59.011719 187.492188 59.214844 187.707031 C 59.414062 187.917969 59.40625 188.25 59.195312 188.453125 L 51.535156 195.734375 L 44.136719 251.816406 C 44.101562 252.082031 43.875 252.273438 43.617188 252.273438 Z M 322.332031 212.175781 C 322.320312 212.175781 322.308594 212.175781 322.296875 212.175781 L 314.171875 211.660156 C 313.882812 211.644531 313.660156 211.394531 313.679688 211.101562 C 313.695312 210.8125 313.941406 210.578125 314.238281 210.609375 L 322.363281 211.121094 C 322.652344 211.140625 322.871094 211.390625 322.855469 211.679688 C 322.835938 211.960938 322.605469 212.175781 322.332031 212.175781 Z M 297.425781 202.957031 C 296.402344 205.691406 294.109375 209.644531 289.394531 209.644531 C 289.105469 209.644531 288.867188 209.40625 288.867188 209.117188 C 288.867188 208.824219 289.105469 208.589844 289.394531 208.589844 C 293.371094 208.589844 295.394531 205.273438 296.355469 202.820312 C 296.710938 202.867188 297.066406 202.914062 297.425781 202.957031 Z M 350.792969 209.117188 C 350.792969 209.40625 350.558594 209.644531 350.265625 209.644531 C 345.621094 209.644531 343.328125 205.8125 342.285156 203.085938 C 342.640625 203.039062 342.996094 202.988281 343.351562 202.941406 C 344.328125 205.382812 346.355469 208.589844 350.265625 208.589844 C 350.558594 208.589844 350.792969 208.824219 350.792969 209.117188 Z M 350.792969 209.117188 " fill-opacity="1" fill-rule="nonzero"/><path fill="#ffd427" d="M 6.460938 349.234375 C 6.460938 349.234375 8.304688 351.066406 11.320312 349.234375 C 14.683594 347.191406 19.929688 344.914062 20.683594 349.453125 C 20.738281 358.152344 30.308594 358.265625 30.59375 366.460938 L 4.949219 366.460938 C 4.46875 359.621094 5.628906 355.453125 6.460938 349.234375 M 45.765625 350.597656 C 45.765625 350.597656 43.15625 357.34375 44.347656 366.464844 L 87.6875 366.457031 C 87.6875 366.457031 88.746094 361.832031 82.816406 359.5 C 77.480469 357.402344 70.652344 355.78125 62.929688 347.40625 C 56.035156 354.515625 45.765625 350.597656 45.765625 350.597656 M 101.25 129.765625 L 78.660156 113.253906 C 78.539062 113.152344 78.382812 113.03125 78.253906 112.933594 C 78.023438 112.761719 77.785156 112.609375 77.546875 112.460938 C 73.679688 107.117188 67.21875 103.671875 60.054688 103.671875 C 50.058594 103.671875 41.433594 110.683594 39.386719 120.46875 L 31.6875 153.871094 C 31.195312 156.003906 32.382812 158.148438 34.433594 158.902344 C 43.878906 162.371094 56.617188 164.320312 68.46875 162.253906 C 69.988281 161.988281 71.242188 160.917969 71.761719 159.464844 C 73.179688 155.523438 76.109375 147.105469 78.375 138.882812 L 84.542969 143.457031 Z M 259.832031 252.878906 C 253.441406 252.878906 248.257812 247.691406 248.257812 241.296875 C 248.257812 234.902344 253.441406 229.714844 259.832031 229.714844 C 261.402344 229.714844 262.890625 230.039062 264.253906 230.605469 L 264.253906 210.191406 C 264.253906 207.675781 262.214844 205.632812 259.699219 205.632812 L 237.84375 205.632812 C 238.714844 204.007812 239.210938 202.152344 239.210938 200.175781 C 239.210938 193.78125 234.03125 188.597656 227.636719 188.597656 C 221.246094 188.597656 216.0625 193.78125 216.0625 200.175781 C 216.0625 202.152344 216.558594 204.007812 217.429688 205.632812 L 196.46875 205.632812 C 193.953125 205.632812 191.914062 207.675781 191.914062 210.191406 L 191.914062 273.457031 C 191.914062 275.972656 193.953125 278.015625 196.46875 278.015625 L 259.699219 278.015625 C 262.214844 278.015625 264.253906 275.972656 264.253906 273.457031 L 264.253906 251.988281 C 262.890625 252.554688 261.402344 252.878906 259.832031 252.878906 Z M 368.332031 172.613281 C 366.65625 156.011719 366.140625 136.378906 365.847656 132.492188 C 365.449219 127.910156 365.066406 123.328125 364.496094 118.753906 C 363.957031 114.445312 361.210938 110.964844 357.535156 109.273438 C 357.542969 109.242188 357.546875 109.21875 357.546875 109.21875 C 349.035156 105.542969 340.722656 103.109375 332.480469 101.925781 L 332.617188 103.746094 C 333.015625 109.457031 328.914062 114.511719 322.84375 114.921875 C 316.769531 115.332031 311.527344 111.035156 311.128906 105.324219 L 311.160156 101.679688 C 303.175781 102.65625 295.167969 104.835938 287.019531 108.238281 C 287.007812 108.246094 286.996094 108.253906 286.984375 108.257812 C 284.105469 109.253906 281.625 111.371094 280.25 114.367188 L 263.492188 143.828125 L 281.511719 169.09375 L 288.734375 152.78125 C 289.226562 158.914062 289.554688 164.140625 289.554688 167.09375 C 289.554688 176.101562 288.1875 191.96875 288.1875 198.5625 C 288.1875 200.316406 289.464844 201.796875 291.195312 202.078125 C 309.800781 205.09375 330.910156 205.179688 349.03125 202.101562 C 350.746094 201.808594 352.011719 200.332031 352.011719 198.589844 C 352.011719 193.886719 351.3125 184.414062 350.914062 176.101562 Z M 99.789062 75.1875 C 97.835938 75.1875 96.136719 76.519531 95.265625 78.472656 C 94.484375 78.109375 93.675781 78.121094 92.890625 78.507812 C 92.027344 76.535156 90.320312 75.1875 88.359375 75.1875 C 85.527344 75.1875 83.226562 77.984375 83.226562 81.425781 C 83.226562 84.863281 85.527344 87.660156 88.359375 87.660156 C 91.191406 87.660156 93.492188 84.863281 93.492188 81.425781 C 93.492188 80.707031 93.386719 80.019531 93.203125 79.375 C 93.796875 79.050781 94.367188 79.039062 94.957031 79.339844 C 94.765625 79.992188 94.65625 80.691406 94.65625 81.425781 C 94.65625 84.863281 96.957031 87.660156 99.789062 87.660156 C 102.621094 87.660156 104.921875 84.863281 104.921875 81.425781 C 104.917969 77.984375 102.617188 75.1875 99.789062 75.1875 Z M 88.359375 86.757812 C 86.023438 86.757812 84.125 84.367188 84.125 81.421875 C 84.125 78.480469 86.023438 76.089844 88.359375 76.089844 C 90.691406 76.089844 92.589844 78.480469 92.589844 81.421875 C 92.589844 84.367188 90.691406 86.757812 88.359375 86.757812 Z M 99.789062 86.757812 C 97.453125 86.757812 95.554688 84.367188 95.554688 81.421875 C 95.554688 78.480469 97.453125 76.089844 99.789062 76.089844 C 102.121094 76.089844 104.019531 78.480469 104.019531 81.421875 C 104.019531 84.367188 102.121094 86.757812 99.789062 86.757812 Z M 99.789062 86.757812 " fill-opacity="1" fill-rule="evenodd"/><g clip-path="url(#2934d91b8a)"><path fill="#f5c0a2" d="M 130.707031 93.082031 L 129.035156 96.09375 C 128.382812 99.171875 127.535156 102.632812 126.851562 105.757812 C 126.054688 109.398438 122.59375 111.105469 117.84375 110.394531 C 112.433594 109.585938 111.050781 107.085938 111.046875 107.082031 C 106.164062 101.5 106.914062 96.105469 105.949219 92.035156 C 105.527344 90.253906 105.410156 89.816406 106.261719 89.472656 C 107.207031 89.09375 109.402344 89.867188 111.035156 93.347656 C 111.527344 94.390625 112.03125 95.363281 112.4375 96.121094 C 112.949219 92.414062 113.351562 90.042969 113.351562 90.042969 L 113.601562 90.066406 C 113.90625 89.535156 114.410156 89.136719 115.0625 89.015625 C 116.136719 88.816406 117.140625 89.445312 117.496094 90.410156 L 118.914062 90.539062 C 118.921875 90.421875 118.929688 90.316406 118.9375 90.234375 C 119.058594 89.003906 120.078125 88.0625 121.308594 88.167969 C 122.488281 88.269531 123.339844 89.285156 123.296875 90.425781 C 123.714844 89.445312 124.734375 88.851562 125.800781 89.113281 C 126.738281 89.339844 127.363281 90.140625 127.4375 91.035156 C 127.929688 90.449219 128.710938 90.160156 129.492188 90.398438 C 130.625 90.742188 131.199219 92.003906 130.707031 93.082031 Z M 342.023438 345.050781 L 327.398438 345.050781 C 327.390625 345.328125 327.378906 345.597656 327.378906 345.886719 C 327.378906 350.984375 327.082031 354.882812 326.832031 360.3125 C 328.109375 360.820312 329.777344 360.75 331.613281 358.789062 C 335.300781 354.851562 339.269531 352.976562 343.21875 354.292969 C 342.09375 351.234375 341.914062 348.148438 342.023438 345.050781 Z M 6.460938 349.234375 C 6.460938 349.234375 8.304688 351.066406 11.320312 349.234375 C 14.472656 347.324219 19.269531 345.207031 20.484375 348.671875 C 20.527344 346.492188 20.691406 344.070312 20.910156 341.734375 L 6.53125 341.734375 C 6.535156 344.03125 6.519531 346.585938 6.460938 349.234375 C 6.460938 349.234375 6.460938 349.238281 6.460938 349.238281 C 6.460938 349.238281 6.460938 349.234375 6.460938 349.234375 Z M 45.765625 350.597656 C 45.765625 350.597656 55.980469 354.496094 62.875 347.457031 C 62.753906 345.746094 62.722656 343.785156 62.742188 341.734375 L 46.53125 341.734375 C 46.578125 344.851562 46.386719 347.890625 45.765625 350.597656 Z M 134.207031 120.277344 C 131.363281 120.277344 131.453125 120.332031 122.550781 120.292969 C 122.550781 120.292969 122.386719 120.289062 122.101562 120.289062 C 121.785156 120.289062 121.460938 120.289062 121.121094 120.285156 L 121.132812 120.300781 C 118.453125 120.347656 112.472656 120.597656 107.371094 121.886719 C 106.417969 122.125 105.546875 122.578125 104.8125 123.175781 C 104.699219 123.242188 104.585938 123.300781 104.476562 123.375 L 77.148438 141.585938 L 72.734375 134.011719 L 57.945312 143.53125 L 67.269531 157.855469 L 67.609375 158.378906 C 67.765625 158.617188 67.9375 158.847656 68.121094 159.074219 C 70.917969 162.488281 75.949219 162.988281 79.363281 160.191406 L 110.730469 134.46875 C 112.691406 134.71875 115.214844 134.933594 117.714844 134.894531 L 119.492188 136.296875 C 119.851562 136.582031 120.308594 136.710938 120.761719 136.660156 L 123.816406 136.296875 C 124.382812 136.230469 124.871094 135.859375 125.089844 135.332031 L 127.582031 129.308594 C 128.023438 128.242188 127.746094 127.007812 126.886719 126.234375 L 125.054688 124.578125 C 127.082031 124.34375 131.320312 123.839844 133.238281 123.476562 C 135.453125 123.054688 136.859375 120.277344 134.207031 120.277344 Z M 264.289062 144.945312 L 263.488281 145.75 L 247.109375 124.484375 L 202.988281 124.484375 C 202.921875 125.320312 203.503906 126.089844 204.820312 126.285156 C 205.261719 126.351562 205.808594 126.414062 206.433594 126.472656 C 205.96875 127.40625 206.308594 128.386719 207.664062 128.539062 C 208.253906 128.609375 209.136719 128.703125 210.183594 128.816406 C 210.4375 129.164062 210.824219 129.460938 211.363281 129.625 C 213.753906 130.347656 218.328125 131.359375 220.085938 131.742188 C 220.558594 131.84375 221.03125 131.914062 221.511719 131.953125 C 221.511719 131.953125 230.703125 132.71875 232.082031 132.789062 L 232.109375 132.792969 C 232.425781 132.808594 232.746094 132.816406 233.070312 132.820312 L 252.636719 168.25 C 255.957031 173.710938 263.078125 175.445312 268.539062 172.121094 C 269.472656 171.550781 273.398438 167.527344 277.394531 163.320312 Z M 372.636719 226.558594 C 372.636719 226.546875 372.644531 226.539062 372.644531 226.53125 C 372.617188 225.878906 372.457031 224.152344 372.242188 222 C 371.675781 216.328125 370.714844 207.664062 370.714844 207.660156 L 366.835938 172.914062 L 350.914062 176.101562 C 351.0625 179.140625 351.246094 182.332031 351.421875 185.394531 C 354.09375 194.949219 357.242188 206.164062 358.21875 209.644531 C 358.035156 209.898438 357.875 210.152344 357.738281 210.402344 C 355.960938 213.683594 355.671875 215.851562 356.25 220.765625 C 356.089844 220.695312 355.917969 220.644531 355.734375 220.625 C 354.558594 220.480469 353.53125 221.425781 353.582031 222.613281 L 353.832031 228.808594 C 353.855469 229.382812 354.132812 229.917969 354.59375 230.265625 L 359.488281 233.96875 C 359.488281 233.96875 359.488281 233.964844 359.488281 233.964844 L 360.757812 234.929688 C 361.445312 235.449219 362.394531 235.449219 363.078125 234.929688 L 371.886719 228.28125 C 372.390625 227.902344 372.675781 227.296875 372.648438 226.664062 Z M 298.941406 358.335938 C 298.941406 358.339844 298.941406 358.339844 298.941406 358.339844 C 298.921875 354.265625 299.492188 348.800781 299.957031 345.050781 L 284.347656 345.050781 C 284.003906 349.410156 283.363281 352.351562 282.394531 354.804688 C 287.726562 361.84375 294.902344 360.398438 298.941406 358.335938 Z M 334.863281 76.410156 C 333.855469 76.324219 333.132812 78.511719 332.667969 80.695312 C 332.460938 80.574219 332.222656 80.496094 331.960938 80.492188 C 331.960938 80.492188 330.949219 72.535156 332.902344 64.445312 C 331.183594 66.144531 324.898438 66.703125 320.355469 65.582031 C 314.804688 64.207031 311.582031 62.273438 307.925781 62.710938 C 305.648438 69.78125 305.574219 76.597656 305.574219 76.597656 L 305.734375 86.097656 C 305.808594 90.398438 307.941406 94.277344 311.207031 96.640625 L 311.128906 105.324219 C 311.527344 111.035156 316.769531 115.332031 322.84375 114.921875 C 328.914062 114.511719 333.015625 109.457031 332.617188 103.746094 L 331.4375 88.070312 L 332.136719 85.933594 C 332.4375 86.667969 333.144531 87.125 333.90625 86.933594 C 336.191406 86.351562 337.820312 84.484375 338.019531 82.152344 C 338.273438 79.148438 336.859375 76.578125 334.863281 76.410156 Z M 99.789062 87.660156 C 96.957031 87.660156 94.652344 84.863281 94.652344 81.421875 C 94.652344 80.691406 94.761719 79.992188 94.953125 79.339844 C 94.363281 79.039062 93.792969 79.050781 93.199219 79.375 C 93.386719 80.019531 93.492188 80.703125 93.492188 81.421875 C 93.492188 84.863281 91.1875 87.660156 88.355469 87.660156 C 85.527344 87.660156 83.226562 84.863281 83.226562 81.421875 C 83.226562 77.984375 85.527344 75.1875 88.355469 75.1875 C 90.320312 75.1875 92.027344 76.53125 92.890625 78.503906 C 93.671875 78.117188 94.480469 78.105469 95.265625 78.46875 C 96.132812 76.515625 97.835938 75.183594 99.785156 75.183594 C 100.304688 75.183594 100.808594 75.28125 101.28125 75.457031 C 101.296875 73.769531 100.996094 72.136719 100.441406 70.617188 C 99.929688 70.574219 99.417969 70.523438 98.902344 70.449219 C 94.109375 69.769531 86.527344 67.25 81.476562 64.199219 C 78.449219 69.214844 82.574219 79.292969 76.011719 81.429688 C 76.210938 79.097656 75.933594 76.328125 73.679688 75.773438 C 71.117188 75.148438 69.542969 77.027344 68.835938 79.867188 C 68.28125 82.078125 69.683594 84.425781 72.34375 85.863281 C 73.253906 86.355469 74.324219 86.203125 74.945312 85.621094 L 67.113281 104.832031 C 71.347656 106.265625 75 108.953125 77.535156 112.453125 C 77.777344 112.605469 78.019531 112.757812 78.253906 112.933594 C 78.382812 113.027344 78.535156 113.148438 78.660156 113.25 L 80.75 114.96875 L 86.230469 101.121094 C 87.574219 101.339844 88.976562 101.335938 90.390625 101.039062 C 95.238281 100.027344 98.714844 96.035156 99.324219 91.386719 L 99.804688 87.65625 C 99.800781 87.660156 99.792969 87.660156 99.789062 87.660156 Z M 99.789062 76.085938 C 97.453125 76.085938 95.554688 78.480469 95.554688 81.421875 C 95.554688 84.363281 97.453125 86.757812 99.789062 86.757812 C 99.832031 86.757812 99.878906 86.75 99.925781 86.75 L 101.171875 77.113281 C 101.203125 76.878906 101.222656 76.648438 101.238281 76.417969 C 100.785156 76.207031 100.296875 76.085938 99.789062 76.085938 Z M 88.359375 76.085938 C 86.023438 76.085938 84.125 78.480469 84.125 81.421875 C 84.125 84.363281 86.023438 86.757812 88.359375 86.757812 C 90.691406 86.757812 92.589844 84.363281 92.589844 81.421875 C 92.589844 78.480469 90.691406 76.085938 88.359375 76.085938 Z M 88.359375 76.085938 " fill-opacity="1" fill-rule="evenodd"/></g><path fill="#000000" d="M 29.257812 362.363281 L 4.757812 362.363281 C 4.511719 362.363281 4.316406 362.558594 4.316406 362.804688 C 4.316406 363.046875 4.511719 363.246094 4.757812 363.246094 L 29.257812 363.246094 C 29.5 363.246094 29.699219 363.046875 29.699219 362.804688 C 29.699219 362.558594 29.5 362.363281 29.257812 362.363281 Z M 29.257812 362.363281 " fill-opacity="1" fill-rule="nonzero"/><path fill="#000000" d="M 122.730469 130.757812 L 126.171875 132.429688 C 126.234375 132.457031 126.300781 132.472656 126.363281 132.472656 C 126.527344 132.472656 126.683594 132.378906 126.761719 132.222656 C 126.867188 132.003906 126.777344 131.738281 126.558594 131.632812 L 123.121094 129.960938 C 122.898438 129.855469 122.636719 129.945312 122.527344 130.167969 C 122.421875 130.386719 122.511719 130.652344 122.730469 130.757812 Z M 122.730469 130.757812 " fill-opacity="1" fill-rule="nonzero"/><path fill="#000000" d="M 87.007812 362.363281 L 44.054688 362.363281 C 43.8125 362.363281 43.613281 362.558594 43.613281 362.804688 C 43.613281 363.046875 43.8125 363.246094 44.054688 363.246094 L 87.007812 363.246094 C 87.253906 363.246094 87.449219 363.046875 87.449219 362.804688 C 87.449219 362.558594 87.253906 362.363281 87.007812 362.363281 Z M 87.007812 362.363281 " fill-opacity="1" fill-rule="nonzero"/><path fill="#000000" d="M 14.710938 194.058594 L 15.582031 240.246094 C 15.675781 246.625 14.617188 252.964844 12.421875 258.957031 C 3.257812 283.984375 4.980469 324.261719 4.980469 341.734375 L 22.667969 341.734375 L 41.890625 258.597656 L 44.199219 242.820312 C 44.207031 242.917969 44.210938 243.011719 44.222656 243.105469 L 50.515625 195.410156 C 50.53125 195.289062 50.585938 195.179688 50.675781 195.097656 L 58.46875 187.6875 C 58.679688 187.484375 59.011719 187.492188 59.214844 187.707031 C 59.414062 187.917969 59.40625 188.25 59.195312 188.449219 L 51.535156 195.730469 L 44.488281 249.144531 C 44.4375 252.484375 44.0625 255.769531 43.34375 258.953125 C 37.707031 283.980469 43.15625 324.261719 45.621094 341.730469 L 63.308594 341.730469 L 70.925781 258.597656 L 69.144531 186.367188 L 69.144531 162.066406 C 68.925781 162.144531 68.703125 162.210938 68.46875 162.25 C 56.832031 164.28125 44.347656 162.433594 34.960938 159.085938 L 32.191406 159.417969 C 32.097656 159.332031 32.019531 159.242188 31.925781 159.15625 C 26.296875 164.59375 14.710938 177.761719 14.710938 194.058594 Z M 14.710938 194.058594 " fill-opacity="1" fill-rule="nonzero"/><path fill="#000000" d="M 73.550781 133.507812 L 63.792969 116.75 C 63.667969 116.539062 63.398438 116.464844 63.1875 116.589844 C 62.976562 116.710938 62.90625 116.980469 63.03125 117.195312 L 72.785156 133.953125 C 72.867188 134.09375 73.015625 134.171875 73.167969 134.171875 C 73.246094 134.171875 73.320312 134.152344 73.390625 134.113281 C 73.601562 133.988281 73.671875 133.71875 73.550781 133.507812 Z M 73.550781 133.507812 " fill-opacity="1" fill-rule="nonzero"/><path fill="#000000" d="M 358.222656 210.101562 C 358.265625 210.101562 358.308594 210.09375 358.351562 210.082031 L 360.128906 209.539062 C 360.359375 209.46875 360.492188 209.222656 360.421875 208.988281 C 360.347656 208.753906 360.105469 208.625 359.867188 208.695312 L 358.09375 209.238281 C 357.859375 209.308594 357.730469 209.554688 357.800781 209.789062 C 357.859375 209.980469 358.035156 210.101562 358.222656 210.101562 Z M 358.222656 210.101562 " fill-opacity="1" fill-rule="nonzero"/><path fill="#000000" d="M 351.238281 175.90625 C 351.242188 175.90625 351.25 175.90625 351.257812 175.90625 C 351.5 175.894531 351.6875 175.691406 351.679688 175.449219 L 351.003906 160.097656 L 355.628906 126.617188 C 355.664062 126.375 355.496094 126.152344 355.253906 126.121094 C 355.011719 126.089844 354.789062 126.253906 354.753906 126.496094 L 350.125 160.058594 L 350.796875 175.484375 C 350.804688 175.722656 351 175.90625 351.238281 175.90625 Z M 351.238281 175.90625 " fill-opacity="1" fill-rule="nonzero"/><path fill="#000000" d="M 307.925781 62.710938 C 311.582031 62.273438 314.804688 64.207031 320.355469 65.578125 C 324.898438 66.703125 331.183594 66.144531 332.902344 64.441406 C 330.949219 72.535156 331.960938 80.492188 331.960938 80.492188 C 332.222656 80.496094 332.460938 80.574219 332.667969 80.695312 C 333.132812 78.507812 333.855469 76.324219 334.863281 76.410156 C 336.859375 76.578125 338.273438 79.148438 338.019531 82.148438 C 337.820312 84.484375 336.191406 86.351562 333.910156 86.933594 C 333.144531 87.125 332.4375 86.667969 332.140625 85.933594 L 331.4375 88.070312 L 331.472656 88.511719 C 333.808594 88.101562 343.011719 85.945312 341.96875 77.578125 C 341.96875 77.578125 349.214844 69.257812 342.023438 62.773438 C 342.101562 55.253906 338.046875 51.601562 330.492188 51.234375 C 330.492188 51.234375 313.417969 49.78125 309.621094 49.550781 C 304.210938 49.214844 303.992188 53.898438 305.59375 60.230469 C 305.6875 60.59375 305.824219 60.90625 305.984375 61.195312 C 305.015625 63.117188 304.382812 65.246094 304.195312 67.519531 C 303.953125 70.484375 304.476562 73.332031 305.601562 75.875 C 305.683594 73.945312 306.089844 68.414062 307.925781 62.710938 Z M 307.925781 62.710938 " fill-opacity="1" fill-rule="nonzero"/><path fill="#000000" d="M 288.886719 156.121094 C 288.902344 156.121094 288.914062 156.121094 288.929688 156.121094 C 289.171875 156.097656 289.351562 155.878906 289.328125 155.636719 L 286.648438 126.894531 C 286.625 126.648438 286.425781 126.480469 286.167969 126.492188 C 285.925781 126.515625 285.746094 126.734375 285.769531 126.976562 L 288.449219 155.71875 C 288.46875 155.949219 288.660156 156.121094 288.886719 156.121094 Z M 288.886719 156.121094 " fill-opacity="1" fill-rule="nonzero"/><path fill="#000000" d="M 289.394531 208.589844 C 293.367188 208.589844 295.394531 205.273438 296.351562 202.820312 C 294.617188 202.59375 292.894531 202.351562 291.195312 202.078125 C 290.585938 201.976562 290.035156 201.722656 289.574219 201.363281 L 289.308594 208.609375 C 289.335938 208.601562 289.363281 208.589844 289.394531 208.589844 Z M 289.394531 208.589844 " fill-opacity="1" fill-rule="nonzero"/><path fill="#000000" d="M 123.449219 127.855469 L 127.101562 130.066406 C 127.171875 130.109375 127.25 130.128906 127.332031 130.128906 C 127.480469 130.128906 127.625 130.054688 127.707031 129.917969 C 127.835938 129.707031 127.769531 129.4375 127.558594 129.308594 L 123.90625 127.101562 C 123.699219 126.976562 123.425781 127.042969 123.300781 127.25 C 123.175781 127.460938 123.242188 127.730469 123.449219 127.855469 Z M 123.449219 127.855469 " fill-opacity="1" fill-rule="nonzero"/><path fill="#000000" d="M 257.179688 373.253906 C 257.054688 374.207031 257.796875 375.046875 258.757812 375.046875 L 298.757812 375.046875 C 299.585938 375.046875 300.277344 374.410156 300.339844 373.582031 C 300.386719 372.902344 300.4375 372.015625 300.460938 370.988281 L 267.574219 370.988281 L 264.832031 366.707031 C 263.875 367.171875 262.957031 367.59375 262.105469 367.964844 C 258.367188 369.585938 257.421875 371.453125 257.179688 373.253906 Z M 257.179688 373.253906 " fill-opacity="1" fill-rule="nonzero"/><path fill="#000000" d="M 282.394531 354.804688 C 279.285156 358.691406 271.144531 363.636719 264.832031 366.707031 L 267.574219 370.988281 L 300.460938 370.988281 C 300.542969 367.601562 300.34375 362.65625 298.941406 358.335938 C 294.902344 360.398438 287.726562 361.84375 282.394531 354.804688 Z M 282.394531 354.804688 " fill-opacity="1" fill-rule="nonzero"/><path fill="#000000" d="M 349.902344 308.945312 C 351.789062 294.78125 348.992188 273.960938 348.992188 273.960938 L 350.253906 209.644531 C 345.617188 209.636719 343.328125 205.808594 342.285156 203.085938 C 342.640625 203.039062 342.996094 202.988281 343.351562 202.941406 C 344.328125 205.382812 346.355469 208.589844 350.265625 208.589844 C 350.269531 208.589844 350.273438 208.59375 350.277344 208.59375 L 350.414062 201.539062 C 350.003906 201.8125 349.542969 202.015625 349.03125 202.101562 C 332.859375 204.851562 314.3125 205.066406 297.28125 202.941406 C 297.328125 202.945312 297.375 202.953125 297.421875 202.957031 C 296.398438 205.691406 294.105469 209.644531 289.394531 209.644531 C 289.347656 209.644531 289.308594 209.628906 289.269531 209.617188 L 286.933594 273.273438 L 283.875 345.050781 L 301.753906 345.050781 C 305.644531 332.128906 314.679688 300.269531 310.269531 277.378906 L 319.910156 212.023438 L 314.171875 211.660156 C 313.878906 211.640625 313.660156 211.390625 313.679688 211.101562 C 313.695312 210.8125 313.9375 210.574219 314.234375 210.609375 L 322.359375 211.121094 C 322.652344 211.140625 322.871094 211.390625 322.855469 211.679688 C 322.835938 211.957031 322.613281 212.164062 322.34375 212.171875 L 326.398438 345.046875 L 344.242188 345.046875 C 345.734375 336.152344 348.550781 319.082031 349.902344 308.945312 Z M 349.902344 308.945312 " fill-opacity="1" fill-rule="nonzero"/><path fill="#000000" d="M 365.714844 216.679688 C 365.484375 216.664062 365.257812 216.835938 365.234375 217.082031 L 364.742188 222.796875 L 361.550781 233.539062 C 361.476562 233.785156 361.289062 233.976562 361.042969 234.054688 C 360.804688 234.128906 360.566406 234.085938 360.375 233.9375 C 359.660156 233.378906 359.246094 232.453125 359.148438 231.191406 C 358.875 227.683594 359.050781 223.511719 359.054688 223.472656 C 359.0625 223.292969 358.957031 223.121094 358.789062 223.046875 C 358.734375 223.023438 357.398438 222.402344 356.835938 220.484375 C 356.769531 220.25 356.527344 220.113281 356.289062 220.183594 C 356.054688 220.25 355.921875 220.496094 355.988281 220.730469 C 356.515625 222.527344 357.636719 223.390625 358.160156 223.710938 C 358.125 224.707031 358.03125 228.222656 358.269531 231.257812 C 358.386719 232.78125 358.910156 233.914062 359.832031 234.636719 C 360.117188 234.859375 360.464844 234.972656 360.816406 234.972656 C 360.984375 234.972656 361.148438 234.949219 361.3125 234.898438 C 361.835938 234.730469 362.242188 234.316406 362.398438 233.792969 L 365.605469 223.007812 C 365.613281 222.976562 365.617188 222.949219 365.621094 222.917969 L 366.117188 217.15625 C 366.136719 216.914062 365.957031 216.699219 365.714844 216.679688 Z M 365.714844 216.679688 " fill-opacity="1" fill-rule="nonzero"/><path fill="#000000" d="M 351.976562 364.667969 C 351.976562 364.667969 351.976562 364.667969 351.980469 364.667969 C 351.886719 364.582031 351.785156 364.496094 351.691406 364.410156 C 350.894531 363.691406 350.078125 362.976562 349.269531 362.25 C 349.082031 362.082031 348.894531 361.910156 348.707031 361.738281 C 348.507812 361.558594 348.3125 361.371094 348.113281 361.1875 C 347.914062 360.996094 347.71875 360.804688 347.523438 360.609375 C 347.347656 360.433594 347.171875 360.257812 347 360.078125 C 346.800781 359.871094 346.609375 359.65625 346.417969 359.445312 C 346.257812 359.269531 346.097656 359.09375 345.949219 358.910156 C 345.753906 358.679688 345.570312 358.4375 345.386719 358.195312 C 345.253906 358.023438 345.117188 357.851562 344.988281 357.671875 C 344.796875 357.394531 344.617188 357.101562 344.441406 356.8125 C 344.34375 356.65625 344.238281 356.503906 344.148438 356.339844 C 343.894531 355.886719 343.664062 355.414062 343.460938 354.925781 C 343.457031 354.917969 343.453125 354.910156 343.449219 354.902344 C 343.367188 354.703125 343.296875 354.496094 343.222656 354.292969 C 342.238281 353.964844 341.253906 353.835938 340.273438 353.886719 C 339.777344 353.910156 339.28125 353.984375 338.789062 354.097656 C 336.335938 354.671875 333.921875 356.324219 331.617188 358.789062 C 330.214844 360.285156 328.914062 360.675781 327.808594 360.554688 C 327.464844 360.515625 327.140625 360.429688 326.835938 360.3125 C 326.816406 360.71875 326.800781 361.136719 326.78125 361.5625 C 326.777344 361.71875 326.769531 361.882812 326.761719 362.046875 C 326.753906 362.285156 326.742188 362.527344 326.734375 362.773438 C 326.726562 363.035156 326.714844 363.304688 326.707031 363.578125 C 326.699219 363.730469 326.695312 363.886719 326.691406 364.046875 C 326.679688 364.367188 326.667969 364.699219 326.65625 365.03125 C 326.65625 365.125 326.652344 365.222656 326.648438 365.320312 C 326.582031 367.683594 326.53125 370.34375 326.515625 373.449219 C 326.511719 374.328125 327.222656 375.046875 328.101562 375.046875 L 355.957031 375.046875 C 356.925781 375.046875 357.683594 374.179688 357.527344 373.222656 C 356.9375 369.617188 354.617188 367.078125 351.976562 364.667969 Z M 351.976562 364.667969 " fill-opacity="1" fill-rule="nonzero"/><path fill="#000000" d="M 47.132812 129.683594 C 46.929688 129.816406 46.871094 130.09375 47.003906 130.296875 L 56.304688 144.585938 C 56.390625 144.714844 56.53125 144.789062 56.675781 144.789062 C 56.757812 144.789062 56.839844 144.765625 56.914062 144.714844 C 57.121094 144.582031 57.179688 144.308594 57.042969 144.105469 L 47.742188 129.816406 C 47.609375 129.609375 47.335938 129.550781 47.132812 129.683594 Z M 47.132812 129.683594 " fill-opacity="1" fill-rule="nonzero"/><path fill="#000000" d="M 170.699219 190.539062 L 148.847656 190.539062 C 149.71875 188.914062 150.214844 187.058594 150.214844 185.085938 C 150.214844 178.6875 145.03125 173.503906 138.640625 173.503906 C 132.246094 173.503906 127.066406 178.6875 127.066406 185.085938 C 127.066406 187.058594 127.5625 188.914062 128.429688 190.539062 L 107.46875 190.539062 C 104.953125 190.539062 102.914062 192.582031 102.914062 195.097656 L 102.914062 258.363281 C 102.914062 260.882812 104.953125 262.921875 107.46875 262.921875 L 170.699219 262.921875 C 173.214844 262.921875 175.253906 260.882812 175.253906 258.363281 L 175.253906 195.097656 C 175.253906 192.582031 173.214844 190.539062 170.699219 190.539062 Z M 170.699219 190.539062 " fill-opacity="1" fill-rule="nonzero"/><path fill="#000000" d="M 105.757812 103.375 C 104.042969 84.878906 107.976562 81.90625 108.742188 69.21875 C 109.507812 56.53125 96.425781 45.34375 79.121094 49.085938 C 64.984375 51.660156 56.800781 51.222656 53.976562 67.375 C 51.148438 83.53125 54.617188 85.589844 40.6875 98.246094 C 26.828125 110.839844 13.023438 141.507812 31.925781 159.160156 C 32.335938 158.761719 32.71875 158.402344 33.058594 158.085938 C 31.890625 157.066406 31.320312 155.464844 31.6875 153.875 L 39.386719 120.472656 C 41.433594 110.683594 50.058594 103.671875 60.054688 103.671875 C 62.558594 103.671875 64.976562 104.101562 67.230469 104.878906 C 67.191406 104.863281 67.152344 104.847656 67.113281 104.832031 L 74.945312 85.621094 C 74.324219 86.207031 73.253906 86.355469 72.34375 85.867188 C 69.683594 84.429688 68.28125 82.078125 68.835938 79.871094 C 69.542969 77.03125 71.117188 75.148438 73.679688 75.777344 C 75.933594 76.332031 76.210938 79.097656 76.011719 81.433594 C 82.574219 79.296875 78.453125 69.214844 81.476562 64.203125 C 86.527344 67.25 94.109375 69.769531 98.902344 70.453125 C 99.417969 70.523438 99.929688 70.574219 100.441406 70.617188 C 101.175781 72.628906 101.464844 74.839844 101.167969 77.113281 L 99.324219 91.386719 C 98.714844 96.039062 95.238281 100.027344 90.390625 101.042969 C 88.976562 101.335938 87.574219 101.34375 86.230469 101.121094 L 80.75 114.972656 L 97.550781 128.039062 L 101.988281 125.324219 C 102.847656 118.496094 106.554688 112.015625 105.757812 103.375 Z M 105.757812 103.375 " fill-opacity="1" fill-rule="nonzero"/><path fill="#000000" d="M 262.09375 119.957031 L 262.09375 57.089844 C 262.09375 54.589844 260.066406 52.5625 257.566406 52.5625 L 238.023438 52.5625 C 238.875 54.164062 239.359375 55.988281 239.359375 57.929688 C 239.359375 64.253906 234.238281 69.378906 227.914062 69.378906 C 221.59375 69.378906 216.46875 64.253906 216.46875 57.929688 C 216.46875 55.988281 216.957031 54.164062 217.808594 52.5625 L 194.734375 52.5625 C 192.234375 52.5625 190.210938 54.589844 190.210938 57.089844 L 190.210938 77.960938 C 191.855469 77.308594 193.683594 77.015625 195.605469 77.226562 C 201.160156 77.828125 205.535156 82.527344 205.730469 88.113281 C 205.960938 94.578125 200.789062 99.890625 194.378906 99.890625 C 192.90625 99.890625 191.5 99.597656 190.210938 99.085938 L 190.210938 119.957031 C 190.210938 122.457031 192.234375 124.484375 194.734375 124.484375 L 257.566406 124.484375 C 260.066406 124.484375 262.09375 122.457031 262.09375 119.957031 Z M 262.09375 119.957031 " fill-opacity="1" fill-rule="nonzero"/><path fill="#000000" d="M 239.574219 132.464844 L 233.914062 132.464844 C 233.667969 132.464844 233.472656 132.664062 233.472656 132.910156 C 233.472656 133.152344 233.667969 133.351562 233.914062 133.351562 L 239.574219 133.351562 C 239.820312 133.351562 240.019531 133.152344 240.019531 132.910156 C 240.019531 132.664062 239.820312 132.464844 239.574219 132.464844 Z M 239.574219 132.464844 " fill-opacity="1" fill-rule="nonzero"/><path fill="#e0e0e0" d="M 179.0625 120.332031 C 177.113281 120.332031 175.277344 120.824219 173.671875 121.683594 L 173.671875 100.945312 C 173.671875 98.457031 171.65625 96.4375 169.167969 96.4375 L 128.863281 96.4375 C 128.222656 97.5625 126.796875 97.453125 126.265625 96.4375 L 125.53125 96.4375 C 124.886719 97.960938 123.003906 97.839844 122.46875 96.4375 L 122.097656 96.4375 C 121.613281 98.148438 119.421875 98.164062 118.871094 96.4375 L 117.789062 96.4375 C 117.367188 97.863281 115.382812 98.125 114.585938 96.4375 L 106.644531 96.4375 C 104.15625 96.4375 102.140625 98.457031 102.140625 100.945312 L 102.140625 124.929688 L 104.476562 123.371094 C 104.589844 123.300781 104.699219 123.238281 104.8125 123.171875 C 105.550781 122.574219 106.417969 122.125 107.371094 121.882812 C 112.472656 120.597656 118.457031 120.34375 121.132812 120.296875 L 121.125 120.285156 C 121.460938 120.285156 121.785156 120.289062 122.101562 120.289062 C 122.386719 120.289062 122.554688 120.289062 122.554688 120.289062 C 131.457031 120.328125 131.367188 120.277344 134.207031 120.277344 C 136.859375 120.277344 135.457031 123.054688 133.242188 123.472656 C 131.324219 123.835938 127.085938 124.34375 125.058594 124.578125 L 126.890625 126.230469 C 127.75 127.007812 128.027344 128.238281 127.585938 129.308594 L 125.089844 135.328125 C 124.875 135.859375 124.386719 136.226562 123.820312 136.296875 L 120.765625 136.65625 C 120.3125 136.710938 119.855469 136.582031 119.496094 136.296875 L 117.71875 134.894531 C 115.21875 134.933594 112.695312 134.71875 110.730469 134.46875 L 102.144531 141.511719 L 102.144531 163.5 C 102.144531 165.988281 104.160156 168.007812 106.648438 168.007812 L 126.554688 168.007812 C 126.019531 166.675781 125.71875 165.226562 125.71875 163.703125 C 125.71875 157.308594 130.898438 152.121094 137.292969 152.121094 C 143.683594 152.121094 148.867188 157.308594 148.867188 163.703125 C 148.867188 165.226562 148.566406 166.675781 148.03125 168.007812 L 169.171875 168.007812 C 171.660156 168.007812 173.675781 165.992188 173.675781 163.5 L 173.675781 141.882812 C 175.28125 142.742188 177.117188 143.234375 179.066406 143.234375 C 185.386719 143.234375 190.511719 138.105469 190.511719 131.78125 C 190.507812 125.460938 185.382812 120.332031 179.0625 120.332031 Z M 179.0625 120.332031 " fill-opacity="1" fill-rule="nonzero"/><path fill="#ffd427" d="M 99.667969 75.058594 C 97.722656 75.058594 96.039062 76.445312 95.203125 78.46875 C 94.277344 77.914062 93.371094 78.203125 92.804688 78.578125 C 91.96875 76.5625 90.289062 75.179688 88.347656 75.179688 C 85.570312 75.179688 83.320312 78 83.320312 81.480469 C 83.320312 84.957031 85.570312 87.777344 88.347656 87.777344 C 91.121094 87.777344 93.375 84.957031 93.375 81.480469 C 93.375 80.769531 93.277344 80.09375 93.105469 79.457031 C 93.230469 79.34375 94.023438 78.691406 94.90625 79.351562 C 94.738281 79.980469 94.640625 80.652344 94.640625 81.355469 C 94.640625 84.832031 96.890625 87.652344 99.667969 87.652344 C 102.445312 87.652344 104.695312 84.832031 104.695312 81.355469 C 104.695312 77.878906 102.445312 75.058594 99.667969 75.058594 Z M 88.347656 86.890625 C 86.0625 86.890625 84.203125 84.464844 84.203125 81.476562 C 84.203125 78.492188 86.0625 76.0625 88.347656 76.0625 C 90.632812 76.0625 92.488281 78.492188 92.488281 81.476562 C 92.488281 84.464844 90.628906 86.890625 88.347656 86.890625 Z M 99.667969 86.769531 C 97.382812 86.769531 95.523438 84.339844 95.523438 81.355469 C 95.523438 78.371094 97.382812 75.941406 99.667969 75.941406 C 101.953125 75.941406 103.8125 78.371094 103.8125 81.355469 C 103.8125 84.339844 101.953125 86.769531 99.667969 86.769531 Z M 99.667969 86.769531 " fill-opacity="1" fill-rule="nonzero"/></svg>