<svg xmlns="http://www.w3.org/2000/svg" xmlns:xlink="http://www.w3.org/1999/xlink" width="500" zoomAndPan="magnify" viewBox="0 0 375 374.999991" height="500" preserveAspectRatio="xMidYMid meet" version="1.0"><defs><g/></defs><g fill="#ffffff" fill-opacity="1"><g transform="translate(0.0000045, 227.731315)"><g><path d="M 47.71875 -27.03125 L 16.609375 -27.03125 L 5.921875 0 L 0 0 L 30.796875 -76.90625 L 34.203125 -76.90625 L 64.375 0 L 58.359375 0 Z M 18.546875 -31.84375 L 45.9375 -31.84375 L 35.515625 -59.453125 C 34.640625 -61.617188 33.59375 -64.625 32.375 -68.46875 C 31.425781 -65.113281 30.394531 -62.070312 29.28125 -59.34375 Z M 18.546875 -31.84375 "/></g></g></g><g fill="#ffffff" fill-opacity="1"><g transform="translate(64.374331, 227.731315)"><g><path d="M 67.15625 -76.578125 L 67.15625 -27.03125 C 67.15625 -18.226562 64.601562 -11.347656 59.5 -6.390625 C 54.40625 -1.429688 47.300781 1.046875 38.1875 1.046875 C 29.3125 1.046875 22.382812 -1.4375 17.40625 -6.40625 C 12.4375 -11.382812 9.953125 -18.328125 9.953125 -27.234375 L 9.953125 -76.578125 L 15.34375 -76.578125 L 15.34375 -27.03125 C 15.34375 -19.664062 17.382812 -13.929688 21.46875 -9.828125 C 25.5625 -5.722656 31.34375 -3.671875 38.8125 -3.671875 C 46.113281 -3.671875 51.769531 -5.6875 55.78125 -9.71875 C 59.800781 -13.75 61.8125 -19.34375 61.8125 -26.5 L 61.8125 -76.578125 Z M 67.15625 -76.578125 "/></g></g></g><g fill="#ffffff" fill-opacity="1"><g transform="translate(141.529239, 227.731315)"><g><path d="M 16.1875 -33.375 L 16.1875 0 L 10.84375 0 L 10.84375 -76.578125 L 29.078125 -76.578125 C 38.578125 -76.578125 45.59375 -74.820312 50.125 -71.3125 C 54.664062 -67.8125 56.9375 -62.53125 56.9375 -55.46875 C 56.9375 -50.34375 55.582031 -46.015625 52.875 -42.484375 C 50.175781 -38.953125 46.066406 -36.421875 40.546875 -34.890625 L 61.34375 0 L 54.953125 0 L 35.203125 -33.375 Z M 16.1875 -37.984375 L 30.796875 -37.984375 C 37.265625 -37.984375 42.273438 -39.421875 45.828125 -42.296875 C 49.390625 -45.179688 51.171875 -49.4375 51.171875 -55.0625 C 51.171875 -60.882812 49.425781 -65.125 45.9375 -67.78125 C 42.445312 -70.4375 36.753906 -71.765625 28.859375 -71.765625 L 16.1875 -71.765625 Z M 16.1875 -37.984375 "/></g></g></g><g fill="#ffffff" fill-opacity="1"><g transform="translate(205.275013, 227.731315)"><g><path d="M 67.15625 -76.578125 L 67.15625 -27.03125 C 67.15625 -18.226562 64.601562 -11.347656 59.5 -6.390625 C 54.40625 -1.429688 47.300781 1.046875 38.1875 1.046875 C 29.3125 1.046875 22.382812 -1.4375 17.40625 -6.40625 C 12.4375 -11.382812 9.953125 -18.328125 9.953125 -27.234375 L 9.953125 -76.578125 L 15.34375 -76.578125 L 15.34375 -27.03125 C 15.34375 -19.664062 17.382812 -13.929688 21.46875 -9.828125 C 25.5625 -5.722656 31.34375 -3.671875 38.8125 -3.671875 C 46.113281 -3.671875 51.769531 -5.6875 55.78125 -9.71875 C 59.800781 -13.75 61.8125 -19.34375 61.8125 -26.5 L 61.8125 -76.578125 Z M 67.15625 -76.578125 "/></g></g></g><g fill="#ffffff" fill-opacity="1"><g transform="translate(282.429921, 227.731315)"><g><path d="M 44.53125 0 L 15.984375 -70.71875 L 15.5625 -70.71875 C 15.84375 -66.382812 15.984375 -61.945312 15.984375 -57.40625 L 15.984375 0 L 10.84375 0 L 10.84375 -76.578125 L 19.125 -76.578125 L 46.25 -9.21875 L 46.5625 -9.21875 L 73.703125 -76.578125 L 81.765625 -76.578125 L 81.765625 0 L 76.375 0 L 76.375 -58.046875 C 76.375 -62.097656 76.582031 -66.285156 77 -70.609375 L 76.578125 -70.609375 L 47.9375 0 Z M 44.53125 0 "/></g></g></g></svg>