<svg xmlns="http://www.w3.org/2000/svg" xmlns:xlink="http://www.w3.org/1999/xlink" width="500" zoomAndPan="magnify"
    viewBox="0 0 375 374.999991" height="500" preserveAspectRatio="xMidYMid meet" version="1.0">
    <defs>
        <g />
    </defs>
    <g fill="#ffffff" fill-opacity="1">
        <g transform="translate(1.450038, 217.688648)">
            <g>
                <path
                    d="M 33.1875 0 L 11.90625 -52.71875 L 11.59375 -52.71875 C 11.800781 -49.488281 11.90625 -46.179688 11.90625 -42.796875 L 11.90625 0 L 8.078125 0 L 8.078125 -57.09375 L 14.25 -57.09375 L 34.484375 -6.875 L 34.71875 -6.875 L 54.9375 -57.09375 L 60.953125 -57.09375 L 60.953125 0 L 56.9375 0 L 56.9375 -43.265625 C 56.9375 -46.285156 57.09375 -49.410156 57.40625 -52.640625 L 57.09375 -52.640625 L 35.734375 0 Z M 33.1875 0 " />
            </g>
        </g>
    </g>
    <g fill="#ffffff" fill-opacity="1">
        <g transform="translate(70.440253, 217.688648)">
            <g>
                <path
                    d="M 35.578125 -20.140625 L 12.375 -20.140625 L 4.40625 0 L 0 0 L 22.953125 -57.328125 L 25.5 -57.328125 L 47.984375 0 L 43.5 0 Z M 13.828125 -23.734375 L 34.25 -23.734375 L 26.46875 -44.3125 C 25.820312 -45.925781 25.039062 -48.164062 24.125 -51.03125 C 23.425781 -48.53125 22.660156 -46.265625 21.828125 -44.234375 Z M 13.828125 -23.734375 " />
            </g>
        </g>
    </g>
    <g fill="#ffffff" fill-opacity="1">
        <g transform="translate(118.424962, 217.688648)">
            <g>
                <path
                    d="M 49.59375 0 L 45.5625 0 L 11.75 -50.6875 L 11.4375 -50.6875 C 11.75 -44.644531 11.90625 -40.085938 11.90625 -37.015625 L 11.90625 0 L 8.078125 0 L 8.078125 -57.09375 L 12.0625 -57.09375 L 45.84375 -6.484375 L 46.078125 -6.484375 C 45.835938 -11.171875 45.71875 -15.625 45.71875 -19.84375 L 45.71875 -57.09375 L 49.59375 -57.09375 Z M 49.59375 0 " />
            </g>
        </g>
    </g>
    <g fill="#ffffff" fill-opacity="1">
        <g transform="translate(176.092506, 217.688648)">
            <g>
                <path
                    d="M 35.578125 -20.140625 L 12.375 -20.140625 L 4.40625 0 L 0 0 L 22.953125 -57.328125 L 25.5 -57.328125 L 47.984375 0 L 43.5 0 Z M 13.828125 -23.734375 L 34.25 -23.734375 L 26.46875 -44.3125 C 25.820312 -45.925781 25.039062 -48.164062 24.125 -51.03125 C 23.425781 -48.53125 22.660156 -46.265625 21.828125 -44.234375 Z M 13.828125 -23.734375 " />
            </g>
        </g>
    </g>
    <g fill="#ffffff" fill-opacity="1">
        <g transform="translate(224.077214, 217.688648)">
            <g>
                <path
                    d="M 30.53125 -28.78125 L 51.578125 -28.78125 L 51.578125 -2.734375 C 46.054688 -0.390625 39.847656 0.78125 32.953125 0.78125 C 23.953125 0.78125 17.046875 -1.757812 12.234375 -6.84375 C 7.429688 -11.9375 5.03125 -19.144531 5.03125 -28.46875 C 5.03125 -34.269531 6.222656 -39.414062 8.609375 -43.90625 C 10.992188 -48.394531 14.40625 -51.863281 18.84375 -54.3125 C 23.28125 -56.757812 28.375 -57.984375 34.125 -57.984375 C 40.34375 -57.984375 45.925781 -56.835938 50.875 -54.546875 L 49.28125 -50.953125 C 44.332031 -53.242188 39.203125 -54.390625 33.890625 -54.390625 C 26.367188 -54.390625 20.398438 -52.066406 15.984375 -47.421875 C 11.578125 -42.773438 9.375 -36.507812 9.375 -28.625 C 9.375 -20.03125 11.46875 -13.566406 15.65625 -9.234375 C 19.84375 -4.898438 26 -2.734375 34.125 -2.734375 C 39.382812 -2.734375 43.847656 -3.472656 47.515625 -4.953125 L 47.515625 -25.03125 L 30.53125 -25.03125 Z M 30.53125 -28.78125 " />
            </g>
        </g>
    </g>
    <g fill="#ffffff" fill-opacity="1">
        <g transform="translate(281.900934, 217.688648)">
            <g>
                <path
                    d="M 39.28125 0 L 8.078125 0 L 8.078125 -57.09375 L 39.28125 -57.09375 L 39.28125 -53.421875 L 12.0625 -53.421875 L 12.0625 -31.828125 L 37.765625 -31.828125 L 37.765625 -28.15625 L 12.0625 -28.15625 L 12.0625 -3.671875 L 39.28125 -3.671875 Z M 39.28125 0 " />
            </g>
        </g>
    </g>
    <g fill="#ffffff" fill-opacity="1">
        <g transform="translate(326.020324, 217.688648)">
            <g>
                <path
                    d="M 12.0625 -24.875 L 12.0625 0 L 8.078125 0 L 8.078125 -57.09375 L 21.671875 -57.09375 C 28.753906 -57.09375 33.984375 -55.78125 37.359375 -53.15625 C 40.742188 -50.539062 42.4375 -46.601562 42.4375 -41.34375 C 42.4375 -37.519531 41.425781 -34.289062 39.40625 -31.65625 C 37.394531 -29.03125 34.332031 -27.144531 30.21875 -26 L 45.71875 0 L 40.953125 0 L 26.234375 -24.875 Z M 12.0625 -28.3125 L 22.953125 -28.3125 C 27.773438 -28.3125 31.515625 -29.382812 34.171875 -31.53125 C 36.828125 -33.675781 38.15625 -36.84375 38.15625 -41.03125 C 38.15625 -45.382812 36.851562 -48.550781 34.25 -50.53125 C 31.644531 -52.507812 27.398438 -53.5 21.515625 -53.5 L 12.0625 -53.5 Z M 12.0625 -28.3125 " />
            </g>
        </g>
    </g>
</svg>