<svg xmlns="http://www.w3.org/2000/svg" xmlns:xlink="http://www.w3.org/1999/xlink" width="500" zoomAndPan="magnify" viewBox="0 0 375 374.999991" height="500" preserveAspectRatio="xMidYMid meet" version="1.0"><defs><g/><clipPath id="002e1395d2"><path d="M 75.074219 80.492188 L 299.589844 80.492188 L 299.589844 200.722656 L 75.074219 200.722656 Z M 75.074219 80.492188 " clip-rule="nonzero"/></clipPath></defs><g clip-path="url(#002e1395d2)"><path fill="#ffd427" d="M 135.03125 80.492188 C 102.234375 80.492188 75.261719 107.511719 75.261719 140.609375 C 75.261719 173.675781 102.15625 200.722656 135.03125 200.722656 C 154.800781 200.722656 168.058594 191.292969 178.195312 178.429688 C 173.488281 171.140625 169.523438 163.582031 165.953125 156.503906 C 157.421875 170.214844 148.691406 178.179688 135.03125 178.179688 C 114.265625 178.179688 97.675781 161.492188 97.675781 140.609375 C 97.675781 119.75 114.394531 103.035156 135.03125 103.035156 C 145.691406 103.035156 151.976562 106.949219 158.613281 114.496094 C 165.253906 122.046875 171.15625 133.457031 177.261719 145.671875 C 183.371094 157.882812 189.6875 170.90625 199.179688 181.671875 C 208.671875 192.441406 222.421875 200.722656 239.632812 200.722656 C 272.226562 200.722656 299.402344 173.777344 299.402344 140.609375 C 299.402344 107.539062 272.507812 80.492188 239.632812 80.492188 C 219.832031 80.492188 206.582031 90 196.453125 102.945312 C 201.152344 110.257812 205.109375 117.832031 208.679688 124.917969 C 217.242188 111.070312 225.972656 103.035156 239.632812 103.035156 C 260.398438 103.035156 276.988281 119.722656 276.988281 140.609375 C 276.988281 161.390625 259.945312 178.179688 239.632812 178.179688 C 228.921875 178.179688 222.601562 174.253906 215.949219 166.703125 C 209.292969 159.152344 203.390625 147.753906 197.285156 135.542969 C 191.179688 123.335938 184.878906 110.324219 175.410156 99.558594 C 165.941406 88.789062 152.207031 80.492188 135.03125 80.492188 Z M 135.03125 80.492188 " fill-opacity="1" fill-rule="nonzero"/></g><g fill="#ffffff" fill-opacity="1"><g transform="translate(2.634983, 277.721638)"><g><path d="M 32.984375 0 L 11.828125 -52.390625 L 11.53125 -52.390625 C 11.726562 -49.179688 11.828125 -45.894531 11.828125 -42.53125 L 11.828125 0 L 8.03125 0 L 8.03125 -56.734375 L 14.15625 -56.734375 L 34.265625 -6.828125 L 34.5 -6.828125 L 54.59375 -56.734375 L 60.578125 -56.734375 L 60.578125 0 L 56.578125 0 L 56.578125 -43 C 56.578125 -46 56.734375 -49.101562 57.046875 -52.3125 L 56.734375 -52.3125 L 35.5 0 Z M 32.984375 0 "/></g></g></g><g fill="#ffffff" fill-opacity="1"><g transform="translate(71.18681, 277.721638)"><g><path d="M 35.34375 -20.015625 L 12.296875 -20.015625 L 4.390625 0 L 0 0 L 22.8125 -56.96875 L 25.34375 -56.96875 L 47.6875 0 L 43.234375 0 Z M 13.734375 -23.59375 L 34.03125 -23.59375 L 26.3125 -44.046875 C 25.664062 -45.648438 24.890625 -47.875 23.984375 -50.71875 C 23.285156 -48.226562 22.519531 -45.976562 21.6875 -43.96875 Z M 13.734375 -23.59375 "/></g></g></g><g fill="#ffffff" fill-opacity="1"><g transform="translate(118.866606, 277.721638)"><g><path d="M 49.28125 0 L 45.28125 0 L 11.6875 -50.359375 L 11.375 -50.359375 C 11.675781 -44.359375 11.828125 -39.832031 11.828125 -36.78125 L 11.828125 0 L 8.03125 0 L 8.03125 -56.734375 L 11.984375 -56.734375 L 45.5625 -6.4375 L 45.78125 -6.4375 C 45.550781 -11.09375 45.4375 -15.519531 45.4375 -19.71875 L 45.4375 -56.734375 L 49.28125 -56.734375 Z M 49.28125 0 "/></g></g></g><g fill="#ffffff" fill-opacity="1"><g transform="translate(176.16771, 277.721638)"><g><path d="M 35.34375 -20.015625 L 12.296875 -20.015625 L 4.390625 0 L 0 0 L 22.8125 -56.96875 L 25.34375 -56.96875 L 47.6875 0 L 43.234375 0 Z M 13.734375 -23.59375 L 34.03125 -23.59375 L 26.3125 -44.046875 C 25.664062 -45.648438 24.890625 -47.875 23.984375 -50.71875 C 23.285156 -48.226562 22.519531 -45.976562 21.6875 -43.96875 Z M 13.734375 -23.59375 "/></g></g></g><g fill="#ffffff" fill-opacity="1"><g transform="translate(223.847507, 277.721638)"><g><path d="M 30.34375 -28.59375 L 51.265625 -28.59375 L 51.265625 -2.71875 C 45.773438 -0.382812 39.601562 0.78125 32.75 0.78125 C 23.800781 0.78125 16.9375 -1.742188 12.15625 -6.796875 C 7.382812 -11.859375 5 -19.019531 5 -28.28125 C 5 -34.050781 6.179688 -39.164062 8.546875 -43.625 C 10.921875 -48.09375 14.3125 -51.539062 18.71875 -53.96875 C 23.132812 -56.40625 28.195312 -57.625 33.90625 -57.625 C 40.09375 -57.625 45.644531 -56.484375 50.5625 -54.203125 L 48.96875 -50.640625 C 44.050781 -52.910156 38.957031 -54.046875 33.6875 -54.046875 C 26.207031 -54.046875 20.273438 -51.738281 15.890625 -47.125 C 11.503906 -42.507812 9.3125 -36.28125 9.3125 -28.4375 C 9.3125 -19.90625 11.394531 -13.484375 15.5625 -9.171875 C 19.726562 -4.867188 25.84375 -2.71875 33.90625 -2.71875 C 39.132812 -2.71875 43.570312 -3.453125 47.21875 -4.921875 L 47.21875 -24.875 L 30.34375 -24.875 Z M 30.34375 -28.59375 "/></g></g></g><g fill="#ffffff" fill-opacity="1"><g transform="translate(281.303794, 277.721638)"><g><path d="M 39.03125 0 L 8.03125 0 L 8.03125 -56.734375 L 39.03125 -56.734375 L 39.03125 -53.078125 L 11.984375 -53.078125 L 11.984375 -31.625 L 37.515625 -31.625 L 37.515625 -27.984375 L 11.984375 -27.984375 L 11.984375 -3.640625 L 39.03125 -3.640625 Z M 39.03125 0 "/></g></g></g><g fill="#ffffff" fill-opacity="1"><g transform="translate(325.142817, 277.721638)"><g><path d="M 11.984375 -24.71875 L 11.984375 0 L 8.03125 0 L 8.03125 -56.734375 L 21.53125 -56.734375 C 28.570312 -56.734375 33.769531 -55.429688 37.125 -52.828125 C 40.488281 -50.234375 42.171875 -46.320312 42.171875 -41.09375 C 42.171875 -37.289062 41.171875 -34.082031 39.171875 -31.46875 C 37.171875 -28.851562 34.125 -26.976562 30.03125 -25.84375 L 45.4375 0 L 40.703125 0 L 26.078125 -24.71875 Z M 11.984375 -28.125 L 22.8125 -28.125 C 27.601562 -28.125 31.316406 -29.191406 33.953125 -31.328125 C 36.585938 -33.460938 37.90625 -36.613281 37.90625 -40.78125 C 37.90625 -45.101562 36.613281 -48.242188 34.03125 -50.203125 C 31.445312 -52.171875 27.226562 -53.15625 21.375 -53.15625 L 11.984375 -53.15625 Z M 11.984375 -28.125 "/></g></g></g></svg>