<svg xmlns="http://www.w3.org/2000/svg" xmlns:xlink="http://www.w3.org/1999/xlink" width="500" zoomAndPan="magnify" viewBox="0 0 375 374.999991" height="500" preserveAspectRatio="xMidYMid meet" version="1.0"><defs><filter x="0%" y="0%" width="100%" height="100%" id="95e75624eb"><feColorMatrix values="0 0 0 0 1 0 0 0 0 1 0 0 0 0 1 0 0 0 1 0" color-interpolation-filters="sRGB"/></filter><g/><clipPath id="06741ffb21"><path d="M 22.316406 75.578125 L 375 75.578125 L 375 76.355469 L 22.316406 76.355469 Z M 22.316406 75.578125 " clip-rule="nonzero"/></clipPath><mask id="1d38db6778"><g filter="url(#95e75624eb)"><rect x="-37.5" width="450" fill="#000000" y="-37.499999" height="449.999989" fill-opacity="0.25"/></g></mask><clipPath id="9df8cba577"><path d="M 0.316406 0.578125 L 353 0.578125 L 353 1.355469 L 0.316406 1.355469 Z M 0.316406 0.578125 " clip-rule="nonzero"/></clipPath><clipPath id="ac60e01e07"><rect x="0" width="353" y="0" height="2"/></clipPath><clipPath id="3f39d47e3e"><path d="M 22.316406 117.707031 L 375 117.707031 L 375 118.488281 L 22.316406 118.488281 Z M 22.316406 117.707031 " clip-rule="nonzero"/></clipPath><mask id="a828b42b78"><g filter="url(#95e75624eb)"><rect x="-37.5" width="450" fill="#000000" y="-37.499999" height="449.999989" fill-opacity="0.25"/></g></mask><clipPath id="dde8291d64"><path d="M 0.316406 0.707031 L 353 0.707031 L 353 1.488281 L 0.316406 1.488281 Z M 0.316406 0.707031 " clip-rule="nonzero"/></clipPath><clipPath id="1a3c517a81"><rect x="0" width="353" y="0" height="2"/></clipPath><clipPath id="d2da16bb45"><path d="M 22.316406 159.835938 L 375 159.835938 L 375 160.617188 L 22.316406 160.617188 Z M 22.316406 159.835938 " clip-rule="nonzero"/></clipPath><mask id="b669790bd7"><g filter="url(#95e75624eb)"><rect x="-37.5" width="450" fill="#000000" y="-37.499999" height="449.999989" fill-opacity="0.25"/></g></mask><clipPath id="cdf1399026"><path d="M 0.316406 0.835938 L 353 0.835938 L 353 1.617188 L 0.316406 1.617188 Z M 0.316406 0.835938 " clip-rule="nonzero"/></clipPath><clipPath id="92e199d6c8"><rect x="0" width="353" y="0" height="2"/></clipPath><clipPath id="5ac9b3e213"><path d="M 22.316406 201.964844 L 375 201.964844 L 375 202.746094 L 22.316406 202.746094 Z M 22.316406 201.964844 " clip-rule="nonzero"/></clipPath><mask id="16ae77434a"><g filter="url(#95e75624eb)"><rect x="-37.5" width="450" fill="#000000" y="-37.499999" height="449.999989" fill-opacity="0.25"/></g></mask><clipPath id="8660265a11"><path d="M 0.316406 0.964844 L 353 0.964844 L 353 1.746094 L 0.316406 1.746094 Z M 0.316406 0.964844 " clip-rule="nonzero"/></clipPath><clipPath id="02932f3ce4"><rect x="0" width="353" y="0" height="2"/></clipPath><clipPath id="cf916b9b29"><path d="M 22.316406 244.09375 L 375 244.09375 L 375 244.875 L 22.316406 244.875 Z M 22.316406 244.09375 " clip-rule="nonzero"/></clipPath><mask id="779b8fc5a9"><g filter="url(#95e75624eb)"><rect x="-37.5" width="450" fill="#000000" y="-37.499999" height="449.999989" fill-opacity="0.25"/></g></mask><clipPath id="8ba45ea2c3"><path d="M 0.316406 0.09375 L 353 0.09375 L 353 0.875 L 0.316406 0.875 Z M 0.316406 0.09375 " clip-rule="nonzero"/></clipPath><clipPath id="a007d1d0fa"><rect x="0" width="353" y="0" height="1"/></clipPath><clipPath id="f8a3f8637a"><path d="M 22.316406 286.226562 L 375 286.226562 L 375 287.003906 L 22.316406 287.003906 Z M 22.316406 286.226562 " clip-rule="nonzero"/></clipPath><mask id="8c47c09817"><g filter="url(#95e75624eb)"><rect x="-37.5" width="450" fill="#000000" y="-37.499999" height="449.999989" fill-opacity="0.6"/></g></mask><clipPath id="282fd40ade"><path d="M 0.316406 0.226562 L 353 0.226562 L 353 1.003906 L 0.316406 1.003906 Z M 0.316406 0.226562 " clip-rule="nonzero"/></clipPath><clipPath id="2492231c69"><rect x="0" width="353" y="0" height="2"/></clipPath><clipPath id="1a5cf009b6"><path d="M 55.050781 234 L 130 234 L 130 289 L 55.050781 289 Z M 55.050781 234 " clip-rule="nonzero"/></clipPath><clipPath id="db38dc7536"><path d="M 57.582031 286.617188 Z M 56.5625 285.1875 C 55.773438 285.753906 55.59375 286.851562 56.15625 287.636719 C 56.722656 288.425781 57.816406 288.605469 58.605469 288.042969 L 129.140625 237.484375 C 129.929688 236.921875 130.109375 235.824219 129.546875 235.039062 C 128.980469 234.25 127.886719 234.070312 127.097656 234.632812 Z M 56.5625 285.1875 " clip-rule="nonzero"/></clipPath><clipPath id="32620b6181"><path d="M 126 124.050781 L 201 124.050781 L 201 238 L 126 238 Z M 126 124.050781 " clip-rule="nonzero"/></clipPath><clipPath id="bd47caf9fb"><path d="M 128.121094 236.058594 Z M 126.644531 235.109375 C 126.121094 235.925781 126.355469 237.011719 127.171875 237.535156 C 127.984375 238.058594 129.070312 237.824219 129.59375 237.011719 L 200.132812 127.472656 C 200.65625 126.65625 200.421875 125.570312 199.609375 125.046875 C 198.792969 124.523438 197.707031 124.757812 197.183594 125.574219 Z M 126.644531 235.109375 " clip-rule="nonzero"/></clipPath><clipPath id="cf711f55b8"><path d="M 196 124.050781 L 271 124.050781 L 271 162 L 196 162 Z M 196 124.050781 " clip-rule="nonzero"/></clipPath><clipPath id="ad63452756"><path d="M 198.65625 126.523438 Z M 199.414062 124.9375 C 198.539062 124.519531 197.492188 124.890625 197.074219 125.765625 C 196.65625 126.640625 197.027344 127.6875 197.902344 128.105469 L 268.4375 161.808594 C 269.3125 162.226562 270.359375 161.859375 270.777344 160.984375 C 271.195312 160.109375 270.824219 159.0625 269.949219 158.644531 Z M 199.414062 124.9375 " clip-rule="nonzero"/></clipPath><clipPath id="44e0d08d3e"><path d="M 267 150 L 342 150 L 342 162 L 267 162 Z M 267 150 " clip-rule="nonzero"/></clipPath><clipPath id="56bb175e8f"><path d="M 269.195312 160.226562 Z M 268.984375 158.484375 C 268.023438 158.597656 267.335938 159.472656 267.453125 160.433594 C 267.566406 161.398438 268.441406 162.082031 269.402344 161.96875 L 339.941406 153.542969 C 340.902344 153.429688 341.589844 152.554688 341.472656 151.59375 C 341.359375 150.628906 340.484375 149.941406 339.523438 150.058594 Z M 339.730469 151.800781 Z M 339.730469 151.800781 " clip-rule="nonzero"/></clipPath><clipPath id="447ac8231f"><path d="M 55.050781 234 L 130 234 L 130 272 L 55.050781 272 Z M 55.050781 234 " clip-rule="nonzero"/></clipPath><clipPath id="3a41325783"><path d="M 57.582031 236.058594 Z M 58.339844 234.476562 C 57.464844 234.058594 56.417969 234.429688 56 235.304688 C 55.582031 236.175781 55.953125 237.226562 56.828125 237.644531 L 127.363281 271.347656 C 128.238281 271.765625 129.285156 271.394531 129.703125 270.519531 C 130.121094 269.644531 129.75 268.597656 128.875 268.179688 Z M 58.339844 234.476562 " clip-rule="nonzero"/></clipPath><clipPath id="283fe92fbb"><path d="M 126 200.371094 L 200.601562 200.371094 L 200.601562 272 L 126 272 Z M 126 200.371094 " clip-rule="nonzero"/></clipPath><clipPath id="02a63dfa06"><path d="M 128.121094 269.761719 Z M 126.90625 268.496094 C 126.207031 269.164062 126.183594 270.273438 126.851562 270.976562 C 127.519531 271.675781 128.632812 271.703125 129.332031 271.03125 L 199.871094 203.625 C 200.570312 202.957031 200.59375 201.84375 199.925781 201.144531 C 199.257812 200.441406 198.144531 200.417969 197.445312 201.085938 Z M 126.90625 268.496094 " clip-rule="nonzero"/></clipPath><clipPath id="915bb497a0"><path d="M 196 200.371094 L 271 200.371094 L 271 226 L 196 226 Z M 196 200.371094 " clip-rule="nonzero"/></clipPath><clipPath id="2fc48ac8b7"><path d="M 198.65625 202.355469 Z M 199.160156 200.675781 C 198.230469 200.398438 197.253906 200.925781 196.976562 201.855469 C 196.699219 202.78125 197.226562 203.761719 198.15625 204.039062 L 268.691406 225.101562 C 269.621094 225.378906 270.597656 224.851562 270.875 223.921875 C 271.152344 222.996094 270.625 222.015625 269.695312 221.738281 Z M 199.160156 200.675781 " clip-rule="nonzero"/></clipPath><clipPath id="8645912e35"><path d="M 267 74 L 342 74 L 342 226 L 267 226 Z M 267 74 " clip-rule="nonzero"/></clipPath><clipPath id="7815e8bd6b"><path d="M 269.195312 223.421875 Z M 267.609375 222.664062 C 267.191406 223.539062 267.5625 224.585938 268.4375 225.003906 C 269.3125 225.421875 270.359375 225.050781 270.777344 224.179688 L 341.316406 76.722656 C 341.734375 75.851562 341.363281 74.800781 340.488281 74.382812 C 339.613281 73.964844 338.566406 74.335938 338.148438 75.210938 Z M 339.730469 75.96875 Z M 339.730469 75.96875 " clip-rule="nonzero"/></clipPath><clipPath id="97d42dee19"><path d="M 55.050781 158 L 130 158 L 130 212.832031 L 55.050781 212.832031 Z M 55.050781 158 " clip-rule="nonzero"/></clipPath><clipPath id="34c14b4219"><path d="M 57.582031 210.78125 Z M 56.5625 209.355469 C 55.773438 209.921875 55.59375 211.015625 56.15625 211.804688 C 56.722656 212.59375 57.816406 212.773438 58.605469 212.207031 L 129.140625 161.652344 C 129.929688 161.089844 130.109375 159.992188 129.546875 159.203125 C 128.980469 158.417969 127.886719 158.234375 127.097656 158.800781 Z M 56.5625 209.355469 " clip-rule="nonzero"/></clipPath><clipPath id="86a9d27758"><path d="M 126 158 L 201 158 L 201 184 L 126 184 Z M 126 158 " clip-rule="nonzero"/></clipPath><clipPath id="1fbfdc5596"><path d="M 128.121094 160.226562 Z M 128.621094 158.542969 C 127.695312 158.265625 126.714844 158.796875 126.4375 159.722656 C 126.160156 160.652344 126.6875 161.628906 127.617188 161.90625 L 198.15625 182.972656 C 199.082031 183.25 200.0625 182.722656 200.339844 181.792969 C 200.617188 180.863281 200.089844 179.886719 199.160156 179.609375 Z M 128.621094 158.542969 " clip-rule="nonzero"/></clipPath><clipPath id="f9c44bdd27"><path d="M 196 116 L 271 116 L 271 184 L 196 184 Z M 196 116 " clip-rule="nonzero"/></clipPath><clipPath id="2fba64d422"><path d="M 198.65625 181.292969 Z M 197.484375 179.984375 C 196.765625 180.628906 196.703125 181.742188 197.351562 182.460938 C 197.996094 183.183594 199.105469 183.246094 199.828125 182.597656 L 270.367188 119.402344 C 271.085938 118.757812 271.148438 117.648438 270.5 116.925781 C 269.855469 116.203125 268.746094 116.144531 268.023438 116.789062 Z M 197.484375 179.984375 " clip-rule="nonzero"/></clipPath><clipPath id="20fd2e4799"><path d="M 267 107.699219 L 342 107.699219 L 342 120 L 267 120 Z M 267 107.699219 " clip-rule="nonzero"/></clipPath><clipPath id="99087d87a5"><path d="M 269.195312 118.097656 Z M 268.984375 116.355469 C 268.023438 116.46875 267.335938 117.34375 267.453125 118.304688 C 267.566406 119.265625 268.441406 119.953125 269.402344 119.839844 L 339.941406 111.414062 C 340.902344 111.296875 341.589844 110.425781 341.472656 109.460938 C 341.359375 108.5 340.484375 107.8125 339.523438 107.929688 Z M 339.730469 109.671875 Z M 339.730469 109.671875 " clip-rule="nonzero"/></clipPath></defs><g fill="#ffffff" fill-opacity="1"><g transform="translate(31.591174, 302.932959)"><g><path d="M 5.671875 0 L 1.171875 0 L 1.171875 -8.25 L 5.671875 -8.25 L 5.671875 -7.71875 L 1.734375 -7.71875 L 1.734375 -4.59375 L 5.453125 -4.59375 L 5.453125 -4.0625 L 1.734375 -4.0625 L 1.734375 -0.53125 L 5.671875 -0.53125 Z M 5.671875 0 "/></g></g></g><g fill="#ffffff" fill-opacity="1"><g transform="translate(37.959327, 302.932959)"><g><path d="M 4.828125 -1.59375 C 4.828125 -1.039062 4.617188 -0.617188 4.203125 -0.328125 C 3.785156 -0.0351562 3.191406 0.109375 2.421875 0.109375 C 1.597656 0.109375 0.945312 -0.015625 0.46875 -0.265625 L 0.46875 -0.875 C 1.082031 -0.5625 1.734375 -0.40625 2.421875 -0.40625 C 3.023438 -0.40625 3.484375 -0.503906 3.796875 -0.703125 C 4.117188 -0.910156 4.28125 -1.179688 4.28125 -1.515625 C 4.28125 -1.816406 4.15625 -2.070312 3.90625 -2.28125 C 3.65625 -2.5 3.242188 -2.707031 2.671875 -2.90625 C 2.054688 -3.125 1.625 -3.3125 1.375 -3.46875 C 1.125 -3.632812 0.9375 -3.816406 0.8125 -4.015625 C 0.6875 -4.222656 0.625 -4.472656 0.625 -4.765625 C 0.625 -5.222656 0.816406 -5.582031 1.203125 -5.84375 C 1.585938 -6.113281 2.125 -6.25 2.8125 -6.25 C 3.476562 -6.25 4.109375 -6.125 4.703125 -5.875 L 4.5 -5.375 C 3.894531 -5.613281 3.332031 -5.734375 2.8125 -5.734375 C 2.3125 -5.734375 1.914062 -5.648438 1.625 -5.484375 C 1.332031 -5.328125 1.1875 -5.097656 1.1875 -4.796875 C 1.1875 -4.484375 1.300781 -4.226562 1.53125 -4.03125 C 1.757812 -3.84375 2.203125 -3.628906 2.859375 -3.390625 C 3.410156 -3.191406 3.8125 -3.007812 4.0625 -2.84375 C 4.320312 -2.6875 4.515625 -2.503906 4.640625 -2.296875 C 4.765625 -2.097656 4.828125 -1.863281 4.828125 -1.59375 Z M 4.828125 -1.59375 "/></g></g></g><g fill="#ffffff" fill-opacity="1"><g transform="translate(43.335626, 302.932959)"><g><path d="M 2.640625 -0.390625 C 2.992188 -0.390625 3.300781 -0.414062 3.5625 -0.46875 L 3.5625 -0.015625 C 3.289062 0.0664062 2.984375 0.109375 2.640625 0.109375 C 2.097656 0.109375 1.695312 -0.03125 1.4375 -0.3125 C 1.175781 -0.601562 1.046875 -1.0625 1.046875 -1.6875 L 1.046875 -5.640625 L 0.140625 -5.640625 L 0.140625 -5.96875 L 1.046875 -6.21875 L 1.328125 -7.609375 L 1.625 -7.609375 L 1.625 -6.125 L 3.421875 -6.125 L 3.421875 -5.640625 L 1.625 -5.640625 L 1.625 -1.765625 C 1.625 -1.296875 1.703125 -0.945312 1.859375 -0.71875 C 2.023438 -0.5 2.285156 -0.390625 2.640625 -0.390625 Z M 2.640625 -0.390625 "/></g></g></g><g fill="#ffffff" fill-opacity="1"><g transform="translate(47.201601, 302.932959)"><g><path d="M 6.09375 -3.078125 C 6.09375 -2.078125 5.847656 -1.296875 5.359375 -0.734375 C 4.878906 -0.171875 4.210938 0.109375 3.359375 0.109375 C 2.816406 0.109375 2.34375 -0.0195312 1.9375 -0.28125 C 1.53125 -0.539062 1.21875 -0.910156 1 -1.390625 C 0.78125 -1.878906 0.671875 -2.441406 0.671875 -3.078125 C 0.671875 -4.078125 0.910156 -4.851562 1.390625 -5.40625 C 1.878906 -5.96875 2.546875 -6.25 3.390625 -6.25 C 4.234375 -6.25 4.894531 -5.960938 5.375 -5.390625 C 5.851562 -4.828125 6.09375 -4.054688 6.09375 -3.078125 Z M 1.25 -3.078125 C 1.25 -2.234375 1.4375 -1.570312 1.8125 -1.09375 C 2.1875 -0.625 2.710938 -0.390625 3.390625 -0.390625 C 4.054688 -0.390625 4.578125 -0.625 4.953125 -1.09375 C 5.328125 -1.570312 5.515625 -2.234375 5.515625 -3.078125 C 5.515625 -3.921875 5.328125 -4.570312 4.953125 -5.03125 C 4.578125 -5.5 4.050781 -5.734375 3.375 -5.734375 C 2.695312 -5.734375 2.171875 -5.5 1.796875 -5.03125 C 1.429688 -4.570312 1.25 -3.921875 1.25 -3.078125 Z M 1.25 -3.078125 "/></g></g></g><g fill="#ffffff" fill-opacity="1"><g transform="translate(53.964241, 302.932959)"><g><path d="M 3.203125 0.109375 C 2.398438 0.109375 1.773438 -0.15625 1.328125 -0.6875 C 0.890625 -1.21875 0.671875 -1.988281 0.671875 -3 C 0.671875 -4.03125 0.890625 -4.828125 1.328125 -5.390625 C 1.773438 -5.960938 2.410156 -6.25 3.234375 -6.25 C 4.128906 -6.25 4.796875 -5.921875 5.234375 -5.265625 L 5.265625 -5.265625 L 5.375 -6.125 L 5.84375 -6.125 L 5.84375 2.78125 L 5.28125 2.78125 L 5.28125 0.4375 C 5.28125 -0.0195312 5.296875 -0.484375 5.328125 -0.953125 L 5.28125 -0.953125 C 4.84375 -0.242188 4.148438 0.109375 3.203125 0.109375 Z M 3.21875 -0.390625 C 3.957031 -0.390625 4.484375 -0.59375 4.796875 -1 C 5.117188 -1.40625 5.28125 -2.09375 5.28125 -3.0625 L 5.28125 -3.125 C 5.28125 -4.050781 5.117188 -4.71875 4.796875 -5.125 C 4.484375 -5.53125 3.976562 -5.734375 3.28125 -5.734375 C 2.625 -5.734375 2.117188 -5.5 1.765625 -5.03125 C 1.421875 -4.570312 1.25 -3.890625 1.25 -2.984375 C 1.25 -2.128906 1.414062 -1.484375 1.75 -1.046875 C 2.09375 -0.609375 2.582031 -0.390625 3.21875 -0.390625 Z M 3.21875 -0.390625 "/></g></g></g><g fill="#ffffff" fill-opacity="1"><g transform="translate(60.833962, 302.932959)"><g><path d="M 1.515625 -6.125 L 1.515625 -2.15625 C 1.515625 -1.539062 1.644531 -1.09375 1.90625 -0.8125 C 2.164062 -0.53125 2.566406 -0.390625 3.109375 -0.390625 C 3.835938 -0.390625 4.375 -0.570312 4.71875 -0.9375 C 5.0625 -1.3125 5.234375 -1.914062 5.234375 -2.75 L 5.234375 -6.125 L 5.78125 -6.125 L 5.78125 0 L 5.3125 0 L 5.203125 -0.84375 L 5.171875 -0.84375 C 4.773438 -0.207031 4.066406 0.109375 3.046875 0.109375 C 1.648438 0.109375 0.953125 -0.632812 0.953125 -2.125 L 0.953125 -6.125 Z M 1.515625 -6.125 "/></g></g></g><g fill="#ffffff" fill-opacity="1"><g transform="translate(67.641686, 302.932959)"><g><path d="M 3.5 0.109375 C 2.613281 0.109375 1.921875 -0.160156 1.421875 -0.703125 C 0.921875 -1.253906 0.671875 -2.023438 0.671875 -3.015625 C 0.671875 -3.992188 0.910156 -4.773438 1.390625 -5.359375 C 1.867188 -5.953125 2.519531 -6.25 3.34375 -6.25 C 4.0625 -6.25 4.628906 -5.992188 5.046875 -5.484375 C 5.460938 -4.984375 5.671875 -4.300781 5.671875 -3.4375 L 5.671875 -2.984375 L 1.25 -2.984375 C 1.257812 -2.140625 1.457031 -1.492188 1.84375 -1.046875 C 2.226562 -0.609375 2.78125 -0.390625 3.5 -0.390625 C 3.851562 -0.390625 4.160156 -0.414062 4.421875 -0.46875 C 4.691406 -0.519531 5.023438 -0.625 5.421875 -0.78125 L 5.421875 -0.28125 C 5.078125 -0.125 4.757812 -0.0195312 4.46875 0.03125 C 4.175781 0.0820312 3.851562 0.109375 3.5 0.109375 Z M 3.34375 -5.75 C 2.75 -5.75 2.269531 -5.550781 1.90625 -5.15625 C 1.550781 -4.769531 1.347656 -4.210938 1.296875 -3.484375 L 5.078125 -3.484375 C 5.078125 -4.191406 4.921875 -4.742188 4.609375 -5.140625 C 4.304688 -5.546875 3.882812 -5.75 3.34375 -5.75 Z M 3.34375 -5.75 "/></g></g></g><g fill="#ffffff" fill-opacity="1"><g transform="translate(73.976026, 302.932959)"><g/></g></g><g fill="#ffffff" fill-opacity="1"><g transform="translate(76.974129, 302.932959)"><g><path d="M 3.84375 0 L 3.296875 0 L 3.296875 -6 C 3.296875 -6.550781 3.316406 -7.117188 3.359375 -7.703125 C 3.304688 -7.640625 3.25 -7.582031 3.1875 -7.53125 C 3.125 -7.476562 2.539062 -7.023438 1.4375 -6.171875 L 1.125 -6.5625 L 3.359375 -8.25 L 3.84375 -8.25 Z M 3.84375 0 "/></g></g></g><g fill="#ffffff" fill-opacity="1"><g transform="translate(102.128273, 302.932959)"><g><path d="M 5.671875 0 L 1.171875 0 L 1.171875 -8.25 L 5.671875 -8.25 L 5.671875 -7.71875 L 1.734375 -7.71875 L 1.734375 -4.59375 L 5.453125 -4.59375 L 5.453125 -4.0625 L 1.734375 -4.0625 L 1.734375 -0.53125 L 5.671875 -0.53125 Z M 5.671875 0 "/></g></g></g><g fill="#ffffff" fill-opacity="1"><g transform="translate(108.496426, 302.932959)"><g><path d="M 4.828125 -1.59375 C 4.828125 -1.039062 4.617188 -0.617188 4.203125 -0.328125 C 3.785156 -0.0351562 3.191406 0.109375 2.421875 0.109375 C 1.597656 0.109375 0.945312 -0.015625 0.46875 -0.265625 L 0.46875 -0.875 C 1.082031 -0.5625 1.734375 -0.40625 2.421875 -0.40625 C 3.023438 -0.40625 3.484375 -0.503906 3.796875 -0.703125 C 4.117188 -0.910156 4.28125 -1.179688 4.28125 -1.515625 C 4.28125 -1.816406 4.15625 -2.070312 3.90625 -2.28125 C 3.65625 -2.5 3.242188 -2.707031 2.671875 -2.90625 C 2.054688 -3.125 1.625 -3.3125 1.375 -3.46875 C 1.125 -3.632812 0.9375 -3.816406 0.8125 -4.015625 C 0.6875 -4.222656 0.625 -4.472656 0.625 -4.765625 C 0.625 -5.222656 0.816406 -5.582031 1.203125 -5.84375 C 1.585938 -6.113281 2.125 -6.25 2.8125 -6.25 C 3.476562 -6.25 4.109375 -6.125 4.703125 -5.875 L 4.5 -5.375 C 3.894531 -5.613281 3.332031 -5.734375 2.8125 -5.734375 C 2.3125 -5.734375 1.914062 -5.648438 1.625 -5.484375 C 1.332031 -5.328125 1.1875 -5.097656 1.1875 -4.796875 C 1.1875 -4.484375 1.300781 -4.226562 1.53125 -4.03125 C 1.757812 -3.84375 2.203125 -3.628906 2.859375 -3.390625 C 3.410156 -3.191406 3.8125 -3.007812 4.0625 -2.84375 C 4.320312 -2.6875 4.515625 -2.503906 4.640625 -2.296875 C 4.765625 -2.097656 4.828125 -1.863281 4.828125 -1.59375 Z M 4.828125 -1.59375 "/></g></g></g><g fill="#ffffff" fill-opacity="1"><g transform="translate(113.872724, 302.932959)"><g><path d="M 2.640625 -0.390625 C 2.992188 -0.390625 3.300781 -0.414062 3.5625 -0.46875 L 3.5625 -0.015625 C 3.289062 0.0664062 2.984375 0.109375 2.640625 0.109375 C 2.097656 0.109375 1.695312 -0.03125 1.4375 -0.3125 C 1.175781 -0.601562 1.046875 -1.0625 1.046875 -1.6875 L 1.046875 -5.640625 L 0.140625 -5.640625 L 0.140625 -5.96875 L 1.046875 -6.21875 L 1.328125 -7.609375 L 1.625 -7.609375 L 1.625 -6.125 L 3.421875 -6.125 L 3.421875 -5.640625 L 1.625 -5.640625 L 1.625 -1.765625 C 1.625 -1.296875 1.703125 -0.945312 1.859375 -0.71875 C 2.023438 -0.5 2.285156 -0.390625 2.640625 -0.390625 Z M 2.640625 -0.390625 "/></g></g></g><g fill="#ffffff" fill-opacity="1"><g transform="translate(117.7387, 302.932959)"><g><path d="M 6.09375 -3.078125 C 6.09375 -2.078125 5.847656 -1.296875 5.359375 -0.734375 C 4.878906 -0.171875 4.210938 0.109375 3.359375 0.109375 C 2.816406 0.109375 2.34375 -0.0195312 1.9375 -0.28125 C 1.53125 -0.539062 1.21875 -0.910156 1 -1.390625 C 0.78125 -1.878906 0.671875 -2.441406 0.671875 -3.078125 C 0.671875 -4.078125 0.910156 -4.851562 1.390625 -5.40625 C 1.878906 -5.96875 2.546875 -6.25 3.390625 -6.25 C 4.234375 -6.25 4.894531 -5.960938 5.375 -5.390625 C 5.851562 -4.828125 6.09375 -4.054688 6.09375 -3.078125 Z M 1.25 -3.078125 C 1.25 -2.234375 1.4375 -1.570312 1.8125 -1.09375 C 2.1875 -0.625 2.710938 -0.390625 3.390625 -0.390625 C 4.054688 -0.390625 4.578125 -0.625 4.953125 -1.09375 C 5.328125 -1.570312 5.515625 -2.234375 5.515625 -3.078125 C 5.515625 -3.921875 5.328125 -4.570312 4.953125 -5.03125 C 4.578125 -5.5 4.050781 -5.734375 3.375 -5.734375 C 2.695312 -5.734375 2.171875 -5.5 1.796875 -5.03125 C 1.429688 -4.570312 1.25 -3.921875 1.25 -3.078125 Z M 1.25 -3.078125 "/></g></g></g><g fill="#ffffff" fill-opacity="1"><g transform="translate(124.50134, 302.932959)"><g><path d="M 3.203125 0.109375 C 2.398438 0.109375 1.773438 -0.15625 1.328125 -0.6875 C 0.890625 -1.21875 0.671875 -1.988281 0.671875 -3 C 0.671875 -4.03125 0.890625 -4.828125 1.328125 -5.390625 C 1.773438 -5.960938 2.410156 -6.25 3.234375 -6.25 C 4.128906 -6.25 4.796875 -5.921875 5.234375 -5.265625 L 5.265625 -5.265625 L 5.375 -6.125 L 5.84375 -6.125 L 5.84375 2.78125 L 5.28125 2.78125 L 5.28125 0.4375 C 5.28125 -0.0195312 5.296875 -0.484375 5.328125 -0.953125 L 5.28125 -0.953125 C 4.84375 -0.242188 4.148438 0.109375 3.203125 0.109375 Z M 3.21875 -0.390625 C 3.957031 -0.390625 4.484375 -0.59375 4.796875 -1 C 5.117188 -1.40625 5.28125 -2.09375 5.28125 -3.0625 L 5.28125 -3.125 C 5.28125 -4.050781 5.117188 -4.71875 4.796875 -5.125 C 4.484375 -5.53125 3.976562 -5.734375 3.28125 -5.734375 C 2.625 -5.734375 2.117188 -5.5 1.765625 -5.03125 C 1.421875 -4.570312 1.25 -3.890625 1.25 -2.984375 C 1.25 -2.128906 1.414062 -1.484375 1.75 -1.046875 C 2.09375 -0.609375 2.582031 -0.390625 3.21875 -0.390625 Z M 3.21875 -0.390625 "/></g></g></g><g fill="#ffffff" fill-opacity="1"><g transform="translate(131.371061, 302.932959)"><g><path d="M 1.515625 -6.125 L 1.515625 -2.15625 C 1.515625 -1.539062 1.644531 -1.09375 1.90625 -0.8125 C 2.164062 -0.53125 2.566406 -0.390625 3.109375 -0.390625 C 3.835938 -0.390625 4.375 -0.570312 4.71875 -0.9375 C 5.0625 -1.3125 5.234375 -1.914062 5.234375 -2.75 L 5.234375 -6.125 L 5.78125 -6.125 L 5.78125 0 L 5.3125 0 L 5.203125 -0.84375 L 5.171875 -0.84375 C 4.773438 -0.207031 4.066406 0.109375 3.046875 0.109375 C 1.648438 0.109375 0.953125 -0.632812 0.953125 -2.125 L 0.953125 -6.125 Z M 1.515625 -6.125 "/></g></g></g><g fill="#ffffff" fill-opacity="1"><g transform="translate(138.178785, 302.932959)"><g><path d="M 3.5 0.109375 C 2.613281 0.109375 1.921875 -0.160156 1.421875 -0.703125 C 0.921875 -1.253906 0.671875 -2.023438 0.671875 -3.015625 C 0.671875 -3.992188 0.910156 -4.773438 1.390625 -5.359375 C 1.867188 -5.953125 2.519531 -6.25 3.34375 -6.25 C 4.0625 -6.25 4.628906 -5.992188 5.046875 -5.484375 C 5.460938 -4.984375 5.671875 -4.300781 5.671875 -3.4375 L 5.671875 -2.984375 L 1.25 -2.984375 C 1.257812 -2.140625 1.457031 -1.492188 1.84375 -1.046875 C 2.226562 -0.609375 2.78125 -0.390625 3.5 -0.390625 C 3.851562 -0.390625 4.160156 -0.414062 4.421875 -0.46875 C 4.691406 -0.519531 5.023438 -0.625 5.421875 -0.78125 L 5.421875 -0.28125 C 5.078125 -0.125 4.757812 -0.0195312 4.46875 0.03125 C 4.175781 0.0820312 3.851562 0.109375 3.5 0.109375 Z M 3.34375 -5.75 C 2.75 -5.75 2.269531 -5.550781 1.90625 -5.15625 C 1.550781 -4.769531 1.347656 -4.210938 1.296875 -3.484375 L 5.078125 -3.484375 C 5.078125 -4.191406 4.921875 -4.742188 4.609375 -5.140625 C 4.304688 -5.546875 3.882812 -5.75 3.34375 -5.75 Z M 3.34375 -5.75 "/></g></g></g><g fill="#ffffff" fill-opacity="1"><g transform="translate(144.513124, 302.932959)"><g/></g></g><g fill="#ffffff" fill-opacity="1"><g transform="translate(147.511228, 302.932959)"><g><path d="M 5.796875 0 L 0.640625 0 L 0.640625 -0.5 L 2.828125 -2.78125 C 3.441406 -3.425781 3.875 -3.914062 4.125 -4.25 C 4.375 -4.59375 4.554688 -4.914062 4.671875 -5.21875 C 4.785156 -5.53125 4.84375 -5.851562 4.84375 -6.1875 C 4.84375 -6.675781 4.679688 -7.078125 4.359375 -7.390625 C 4.035156 -7.703125 3.617188 -7.859375 3.109375 -7.859375 C 2.421875 -7.859375 1.765625 -7.609375 1.140625 -7.109375 L 0.828125 -7.5 C 1.515625 -8.070312 2.28125 -8.359375 3.125 -8.359375 C 3.832031 -8.359375 4.390625 -8.164062 4.796875 -7.78125 C 5.210938 -7.40625 5.421875 -6.878906 5.421875 -6.203125 C 5.421875 -5.660156 5.28125 -5.132812 5 -4.625 C 4.726562 -4.113281 4.226562 -3.484375 3.5 -2.734375 L 1.390625 -0.5625 L 1.390625 -0.546875 L 5.796875 -0.546875 Z M 5.796875 0 "/></g></g></g><g fill="#ffffff" fill-opacity="1"><g transform="translate(172.665375, 302.932959)"><g><path d="M 5.671875 0 L 1.171875 0 L 1.171875 -8.25 L 5.671875 -8.25 L 5.671875 -7.71875 L 1.734375 -7.71875 L 1.734375 -4.59375 L 5.453125 -4.59375 L 5.453125 -4.0625 L 1.734375 -4.0625 L 1.734375 -0.53125 L 5.671875 -0.53125 Z M 5.671875 0 "/></g></g></g><g fill="#ffffff" fill-opacity="1"><g transform="translate(179.033527, 302.932959)"><g><path d="M 4.828125 -1.59375 C 4.828125 -1.039062 4.617188 -0.617188 4.203125 -0.328125 C 3.785156 -0.0351562 3.191406 0.109375 2.421875 0.109375 C 1.597656 0.109375 0.945312 -0.015625 0.46875 -0.265625 L 0.46875 -0.875 C 1.082031 -0.5625 1.734375 -0.40625 2.421875 -0.40625 C 3.023438 -0.40625 3.484375 -0.503906 3.796875 -0.703125 C 4.117188 -0.910156 4.28125 -1.179688 4.28125 -1.515625 C 4.28125 -1.816406 4.15625 -2.070312 3.90625 -2.28125 C 3.65625 -2.5 3.242188 -2.707031 2.671875 -2.90625 C 2.054688 -3.125 1.625 -3.3125 1.375 -3.46875 C 1.125 -3.632812 0.9375 -3.816406 0.8125 -4.015625 C 0.6875 -4.222656 0.625 -4.472656 0.625 -4.765625 C 0.625 -5.222656 0.816406 -5.582031 1.203125 -5.84375 C 1.585938 -6.113281 2.125 -6.25 2.8125 -6.25 C 3.476562 -6.25 4.109375 -6.125 4.703125 -5.875 L 4.5 -5.375 C 3.894531 -5.613281 3.332031 -5.734375 2.8125 -5.734375 C 2.3125 -5.734375 1.914062 -5.648438 1.625 -5.484375 C 1.332031 -5.328125 1.1875 -5.097656 1.1875 -4.796875 C 1.1875 -4.484375 1.300781 -4.226562 1.53125 -4.03125 C 1.757812 -3.84375 2.203125 -3.628906 2.859375 -3.390625 C 3.410156 -3.191406 3.8125 -3.007812 4.0625 -2.84375 C 4.320312 -2.6875 4.515625 -2.503906 4.640625 -2.296875 C 4.765625 -2.097656 4.828125 -1.863281 4.828125 -1.59375 Z M 4.828125 -1.59375 "/></g></g></g><g fill="#ffffff" fill-opacity="1"><g transform="translate(184.409826, 302.932959)"><g><path d="M 2.640625 -0.390625 C 2.992188 -0.390625 3.300781 -0.414062 3.5625 -0.46875 L 3.5625 -0.015625 C 3.289062 0.0664062 2.984375 0.109375 2.640625 0.109375 C 2.097656 0.109375 1.695312 -0.03125 1.4375 -0.3125 C 1.175781 -0.601562 1.046875 -1.0625 1.046875 -1.6875 L 1.046875 -5.640625 L 0.140625 -5.640625 L 0.140625 -5.96875 L 1.046875 -6.21875 L 1.328125 -7.609375 L 1.625 -7.609375 L 1.625 -6.125 L 3.421875 -6.125 L 3.421875 -5.640625 L 1.625 -5.640625 L 1.625 -1.765625 C 1.625 -1.296875 1.703125 -0.945312 1.859375 -0.71875 C 2.023438 -0.5 2.285156 -0.390625 2.640625 -0.390625 Z M 2.640625 -0.390625 "/></g></g></g><g fill="#ffffff" fill-opacity="1"><g transform="translate(188.275802, 302.932959)"><g><path d="M 6.09375 -3.078125 C 6.09375 -2.078125 5.847656 -1.296875 5.359375 -0.734375 C 4.878906 -0.171875 4.210938 0.109375 3.359375 0.109375 C 2.816406 0.109375 2.34375 -0.0195312 1.9375 -0.28125 C 1.53125 -0.539062 1.21875 -0.910156 1 -1.390625 C 0.78125 -1.878906 0.671875 -2.441406 0.671875 -3.078125 C 0.671875 -4.078125 0.910156 -4.851562 1.390625 -5.40625 C 1.878906 -5.96875 2.546875 -6.25 3.390625 -6.25 C 4.234375 -6.25 4.894531 -5.960938 5.375 -5.390625 C 5.851562 -4.828125 6.09375 -4.054688 6.09375 -3.078125 Z M 1.25 -3.078125 C 1.25 -2.234375 1.4375 -1.570312 1.8125 -1.09375 C 2.1875 -0.625 2.710938 -0.390625 3.390625 -0.390625 C 4.054688 -0.390625 4.578125 -0.625 4.953125 -1.09375 C 5.328125 -1.570312 5.515625 -2.234375 5.515625 -3.078125 C 5.515625 -3.921875 5.328125 -4.570312 4.953125 -5.03125 C 4.578125 -5.5 4.050781 -5.734375 3.375 -5.734375 C 2.695312 -5.734375 2.171875 -5.5 1.796875 -5.03125 C 1.429688 -4.570312 1.25 -3.921875 1.25 -3.078125 Z M 1.25 -3.078125 "/></g></g></g><g fill="#ffffff" fill-opacity="1"><g transform="translate(195.038442, 302.932959)"><g><path d="M 3.203125 0.109375 C 2.398438 0.109375 1.773438 -0.15625 1.328125 -0.6875 C 0.890625 -1.21875 0.671875 -1.988281 0.671875 -3 C 0.671875 -4.03125 0.890625 -4.828125 1.328125 -5.390625 C 1.773438 -5.960938 2.410156 -6.25 3.234375 -6.25 C 4.128906 -6.25 4.796875 -5.921875 5.234375 -5.265625 L 5.265625 -5.265625 L 5.375 -6.125 L 5.84375 -6.125 L 5.84375 2.78125 L 5.28125 2.78125 L 5.28125 0.4375 C 5.28125 -0.0195312 5.296875 -0.484375 5.328125 -0.953125 L 5.28125 -0.953125 C 4.84375 -0.242188 4.148438 0.109375 3.203125 0.109375 Z M 3.21875 -0.390625 C 3.957031 -0.390625 4.484375 -0.59375 4.796875 -1 C 5.117188 -1.40625 5.28125 -2.09375 5.28125 -3.0625 L 5.28125 -3.125 C 5.28125 -4.050781 5.117188 -4.71875 4.796875 -5.125 C 4.484375 -5.53125 3.976562 -5.734375 3.28125 -5.734375 C 2.625 -5.734375 2.117188 -5.5 1.765625 -5.03125 C 1.421875 -4.570312 1.25 -3.890625 1.25 -2.984375 C 1.25 -2.128906 1.414062 -1.484375 1.75 -1.046875 C 2.09375 -0.609375 2.582031 -0.390625 3.21875 -0.390625 Z M 3.21875 -0.390625 "/></g></g></g><g fill="#ffffff" fill-opacity="1"><g transform="translate(201.908163, 302.932959)"><g><path d="M 1.515625 -6.125 L 1.515625 -2.15625 C 1.515625 -1.539062 1.644531 -1.09375 1.90625 -0.8125 C 2.164062 -0.53125 2.566406 -0.390625 3.109375 -0.390625 C 3.835938 -0.390625 4.375 -0.570312 4.71875 -0.9375 C 5.0625 -1.3125 5.234375 -1.914062 5.234375 -2.75 L 5.234375 -6.125 L 5.78125 -6.125 L 5.78125 0 L 5.3125 0 L 5.203125 -0.84375 L 5.171875 -0.84375 C 4.773438 -0.207031 4.066406 0.109375 3.046875 0.109375 C 1.648438 0.109375 0.953125 -0.632812 0.953125 -2.125 L 0.953125 -6.125 Z M 1.515625 -6.125 "/></g></g></g><g fill="#ffffff" fill-opacity="1"><g transform="translate(208.715887, 302.932959)"><g><path d="M 3.5 0.109375 C 2.613281 0.109375 1.921875 -0.160156 1.421875 -0.703125 C 0.921875 -1.253906 0.671875 -2.023438 0.671875 -3.015625 C 0.671875 -3.992188 0.910156 -4.773438 1.390625 -5.359375 C 1.867188 -5.953125 2.519531 -6.25 3.34375 -6.25 C 4.0625 -6.25 4.628906 -5.992188 5.046875 -5.484375 C 5.460938 -4.984375 5.671875 -4.300781 5.671875 -3.4375 L 5.671875 -2.984375 L 1.25 -2.984375 C 1.257812 -2.140625 1.457031 -1.492188 1.84375 -1.046875 C 2.226562 -0.609375 2.78125 -0.390625 3.5 -0.390625 C 3.851562 -0.390625 4.160156 -0.414062 4.421875 -0.46875 C 4.691406 -0.519531 5.023438 -0.625 5.421875 -0.78125 L 5.421875 -0.28125 C 5.078125 -0.125 4.757812 -0.0195312 4.46875 0.03125 C 4.175781 0.0820312 3.851562 0.109375 3.5 0.109375 Z M 3.34375 -5.75 C 2.75 -5.75 2.269531 -5.550781 1.90625 -5.15625 C 1.550781 -4.769531 1.347656 -4.210938 1.296875 -3.484375 L 5.078125 -3.484375 C 5.078125 -4.191406 4.921875 -4.742188 4.609375 -5.140625 C 4.304688 -5.546875 3.882812 -5.75 3.34375 -5.75 Z M 3.34375 -5.75 "/></g></g></g><g fill="#ffffff" fill-opacity="1"><g transform="translate(215.050226, 302.932959)"><g/></g></g><g fill="#ffffff" fill-opacity="1"><g transform="translate(218.04833, 302.932959)"><g><path d="M 5.515625 -6.296875 C 5.515625 -5.785156 5.351562 -5.351562 5.03125 -5 C 4.71875 -4.65625 4.289062 -4.4375 3.75 -4.34375 L 3.75 -4.3125 C 4.40625 -4.226562 4.90625 -4.015625 5.25 -3.671875 C 5.601562 -3.335938 5.78125 -2.882812 5.78125 -2.3125 C 5.78125 -1.539062 5.515625 -0.941406 4.984375 -0.515625 C 4.460938 -0.0976562 3.707031 0.109375 2.71875 0.109375 C 1.882812 0.109375 1.15625 -0.046875 0.53125 -0.359375 L 0.53125 -0.90625 C 0.84375 -0.75 1.195312 -0.625 1.59375 -0.53125 C 1.988281 -0.4375 2.359375 -0.390625 2.703125 -0.390625 C 3.535156 -0.390625 4.160156 -0.554688 4.578125 -0.890625 C 4.992188 -1.222656 5.203125 -1.695312 5.203125 -2.3125 C 5.203125 -2.851562 4.988281 -3.269531 4.5625 -3.5625 C 4.132812 -3.863281 3.503906 -4.015625 2.671875 -4.015625 L 1.78125 -4.015625 L 1.78125 -4.546875 L 2.6875 -4.546875 C 3.375 -4.546875 3.914062 -4.707031 4.3125 -5.03125 C 4.71875 -5.363281 4.921875 -5.804688 4.921875 -6.359375 C 4.921875 -6.816406 4.753906 -7.179688 4.421875 -7.453125 C 4.097656 -7.734375 3.675781 -7.875 3.15625 -7.875 C 2.738281 -7.875 2.359375 -7.816406 2.015625 -7.703125 C 1.679688 -7.585938 1.304688 -7.390625 0.890625 -7.109375 L 0.609375 -7.5 C 0.929688 -7.757812 1.316406 -7.96875 1.765625 -8.125 C 2.222656 -8.28125 2.679688 -8.359375 3.140625 -8.359375 C 3.898438 -8.359375 4.484375 -8.175781 4.890625 -7.8125 C 5.304688 -7.457031 5.515625 -6.953125 5.515625 -6.296875 Z M 5.515625 -6.296875 "/></g></g></g><g fill="#ffffff" fill-opacity="1"><g transform="translate(243.202431, 302.932959)"><g><path d="M 5.671875 0 L 1.171875 0 L 1.171875 -8.25 L 5.671875 -8.25 L 5.671875 -7.71875 L 1.734375 -7.71875 L 1.734375 -4.59375 L 5.453125 -4.59375 L 5.453125 -4.0625 L 1.734375 -4.0625 L 1.734375 -0.53125 L 5.671875 -0.53125 Z M 5.671875 0 "/></g></g></g><g fill="#ffffff" fill-opacity="1"><g transform="translate(249.570583, 302.932959)"><g><path d="M 4.828125 -1.59375 C 4.828125 -1.039062 4.617188 -0.617188 4.203125 -0.328125 C 3.785156 -0.0351562 3.191406 0.109375 2.421875 0.109375 C 1.597656 0.109375 0.945312 -0.015625 0.46875 -0.265625 L 0.46875 -0.875 C 1.082031 -0.5625 1.734375 -0.40625 2.421875 -0.40625 C 3.023438 -0.40625 3.484375 -0.503906 3.796875 -0.703125 C 4.117188 -0.910156 4.28125 -1.179688 4.28125 -1.515625 C 4.28125 -1.816406 4.15625 -2.070312 3.90625 -2.28125 C 3.65625 -2.5 3.242188 -2.707031 2.671875 -2.90625 C 2.054688 -3.125 1.625 -3.3125 1.375 -3.46875 C 1.125 -3.632812 0.9375 -3.816406 0.8125 -4.015625 C 0.6875 -4.222656 0.625 -4.472656 0.625 -4.765625 C 0.625 -5.222656 0.816406 -5.582031 1.203125 -5.84375 C 1.585938 -6.113281 2.125 -6.25 2.8125 -6.25 C 3.476562 -6.25 4.109375 -6.125 4.703125 -5.875 L 4.5 -5.375 C 3.894531 -5.613281 3.332031 -5.734375 2.8125 -5.734375 C 2.3125 -5.734375 1.914062 -5.648438 1.625 -5.484375 C 1.332031 -5.328125 1.1875 -5.097656 1.1875 -4.796875 C 1.1875 -4.484375 1.300781 -4.226562 1.53125 -4.03125 C 1.757812 -3.84375 2.203125 -3.628906 2.859375 -3.390625 C 3.410156 -3.191406 3.8125 -3.007812 4.0625 -2.84375 C 4.320312 -2.6875 4.515625 -2.503906 4.640625 -2.296875 C 4.765625 -2.097656 4.828125 -1.863281 4.828125 -1.59375 Z M 4.828125 -1.59375 "/></g></g></g><g fill="#ffffff" fill-opacity="1"><g transform="translate(254.946882, 302.932959)"><g><path d="M 2.640625 -0.390625 C 2.992188 -0.390625 3.300781 -0.414062 3.5625 -0.46875 L 3.5625 -0.015625 C 3.289062 0.0664062 2.984375 0.109375 2.640625 0.109375 C 2.097656 0.109375 1.695312 -0.03125 1.4375 -0.3125 C 1.175781 -0.601562 1.046875 -1.0625 1.046875 -1.6875 L 1.046875 -5.640625 L 0.140625 -5.640625 L 0.140625 -5.96875 L 1.046875 -6.21875 L 1.328125 -7.609375 L 1.625 -7.609375 L 1.625 -6.125 L 3.421875 -6.125 L 3.421875 -5.640625 L 1.625 -5.640625 L 1.625 -1.765625 C 1.625 -1.296875 1.703125 -0.945312 1.859375 -0.71875 C 2.023438 -0.5 2.285156 -0.390625 2.640625 -0.390625 Z M 2.640625 -0.390625 "/></g></g></g><g fill="#ffffff" fill-opacity="1"><g transform="translate(258.812858, 302.932959)"><g><path d="M 6.09375 -3.078125 C 6.09375 -2.078125 5.847656 -1.296875 5.359375 -0.734375 C 4.878906 -0.171875 4.210938 0.109375 3.359375 0.109375 C 2.816406 0.109375 2.34375 -0.0195312 1.9375 -0.28125 C 1.53125 -0.539062 1.21875 -0.910156 1 -1.390625 C 0.78125 -1.878906 0.671875 -2.441406 0.671875 -3.078125 C 0.671875 -4.078125 0.910156 -4.851562 1.390625 -5.40625 C 1.878906 -5.96875 2.546875 -6.25 3.390625 -6.25 C 4.234375 -6.25 4.894531 -5.960938 5.375 -5.390625 C 5.851562 -4.828125 6.09375 -4.054688 6.09375 -3.078125 Z M 1.25 -3.078125 C 1.25 -2.234375 1.4375 -1.570312 1.8125 -1.09375 C 2.1875 -0.625 2.710938 -0.390625 3.390625 -0.390625 C 4.054688 -0.390625 4.578125 -0.625 4.953125 -1.09375 C 5.328125 -1.570312 5.515625 -2.234375 5.515625 -3.078125 C 5.515625 -3.921875 5.328125 -4.570312 4.953125 -5.03125 C 4.578125 -5.5 4.050781 -5.734375 3.375 -5.734375 C 2.695312 -5.734375 2.171875 -5.5 1.796875 -5.03125 C 1.429688 -4.570312 1.25 -3.921875 1.25 -3.078125 Z M 1.25 -3.078125 "/></g></g></g><g fill="#ffffff" fill-opacity="1"><g transform="translate(265.575498, 302.932959)"><g><path d="M 3.203125 0.109375 C 2.398438 0.109375 1.773438 -0.15625 1.328125 -0.6875 C 0.890625 -1.21875 0.671875 -1.988281 0.671875 -3 C 0.671875 -4.03125 0.890625 -4.828125 1.328125 -5.390625 C 1.773438 -5.960938 2.410156 -6.25 3.234375 -6.25 C 4.128906 -6.25 4.796875 -5.921875 5.234375 -5.265625 L 5.265625 -5.265625 L 5.375 -6.125 L 5.84375 -6.125 L 5.84375 2.78125 L 5.28125 2.78125 L 5.28125 0.4375 C 5.28125 -0.0195312 5.296875 -0.484375 5.328125 -0.953125 L 5.28125 -0.953125 C 4.84375 -0.242188 4.148438 0.109375 3.203125 0.109375 Z M 3.21875 -0.390625 C 3.957031 -0.390625 4.484375 -0.59375 4.796875 -1 C 5.117188 -1.40625 5.28125 -2.09375 5.28125 -3.0625 L 5.28125 -3.125 C 5.28125 -4.050781 5.117188 -4.71875 4.796875 -5.125 C 4.484375 -5.53125 3.976562 -5.734375 3.28125 -5.734375 C 2.625 -5.734375 2.117188 -5.5 1.765625 -5.03125 C 1.421875 -4.570312 1.25 -3.890625 1.25 -2.984375 C 1.25 -2.128906 1.414062 -1.484375 1.75 -1.046875 C 2.09375 -0.609375 2.582031 -0.390625 3.21875 -0.390625 Z M 3.21875 -0.390625 "/></g></g></g><g fill="#ffffff" fill-opacity="1"><g transform="translate(272.445219, 302.932959)"><g><path d="M 1.515625 -6.125 L 1.515625 -2.15625 C 1.515625 -1.539062 1.644531 -1.09375 1.90625 -0.8125 C 2.164062 -0.53125 2.566406 -0.390625 3.109375 -0.390625 C 3.835938 -0.390625 4.375 -0.570312 4.71875 -0.9375 C 5.0625 -1.3125 5.234375 -1.914062 5.234375 -2.75 L 5.234375 -6.125 L 5.78125 -6.125 L 5.78125 0 L 5.3125 0 L 5.203125 -0.84375 L 5.171875 -0.84375 C 4.773438 -0.207031 4.066406 0.109375 3.046875 0.109375 C 1.648438 0.109375 0.953125 -0.632812 0.953125 -2.125 L 0.953125 -6.125 Z M 1.515625 -6.125 "/></g></g></g><g fill="#ffffff" fill-opacity="1"><g transform="translate(279.252943, 302.932959)"><g><path d="M 3.5 0.109375 C 2.613281 0.109375 1.921875 -0.160156 1.421875 -0.703125 C 0.921875 -1.253906 0.671875 -2.023438 0.671875 -3.015625 C 0.671875 -3.992188 0.910156 -4.773438 1.390625 -5.359375 C 1.867188 -5.953125 2.519531 -6.25 3.34375 -6.25 C 4.0625 -6.25 4.628906 -5.992188 5.046875 -5.484375 C 5.460938 -4.984375 5.671875 -4.300781 5.671875 -3.4375 L 5.671875 -2.984375 L 1.25 -2.984375 C 1.257812 -2.140625 1.457031 -1.492188 1.84375 -1.046875 C 2.226562 -0.609375 2.78125 -0.390625 3.5 -0.390625 C 3.851562 -0.390625 4.160156 -0.414062 4.421875 -0.46875 C 4.691406 -0.519531 5.023438 -0.625 5.421875 -0.78125 L 5.421875 -0.28125 C 5.078125 -0.125 4.757812 -0.0195312 4.46875 0.03125 C 4.175781 0.0820312 3.851562 0.109375 3.5 0.109375 Z M 3.34375 -5.75 C 2.75 -5.75 2.269531 -5.550781 1.90625 -5.15625 C 1.550781 -4.769531 1.347656 -4.210938 1.296875 -3.484375 L 5.078125 -3.484375 C 5.078125 -4.191406 4.921875 -4.742188 4.609375 -5.140625 C 4.304688 -5.546875 3.882812 -5.75 3.34375 -5.75 Z M 3.34375 -5.75 "/></g></g></g><g fill="#ffffff" fill-opacity="1"><g transform="translate(285.587282, 302.932959)"><g/></g></g><g fill="#ffffff" fill-opacity="1"><g transform="translate(288.585386, 302.932959)"><g><path d="M 6.4375 -2.109375 L 5.015625 -2.109375 L 5.015625 0 L 4.484375 0 L 4.484375 -2.109375 L 0.25 -2.109375 L 0.25 -2.484375 L 4.328125 -8.28125 L 5.015625 -8.28125 L 5.015625 -2.59375 L 6.4375 -2.59375 Z M 4.484375 -2.59375 L 4.484375 -4.9375 C 4.484375 -6.070312 4.507812 -7.023438 4.5625 -7.796875 L 4.515625 -7.796875 C 4.441406 -7.660156 4.210938 -7.3125 3.828125 -6.75 L 0.90625 -2.59375 Z M 4.484375 -2.59375 "/></g></g></g><g fill="#ffffff" fill-opacity="1"><g transform="translate(313.739545, 302.932959)"><g><path d="M 5.671875 0 L 1.171875 0 L 1.171875 -8.25 L 5.671875 -8.25 L 5.671875 -7.71875 L 1.734375 -7.71875 L 1.734375 -4.59375 L 5.453125 -4.59375 L 5.453125 -4.0625 L 1.734375 -4.0625 L 1.734375 -0.53125 L 5.671875 -0.53125 Z M 5.671875 0 "/></g></g></g><g fill="#ffffff" fill-opacity="1"><g transform="translate(320.107697, 302.932959)"><g><path d="M 4.828125 -1.59375 C 4.828125 -1.039062 4.617188 -0.617188 4.203125 -0.328125 C 3.785156 -0.0351562 3.191406 0.109375 2.421875 0.109375 C 1.597656 0.109375 0.945312 -0.015625 0.46875 -0.265625 L 0.46875 -0.875 C 1.082031 -0.5625 1.734375 -0.40625 2.421875 -0.40625 C 3.023438 -0.40625 3.484375 -0.503906 3.796875 -0.703125 C 4.117188 -0.910156 4.28125 -1.179688 4.28125 -1.515625 C 4.28125 -1.816406 4.15625 -2.070312 3.90625 -2.28125 C 3.65625 -2.5 3.242188 -2.707031 2.671875 -2.90625 C 2.054688 -3.125 1.625 -3.3125 1.375 -3.46875 C 1.125 -3.632812 0.9375 -3.816406 0.8125 -4.015625 C 0.6875 -4.222656 0.625 -4.472656 0.625 -4.765625 C 0.625 -5.222656 0.816406 -5.582031 1.203125 -5.84375 C 1.585938 -6.113281 2.125 -6.25 2.8125 -6.25 C 3.476562 -6.25 4.109375 -6.125 4.703125 -5.875 L 4.5 -5.375 C 3.894531 -5.613281 3.332031 -5.734375 2.8125 -5.734375 C 2.3125 -5.734375 1.914062 -5.648438 1.625 -5.484375 C 1.332031 -5.328125 1.1875 -5.097656 1.1875 -4.796875 C 1.1875 -4.484375 1.300781 -4.226562 1.53125 -4.03125 C 1.757812 -3.84375 2.203125 -3.628906 2.859375 -3.390625 C 3.410156 -3.191406 3.8125 -3.007812 4.0625 -2.84375 C 4.320312 -2.6875 4.515625 -2.503906 4.640625 -2.296875 C 4.765625 -2.097656 4.828125 -1.863281 4.828125 -1.59375 Z M 4.828125 -1.59375 "/></g></g></g><g fill="#ffffff" fill-opacity="1"><g transform="translate(325.483996, 302.932959)"><g><path d="M 2.640625 -0.390625 C 2.992188 -0.390625 3.300781 -0.414062 3.5625 -0.46875 L 3.5625 -0.015625 C 3.289062 0.0664062 2.984375 0.109375 2.640625 0.109375 C 2.097656 0.109375 1.695312 -0.03125 1.4375 -0.3125 C 1.175781 -0.601562 1.046875 -1.0625 1.046875 -1.6875 L 1.046875 -5.640625 L 0.140625 -5.640625 L 0.140625 -5.96875 L 1.046875 -6.21875 L 1.328125 -7.609375 L 1.625 -7.609375 L 1.625 -6.125 L 3.421875 -6.125 L 3.421875 -5.640625 L 1.625 -5.640625 L 1.625 -1.765625 C 1.625 -1.296875 1.703125 -0.945312 1.859375 -0.71875 C 2.023438 -0.5 2.285156 -0.390625 2.640625 -0.390625 Z M 2.640625 -0.390625 "/></g></g></g><g fill="#ffffff" fill-opacity="1"><g transform="translate(329.349972, 302.932959)"><g><path d="M 6.09375 -3.078125 C 6.09375 -2.078125 5.847656 -1.296875 5.359375 -0.734375 C 4.878906 -0.171875 4.210938 0.109375 3.359375 0.109375 C 2.816406 0.109375 2.34375 -0.0195312 1.9375 -0.28125 C 1.53125 -0.539062 1.21875 -0.910156 1 -1.390625 C 0.78125 -1.878906 0.671875 -2.441406 0.671875 -3.078125 C 0.671875 -4.078125 0.910156 -4.851562 1.390625 -5.40625 C 1.878906 -5.96875 2.546875 -6.25 3.390625 -6.25 C 4.234375 -6.25 4.894531 -5.960938 5.375 -5.390625 C 5.851562 -4.828125 6.09375 -4.054688 6.09375 -3.078125 Z M 1.25 -3.078125 C 1.25 -2.234375 1.4375 -1.570312 1.8125 -1.09375 C 2.1875 -0.625 2.710938 -0.390625 3.390625 -0.390625 C 4.054688 -0.390625 4.578125 -0.625 4.953125 -1.09375 C 5.328125 -1.570312 5.515625 -2.234375 5.515625 -3.078125 C 5.515625 -3.921875 5.328125 -4.570312 4.953125 -5.03125 C 4.578125 -5.5 4.050781 -5.734375 3.375 -5.734375 C 2.695312 -5.734375 2.171875 -5.5 1.796875 -5.03125 C 1.429688 -4.570312 1.25 -3.921875 1.25 -3.078125 Z M 1.25 -3.078125 "/></g></g></g><g fill="#ffffff" fill-opacity="1"><g transform="translate(336.112612, 302.932959)"><g><path d="M 3.203125 0.109375 C 2.398438 0.109375 1.773438 -0.15625 1.328125 -0.6875 C 0.890625 -1.21875 0.671875 -1.988281 0.671875 -3 C 0.671875 -4.03125 0.890625 -4.828125 1.328125 -5.390625 C 1.773438 -5.960938 2.410156 -6.25 3.234375 -6.25 C 4.128906 -6.25 4.796875 -5.921875 5.234375 -5.265625 L 5.265625 -5.265625 L 5.375 -6.125 L 5.84375 -6.125 L 5.84375 2.78125 L 5.28125 2.78125 L 5.28125 0.4375 C 5.28125 -0.0195312 5.296875 -0.484375 5.328125 -0.953125 L 5.28125 -0.953125 C 4.84375 -0.242188 4.148438 0.109375 3.203125 0.109375 Z M 3.21875 -0.390625 C 3.957031 -0.390625 4.484375 -0.59375 4.796875 -1 C 5.117188 -1.40625 5.28125 -2.09375 5.28125 -3.0625 L 5.28125 -3.125 C 5.28125 -4.050781 5.117188 -4.71875 4.796875 -5.125 C 4.484375 -5.53125 3.976562 -5.734375 3.28125 -5.734375 C 2.625 -5.734375 2.117188 -5.5 1.765625 -5.03125 C 1.421875 -4.570312 1.25 -3.890625 1.25 -2.984375 C 1.25 -2.128906 1.414062 -1.484375 1.75 -1.046875 C 2.09375 -0.609375 2.582031 -0.390625 3.21875 -0.390625 Z M 3.21875 -0.390625 "/></g></g></g><g fill="#ffffff" fill-opacity="1"><g transform="translate(342.982332, 302.932959)"><g><path d="M 1.515625 -6.125 L 1.515625 -2.15625 C 1.515625 -1.539062 1.644531 -1.09375 1.90625 -0.8125 C 2.164062 -0.53125 2.566406 -0.390625 3.109375 -0.390625 C 3.835938 -0.390625 4.375 -0.570312 4.71875 -0.9375 C 5.0625 -1.3125 5.234375 -1.914062 5.234375 -2.75 L 5.234375 -6.125 L 5.78125 -6.125 L 5.78125 0 L 5.3125 0 L 5.203125 -0.84375 L 5.171875 -0.84375 C 4.773438 -0.207031 4.066406 0.109375 3.046875 0.109375 C 1.648438 0.109375 0.953125 -0.632812 0.953125 -2.125 L 0.953125 -6.125 Z M 1.515625 -6.125 "/></g></g></g><g fill="#ffffff" fill-opacity="1"><g transform="translate(349.790057, 302.932959)"><g><path d="M 3.5 0.109375 C 2.613281 0.109375 1.921875 -0.160156 1.421875 -0.703125 C 0.921875 -1.253906 0.671875 -2.023438 0.671875 -3.015625 C 0.671875 -3.992188 0.910156 -4.773438 1.390625 -5.359375 C 1.867188 -5.953125 2.519531 -6.25 3.34375 -6.25 C 4.0625 -6.25 4.628906 -5.992188 5.046875 -5.484375 C 5.460938 -4.984375 5.671875 -4.300781 5.671875 -3.4375 L 5.671875 -2.984375 L 1.25 -2.984375 C 1.257812 -2.140625 1.457031 -1.492188 1.84375 -1.046875 C 2.226562 -0.609375 2.78125 -0.390625 3.5 -0.390625 C 3.851562 -0.390625 4.160156 -0.414062 4.421875 -0.46875 C 4.691406 -0.519531 5.023438 -0.625 5.421875 -0.78125 L 5.421875 -0.28125 C 5.078125 -0.125 4.757812 -0.0195312 4.46875 0.03125 C 4.175781 0.0820312 3.851562 0.109375 3.5 0.109375 Z M 3.34375 -5.75 C 2.75 -5.75 2.269531 -5.550781 1.90625 -5.15625 C 1.550781 -4.769531 1.347656 -4.210938 1.296875 -3.484375 L 5.078125 -3.484375 C 5.078125 -4.191406 4.921875 -4.742188 4.609375 -5.140625 C 4.304688 -5.546875 3.882812 -5.75 3.34375 -5.75 Z M 3.34375 -5.75 "/></g></g></g><g fill="#ffffff" fill-opacity="1"><g transform="translate(356.124396, 302.932959)"><g/></g></g><g fill="#ffffff" fill-opacity="1"><g transform="translate(359.1225, 302.932959)"><g><path d="M 3.03125 -4.953125 C 3.90625 -4.953125 4.59375 -4.738281 5.09375 -4.3125 C 5.601562 -3.894531 5.859375 -3.3125 5.859375 -2.5625 C 5.859375 -1.71875 5.59375 -1.0625 5.0625 -0.59375 C 4.539062 -0.125 3.816406 0.109375 2.890625 0.109375 C 2.484375 0.109375 2.09375 0.0703125 1.71875 0 C 1.351562 -0.0820312 1.050781 -0.203125 0.8125 -0.359375 L 0.8125 -0.9375 C 1.21875 -0.726562 1.578125 -0.582031 1.890625 -0.5 C 2.203125 -0.425781 2.535156 -0.390625 2.890625 -0.390625 C 3.617188 -0.390625 4.195312 -0.578125 4.625 -0.953125 C 5.0625 -1.335938 5.28125 -1.851562 5.28125 -2.5 C 5.28125 -3.113281 5.066406 -3.59375 4.640625 -3.9375 C 4.222656 -4.289062 3.648438 -4.46875 2.921875 -4.46875 C 2.429688 -4.46875 1.921875 -4.394531 1.390625 -4.25 L 1.046875 -4.46875 L 1.375 -8.25 L 5.34375 -8.25 L 5.34375 -7.703125 L 1.90625 -7.703125 L 1.65625 -4.796875 C 2.238281 -4.898438 2.695312 -4.953125 3.03125 -4.953125 Z M 3.03125 -4.953125 "/></g></g></g><g clip-path="url(#06741ffb21)"><g mask="url(#1d38db6778)"><g transform="matrix(1, 0, 0, 1, 22, 75)"><g clip-path="url(#ac60e01e07)"><g clip-path="url(#9df8cba577)"><path fill="#ffffff" d="M 0.316406 0.578125 L 353 0.578125 L 353 212.003906 L 0.316406 212.003906 Z M 0.316406 0.578125 " fill-opacity="1" fill-rule="nonzero"/></g></g></g></g></g><g clip-path="url(#3f39d47e3e)"><g mask="url(#a828b42b78)"><g transform="matrix(1, 0, 0, 1, 22, 117)"><g clip-path="url(#1a3c517a81)"><g clip-path="url(#dde8291d64)"><path fill="#ffffff" d="M 0.316406 -41.421875 L 353 -41.421875 L 353 170.003906 L 0.316406 170.003906 Z M 0.316406 -41.421875 " fill-opacity="1" fill-rule="nonzero"/></g></g></g></g></g><g clip-path="url(#d2da16bb45)"><g mask="url(#b669790bd7)"><g transform="matrix(1, 0, 0, 1, 22, 159)"><g clip-path="url(#92e199d6c8)"><g clip-path="url(#cdf1399026)"><path fill="#ffffff" d="M 0.316406 -83.421875 L 353 -83.421875 L 353 128.003906 L 0.316406 128.003906 Z M 0.316406 -83.421875 " fill-opacity="1" fill-rule="nonzero"/></g></g></g></g></g><g clip-path="url(#5ac9b3e213)"><g mask="url(#16ae77434a)"><g transform="matrix(1, 0, 0, 1, 22, 201)"><g clip-path="url(#02932f3ce4)"><g clip-path="url(#8660265a11)"><path fill="#ffffff" d="M 0.316406 -125.421875 L 353 -125.421875 L 353 86.003906 L 0.316406 86.003906 Z M 0.316406 -125.421875 " fill-opacity="1" fill-rule="nonzero"/></g></g></g></g></g><g clip-path="url(#cf916b9b29)"><g mask="url(#779b8fc5a9)"><g transform="matrix(1, 0, 0, 1, 22, 244)"><g clip-path="url(#a007d1d0fa)"><g clip-path="url(#8ba45ea2c3)"><path fill="#ffffff" d="M 0.316406 -168.421875 L 353 -168.421875 L 353 43.003906 L 0.316406 43.003906 Z M 0.316406 -168.421875 " fill-opacity="1" fill-rule="nonzero"/></g></g></g></g></g><g clip-path="url(#f8a3f8637a)"><g mask="url(#8c47c09817)"><g transform="matrix(1, 0, 0, 1, 22, 286)"><g clip-path="url(#2492231c69)"><g clip-path="url(#282fd40ade)"><path fill="#ffffff" d="M 0.316406 -210.421875 L 353 -210.421875 L 353 1.003906 L 0.316406 1.003906 Z M 0.316406 -210.421875 " fill-opacity="1" fill-rule="nonzero"/></g></g></g></g></g><g fill="#ffffff" fill-opacity="1"><g transform="translate(0.357505, 79.86703)"><g><path d="M 3.03125 -4.953125 C 3.90625 -4.953125 4.59375 -4.738281 5.09375 -4.3125 C 5.601562 -3.894531 5.859375 -3.3125 5.859375 -2.5625 C 5.859375 -1.71875 5.59375 -1.0625 5.0625 -0.59375 C 4.539062 -0.125 3.816406 0.109375 2.890625 0.109375 C 2.484375 0.109375 2.09375 0.0703125 1.71875 0 C 1.351562 -0.0820312 1.050781 -0.203125 0.8125 -0.359375 L 0.8125 -0.9375 C 1.21875 -0.726562 1.578125 -0.582031 1.890625 -0.5 C 2.203125 -0.425781 2.535156 -0.390625 2.890625 -0.390625 C 3.617188 -0.390625 4.195312 -0.578125 4.625 -0.953125 C 5.0625 -1.335938 5.28125 -1.851562 5.28125 -2.5 C 5.28125 -3.113281 5.066406 -3.59375 4.640625 -3.9375 C 4.222656 -4.289062 3.648438 -4.46875 2.921875 -4.46875 C 2.429688 -4.46875 1.921875 -4.394531 1.390625 -4.25 L 1.046875 -4.46875 L 1.375 -8.25 L 5.34375 -8.25 L 5.34375 -7.703125 L 1.90625 -7.703125 L 1.65625 -4.796875 C 2.238281 -4.898438 2.695312 -4.953125 3.03125 -4.953125 Z M 3.03125 -4.953125 "/></g></g></g><g fill="#ffffff" fill-opacity="1"><g transform="translate(6.94545, 79.86703)"><g><path d="M 5.953125 -4.140625 C 5.953125 -2.691406 5.726562 -1.617188 5.28125 -0.921875 C 4.84375 -0.234375 4.175781 0.109375 3.28125 0.109375 C 2.414062 0.109375 1.757812 -0.242188 1.3125 -0.953125 C 0.863281 -1.671875 0.640625 -2.734375 0.640625 -4.140625 C 0.640625 -5.578125 0.859375 -6.640625 1.296875 -7.328125 C 1.734375 -8.023438 2.394531 -8.375 3.28125 -8.375 C 4.144531 -8.375 4.804688 -8.015625 5.265625 -7.296875 C 5.722656 -6.578125 5.953125 -5.523438 5.953125 -4.140625 Z M 1.25 -4.140625 C 1.25 -2.867188 1.414062 -1.925781 1.75 -1.3125 C 2.09375 -0.695312 2.601562 -0.390625 3.28125 -0.390625 C 3.988281 -0.390625 4.503906 -0.707031 4.828125 -1.34375 C 5.160156 -1.976562 5.328125 -2.910156 5.328125 -4.140625 C 5.328125 -5.359375 5.160156 -6.28125 4.828125 -6.90625 C 4.503906 -7.539062 3.988281 -7.859375 3.28125 -7.859375 C 2.570312 -7.859375 2.054688 -7.539062 1.734375 -6.90625 C 1.410156 -6.28125 1.25 -5.359375 1.25 -4.140625 Z M 1.25 -4.140625 "/></g></g></g><g fill="#ffffff" fill-opacity="1"><g transform="translate(13.544391, 79.86703)"><g/></g></g><g fill="#ffffff" fill-opacity="1"><g transform="translate(0.357505, 121.996694)"><g><path d="M 6.4375 -2.109375 L 5.015625 -2.109375 L 5.015625 0 L 4.484375 0 L 4.484375 -2.109375 L 0.25 -2.109375 L 0.25 -2.484375 L 4.328125 -8.28125 L 5.015625 -8.28125 L 5.015625 -2.59375 L 6.4375 -2.59375 Z M 4.484375 -2.59375 L 4.484375 -4.9375 C 4.484375 -6.070312 4.507812 -7.023438 4.5625 -7.796875 L 4.515625 -7.796875 C 4.441406 -7.660156 4.210938 -7.3125 3.828125 -6.75 L 0.90625 -2.59375 Z M 4.484375 -2.59375 "/></g></g></g><g fill="#ffffff" fill-opacity="1"><g transform="translate(6.94545, 121.996694)"><g><path d="M 5.953125 -4.140625 C 5.953125 -2.691406 5.726562 -1.617188 5.28125 -0.921875 C 4.84375 -0.234375 4.175781 0.109375 3.28125 0.109375 C 2.414062 0.109375 1.757812 -0.242188 1.3125 -0.953125 C 0.863281 -1.671875 0.640625 -2.734375 0.640625 -4.140625 C 0.640625 -5.578125 0.859375 -6.640625 1.296875 -7.328125 C 1.734375 -8.023438 2.394531 -8.375 3.28125 -8.375 C 4.144531 -8.375 4.804688 -8.015625 5.265625 -7.296875 C 5.722656 -6.578125 5.953125 -5.523438 5.953125 -4.140625 Z M 1.25 -4.140625 C 1.25 -2.867188 1.414062 -1.925781 1.75 -1.3125 C 2.09375 -0.695312 2.601562 -0.390625 3.28125 -0.390625 C 3.988281 -0.390625 4.503906 -0.707031 4.828125 -1.34375 C 5.160156 -1.976562 5.328125 -2.910156 5.328125 -4.140625 C 5.328125 -5.359375 5.160156 -6.28125 4.828125 -6.90625 C 4.503906 -7.539062 3.988281 -7.859375 3.28125 -7.859375 C 2.570312 -7.859375 2.054688 -7.539062 1.734375 -6.90625 C 1.410156 -6.28125 1.25 -5.359375 1.25 -4.140625 Z M 1.25 -4.140625 "/></g></g></g><g fill="#ffffff" fill-opacity="1"><g transform="translate(13.544391, 121.996694)"><g/></g></g><g fill="#ffffff" fill-opacity="1"><g transform="translate(0.357505, 164.126352)"><g><path d="M 5.515625 -6.296875 C 5.515625 -5.785156 5.351562 -5.351562 5.03125 -5 C 4.71875 -4.65625 4.289062 -4.4375 3.75 -4.34375 L 3.75 -4.3125 C 4.40625 -4.226562 4.90625 -4.015625 5.25 -3.671875 C 5.601562 -3.335938 5.78125 -2.882812 5.78125 -2.3125 C 5.78125 -1.539062 5.515625 -0.941406 4.984375 -0.515625 C 4.460938 -0.0976562 3.707031 0.109375 2.71875 0.109375 C 1.882812 0.109375 1.15625 -0.046875 0.53125 -0.359375 L 0.53125 -0.90625 C 0.84375 -0.75 1.195312 -0.625 1.59375 -0.53125 C 1.988281 -0.4375 2.359375 -0.390625 2.703125 -0.390625 C 3.535156 -0.390625 4.160156 -0.554688 4.578125 -0.890625 C 4.992188 -1.222656 5.203125 -1.695312 5.203125 -2.3125 C 5.203125 -2.851562 4.988281 -3.269531 4.5625 -3.5625 C 4.132812 -3.863281 3.503906 -4.015625 2.671875 -4.015625 L 1.78125 -4.015625 L 1.78125 -4.546875 L 2.6875 -4.546875 C 3.375 -4.546875 3.914062 -4.707031 4.3125 -5.03125 C 4.71875 -5.363281 4.921875 -5.804688 4.921875 -6.359375 C 4.921875 -6.816406 4.753906 -7.179688 4.421875 -7.453125 C 4.097656 -7.734375 3.675781 -7.875 3.15625 -7.875 C 2.738281 -7.875 2.359375 -7.816406 2.015625 -7.703125 C 1.679688 -7.585938 1.304688 -7.390625 0.890625 -7.109375 L 0.609375 -7.5 C 0.929688 -7.757812 1.316406 -7.96875 1.765625 -8.125 C 2.222656 -8.28125 2.679688 -8.359375 3.140625 -8.359375 C 3.898438 -8.359375 4.484375 -8.175781 4.890625 -7.8125 C 5.304688 -7.457031 5.515625 -6.953125 5.515625 -6.296875 Z M 5.515625 -6.296875 "/></g></g></g><g fill="#ffffff" fill-opacity="1"><g transform="translate(6.94545, 164.126352)"><g><path d="M 5.953125 -4.140625 C 5.953125 -2.691406 5.726562 -1.617188 5.28125 -0.921875 C 4.84375 -0.234375 4.175781 0.109375 3.28125 0.109375 C 2.414062 0.109375 1.757812 -0.242188 1.3125 -0.953125 C 0.863281 -1.671875 0.640625 -2.734375 0.640625 -4.140625 C 0.640625 -5.578125 0.859375 -6.640625 1.296875 -7.328125 C 1.734375 -8.023438 2.394531 -8.375 3.28125 -8.375 C 4.144531 -8.375 4.804688 -8.015625 5.265625 -7.296875 C 5.722656 -6.578125 5.953125 -5.523438 5.953125 -4.140625 Z M 1.25 -4.140625 C 1.25 -2.867188 1.414062 -1.925781 1.75 -1.3125 C 2.09375 -0.695312 2.601562 -0.390625 3.28125 -0.390625 C 3.988281 -0.390625 4.503906 -0.707031 4.828125 -1.34375 C 5.160156 -1.976562 5.328125 -2.910156 5.328125 -4.140625 C 5.328125 -5.359375 5.160156 -6.28125 4.828125 -6.90625 C 4.503906 -7.539062 3.988281 -7.859375 3.28125 -7.859375 C 2.570312 -7.859375 2.054688 -7.539062 1.734375 -6.90625 C 1.410156 -6.28125 1.25 -5.359375 1.25 -4.140625 Z M 1.25 -4.140625 "/></g></g></g><g fill="#ffffff" fill-opacity="1"><g transform="translate(13.544391, 164.126352)"><g/></g></g><g fill="#ffffff" fill-opacity="1"><g transform="translate(0.357505, 206.256018)"><g><path d="M 5.796875 0 L 0.640625 0 L 0.640625 -0.5 L 2.828125 -2.78125 C 3.441406 -3.425781 3.875 -3.914062 4.125 -4.25 C 4.375 -4.59375 4.554688 -4.914062 4.671875 -5.21875 C 4.785156 -5.53125 4.84375 -5.851562 4.84375 -6.1875 C 4.84375 -6.675781 4.679688 -7.078125 4.359375 -7.390625 C 4.035156 -7.703125 3.617188 -7.859375 3.109375 -7.859375 C 2.421875 -7.859375 1.765625 -7.609375 1.140625 -7.109375 L 0.828125 -7.5 C 1.515625 -8.070312 2.28125 -8.359375 3.125 -8.359375 C 3.832031 -8.359375 4.390625 -8.164062 4.796875 -7.78125 C 5.210938 -7.40625 5.421875 -6.878906 5.421875 -6.203125 C 5.421875 -5.660156 5.28125 -5.132812 5 -4.625 C 4.726562 -4.113281 4.226562 -3.484375 3.5 -2.734375 L 1.390625 -0.5625 L 1.390625 -0.546875 L 5.796875 -0.546875 Z M 5.796875 0 "/></g></g></g><g fill="#ffffff" fill-opacity="1"><g transform="translate(6.94545, 206.256018)"><g><path d="M 5.953125 -4.140625 C 5.953125 -2.691406 5.726562 -1.617188 5.28125 -0.921875 C 4.84375 -0.234375 4.175781 0.109375 3.28125 0.109375 C 2.414062 0.109375 1.757812 -0.242188 1.3125 -0.953125 C 0.863281 -1.671875 0.640625 -2.734375 0.640625 -4.140625 C 0.640625 -5.578125 0.859375 -6.640625 1.296875 -7.328125 C 1.734375 -8.023438 2.394531 -8.375 3.28125 -8.375 C 4.144531 -8.375 4.804688 -8.015625 5.265625 -7.296875 C 5.722656 -6.578125 5.953125 -5.523438 5.953125 -4.140625 Z M 1.25 -4.140625 C 1.25 -2.867188 1.414062 -1.925781 1.75 -1.3125 C 2.09375 -0.695312 2.601562 -0.390625 3.28125 -0.390625 C 3.988281 -0.390625 4.503906 -0.707031 4.828125 -1.34375 C 5.160156 -1.976562 5.328125 -2.910156 5.328125 -4.140625 C 5.328125 -5.359375 5.160156 -6.28125 4.828125 -6.90625 C 4.503906 -7.539062 3.988281 -7.859375 3.28125 -7.859375 C 2.570312 -7.859375 2.054688 -7.539062 1.734375 -6.90625 C 1.410156 -6.28125 1.25 -5.359375 1.25 -4.140625 Z M 1.25 -4.140625 "/></g></g></g><g fill="#ffffff" fill-opacity="1"><g transform="translate(13.544391, 206.256018)"><g/></g></g><g fill="#ffffff" fill-opacity="1"><g transform="translate(0.357505, 248.385669)"><g><path d="M 3.84375 0 L 3.296875 0 L 3.296875 -6 C 3.296875 -6.550781 3.316406 -7.117188 3.359375 -7.703125 C 3.304688 -7.640625 3.25 -7.582031 3.1875 -7.53125 C 3.125 -7.476562 2.539062 -7.023438 1.4375 -6.171875 L 1.125 -6.5625 L 3.359375 -8.25 L 3.84375 -8.25 Z M 3.84375 0 "/></g></g></g><g fill="#ffffff" fill-opacity="1"><g transform="translate(6.94545, 248.385669)"><g><path d="M 5.953125 -4.140625 C 5.953125 -2.691406 5.726562 -1.617188 5.28125 -0.921875 C 4.84375 -0.234375 4.175781 0.109375 3.28125 0.109375 C 2.414062 0.109375 1.757812 -0.242188 1.3125 -0.953125 C 0.863281 -1.671875 0.640625 -2.734375 0.640625 -4.140625 C 0.640625 -5.578125 0.859375 -6.640625 1.296875 -7.328125 C 1.734375 -8.023438 2.394531 -8.375 3.28125 -8.375 C 4.144531 -8.375 4.804688 -8.015625 5.265625 -7.296875 C 5.722656 -6.578125 5.953125 -5.523438 5.953125 -4.140625 Z M 1.25 -4.140625 C 1.25 -2.867188 1.414062 -1.925781 1.75 -1.3125 C 2.09375 -0.695312 2.601562 -0.390625 3.28125 -0.390625 C 3.988281 -0.390625 4.503906 -0.707031 4.828125 -1.34375 C 5.160156 -1.976562 5.328125 -2.910156 5.328125 -4.140625 C 5.328125 -5.359375 5.160156 -6.28125 4.828125 -6.90625 C 4.503906 -7.539062 3.988281 -7.859375 3.28125 -7.859375 C 2.570312 -7.859375 2.054688 -7.539062 1.734375 -6.90625 C 1.410156 -6.28125 1.25 -5.359375 1.25 -4.140625 Z M 1.25 -4.140625 "/></g></g></g><g fill="#ffffff" fill-opacity="1"><g transform="translate(13.544391, 248.385669)"><g/></g></g><g fill="#ffffff" fill-opacity="1"><g transform="translate(6.950948, 290.515333)"><g><path d="M 5.953125 -4.140625 C 5.953125 -2.691406 5.726562 -1.617188 5.28125 -0.921875 C 4.84375 -0.234375 4.175781 0.109375 3.28125 0.109375 C 2.414062 0.109375 1.757812 -0.242188 1.3125 -0.953125 C 0.863281 -1.671875 0.640625 -2.734375 0.640625 -4.140625 C 0.640625 -5.578125 0.859375 -6.640625 1.296875 -7.328125 C 1.734375 -8.023438 2.394531 -8.375 3.28125 -8.375 C 4.144531 -8.375 4.804688 -8.015625 5.265625 -7.296875 C 5.722656 -6.578125 5.953125 -5.523438 5.953125 -4.140625 Z M 1.25 -4.140625 C 1.25 -2.867188 1.414062 -1.925781 1.75 -1.3125 C 2.09375 -0.695312 2.601562 -0.390625 3.28125 -0.390625 C 3.988281 -0.390625 4.503906 -0.707031 4.828125 -1.34375 C 5.160156 -1.976562 5.328125 -2.910156 5.328125 -4.140625 C 5.328125 -5.359375 5.160156 -6.28125 4.828125 -6.90625 C 4.503906 -7.539062 3.988281 -7.859375 3.28125 -7.859375 C 2.570312 -7.859375 2.054688 -7.539062 1.734375 -6.90625 C 1.410156 -6.28125 1.25 -5.359375 1.25 -4.140625 Z M 1.25 -4.140625 "/></g></g></g><g fill="#ffffff" fill-opacity="1"><g transform="translate(13.544391, 290.515333)"><g/></g></g><g clip-path="url(#1a5cf009b6)"><g clip-path="url(#db38dc7536)"><path fill="#ffd427" d="M 55.828125 74.210938 L 341.488281 74.210938 L 341.488281 288.371094 L 55.828125 288.371094 Z M 55.828125 74.210938 " fill-opacity="1" fill-rule="nonzero"/></g></g><g clip-path="url(#32620b6181)"><g clip-path="url(#bd47caf9fb)"><path fill="#ffd427" d="M 55.828125 74.210938 L 341.488281 74.210938 L 341.488281 288.371094 L 55.828125 288.371094 Z M 55.828125 74.210938 " fill-opacity="1" fill-rule="nonzero"/></g></g><g clip-path="url(#cf711f55b8)"><g clip-path="url(#ad63452756)"><path fill="#ffd427" d="M 55.828125 74.210938 L 341.488281 74.210938 L 341.488281 288.371094 L 55.828125 288.371094 Z M 55.828125 74.210938 " fill-opacity="1" fill-rule="nonzero"/></g></g><g clip-path="url(#44e0d08d3e)"><g clip-path="url(#56bb175e8f)"><path fill="#ffd427" d="M 55.828125 74.210938 L 341.488281 74.210938 L 341.488281 288.371094 L 55.828125 288.371094 Z M 55.828125 74.210938 " fill-opacity="1" fill-rule="nonzero"/></g></g><g clip-path="url(#447ac8231f)"><g clip-path="url(#3a41325783)"><path fill="#ffd427" d="M 55.828125 74.210938 L 341.488281 74.210938 L 341.488281 288.371094 L 55.828125 288.371094 Z M 55.828125 74.210938 " fill-opacity="1" fill-rule="nonzero"/></g></g><g clip-path="url(#283fe92fbb)"><g clip-path="url(#02a63dfa06)"><path fill="#ffd427" d="M 55.828125 74.210938 L 341.488281 74.210938 L 341.488281 288.371094 L 55.828125 288.371094 Z M 55.828125 74.210938 " fill-opacity="1" fill-rule="nonzero"/></g></g><g clip-path="url(#915bb497a0)"><g clip-path="url(#2fc48ac8b7)"><path fill="#ffd427" d="M 55.828125 74.210938 L 341.488281 74.210938 L 341.488281 288.371094 L 55.828125 288.371094 Z M 55.828125 74.210938 " fill-opacity="1" fill-rule="nonzero"/></g></g><g clip-path="url(#8645912e35)"><g clip-path="url(#7815e8bd6b)"><path fill="#ffd427" d="M 55.828125 74.210938 L 341.488281 74.210938 L 341.488281 288.371094 L 55.828125 288.371094 Z M 55.828125 74.210938 " fill-opacity="1" fill-rule="nonzero"/></g></g><g clip-path="url(#97d42dee19)"><g clip-path="url(#34c14b4219)"><path fill="#ffd427" d="M 55.828125 74.210938 L 341.488281 74.210938 L 341.488281 288.371094 L 55.828125 288.371094 Z M 55.828125 74.210938 " fill-opacity="1" fill-rule="nonzero"/></g></g><g clip-path="url(#86a9d27758)"><g clip-path="url(#1fbfdc5596)"><path fill="#ffd427" d="M 55.828125 74.210938 L 341.488281 74.210938 L 341.488281 288.371094 L 55.828125 288.371094 Z M 55.828125 74.210938 " fill-opacity="1" fill-rule="nonzero"/></g></g><g clip-path="url(#f9c44bdd27)"><g clip-path="url(#2fba64d422)"><path fill="#ffd427" d="M 55.828125 74.210938 L 341.488281 74.210938 L 341.488281 288.371094 L 55.828125 288.371094 Z M 55.828125 74.210938 " fill-opacity="1" fill-rule="nonzero"/></g></g><g clip-path="url(#20fd2e4799)"><g clip-path="url(#99087d87a5)"><path fill="#ffd427" d="M 55.828125 74.210938 L 341.488281 74.210938 L 341.488281 288.371094 L 55.828125 288.371094 Z M 55.828125 74.210938 " fill-opacity="1" fill-rule="nonzero"/></g></g></svg>