<svg id="visual" viewBox="0 0 900 600" width="900" height="600" xmlns="http://www.w3.org/2000/svg" xmlns:xlink="http://www.w3.org/1999/xlink" version="1.1"><rect x="0" y="0" width="900" height="600" fill="#101010"></rect><defs><linearGradient id="grad1_0" x1="33.3%" y1="0%" x2="100%" y2="100%"><stop offset="20%" stop-color="#ffd427" stop-opacity="1"></stop><stop offset="80%" stop-color="#ffd427" stop-opacity="1"></stop></linearGradient></defs><defs><linearGradient id="grad1_1" x1="33.3%" y1="0%" x2="100%" y2="100%"><stop offset="20%" stop-color="#ffd427" stop-opacity="1"></stop><stop offset="80%" stop-color="#d1ae27" stop-opacity="1"></stop></linearGradient></defs><defs><linearGradient id="grad1_2" x1="33.3%" y1="0%" x2="100%" y2="100%"><stop offset="20%" stop-color="#a58924" stop-opacity="1"></stop><stop offset="80%" stop-color="#d1ae27" stop-opacity="1"></stop></linearGradient></defs><defs><linearGradient id="grad1_3" x1="33.3%" y1="0%" x2="100%" y2="100%"><stop offset="20%" stop-color="#a58924" stop-opacity="1"></stop><stop offset="80%" stop-color="#7b6620" stop-opacity="1"></stop></linearGradient></defs><defs><linearGradient id="grad1_4" x1="33.3%" y1="0%" x2="100%" y2="100%"><stop offset="20%" stop-color="#53451b" stop-opacity="1"></stop><stop offset="80%" stop-color="#7b6620" stop-opacity="1"></stop></linearGradient></defs><defs><linearGradient id="grad1_5" x1="33.3%" y1="0%" x2="100%" y2="100%"><stop offset="20%" stop-color="#53451b" stop-opacity="1"></stop><stop offset="80%" stop-color="#2e2714" stop-opacity="1"></stop></linearGradient></defs><defs><linearGradient id="grad1_6" x1="33.3%" y1="0%" x2="100%" y2="100%"><stop offset="20%" stop-color="#060606" stop-opacity="1"></stop><stop offset="80%" stop-color="#2e2714" stop-opacity="1"></stop></linearGradient></defs><defs><linearGradient id="grad2_0" x1="0%" y1="0%" x2="66.7%" y2="100%"><stop offset="20%" stop-color="#ffd427" stop-opacity="1"></stop><stop offset="80%" stop-color="#ffd427" stop-opacity="1"></stop></linearGradient></defs><defs><linearGradient id="grad2_1" x1="0%" y1="0%" x2="66.7%" y2="100%"><stop offset="20%" stop-color="#d1ae27" stop-opacity="1"></stop><stop offset="80%" stop-color="#ffd427" stop-opacity="1"></stop></linearGradient></defs><defs><linearGradient id="grad2_2" x1="0%" y1="0%" x2="66.7%" y2="100%"><stop offset="20%" stop-color="#d1ae27" stop-opacity="1"></stop><stop offset="80%" stop-color="#a58924" stop-opacity="1"></stop></linearGradient></defs><defs><linearGradient id="grad2_3" x1="0%" y1="0%" x2="66.7%" y2="100%"><stop offset="20%" stop-color="#7b6620" stop-opacity="1"></stop><stop offset="80%" stop-color="#a58924" stop-opacity="1"></stop></linearGradient></defs><defs><linearGradient id="grad2_4" x1="0%" y1="0%" x2="66.7%" y2="100%"><stop offset="20%" stop-color="#7b6620" stop-opacity="1"></stop><stop offset="80%" stop-color="#53451b" stop-opacity="1"></stop></linearGradient></defs><defs><linearGradient id="grad2_5" x1="0%" y1="0%" x2="66.7%" y2="100%"><stop offset="20%" stop-color="#2e2714" stop-opacity="1"></stop><stop offset="80%" stop-color="#53451b" stop-opacity="1"></stop></linearGradient></defs><defs><linearGradient id="grad2_6" x1="0%" y1="0%" x2="66.7%" y2="100%"><stop offset="20%" stop-color="#2e2714" stop-opacity="1"></stop><stop offset="80%" stop-color="#060606" stop-opacity="1"></stop></linearGradient></defs><g transform="translate(900, 0)"><path d="M0 351.5C-62.8 343.1 -125.5 334.6 -175.8 304.4C-226 274.3 -263.8 222.4 -291 168C-318.2 113.6 -334.9 56.8 -351.5 0L0 0Z" fill="#1d190f"></path><path d="M0 301.3C-53.8 294.1 -107.6 286.8 -150.7 261C-193.7 235.1 -226.1 190.6 -249.4 144C-272.7 97.4 -287 48.7 -301.3 0L0 0Z" fill="#403618"></path><path d="M0 251.1C-44.8 245.1 -89.7 239 -125.6 217.5C-161.4 195.9 -188.4 158.8 -207.8 120C-227.3 81.2 -239.2 40.6 -251.1 0L0 0Z" fill="#66551e"></path><path d="M0 200.9C-35.9 196 -71.7 191.2 -100.4 174C-129.2 156.7 -150.7 127.1 -166.3 96C-181.8 64.9 -191.4 32.5 -200.9 0L0 0Z" fill="#8f7723"></path><path d="M0 150.7C-26.9 147 -53.8 143.4 -75.3 130.5C-96.9 117.5 -113 95.3 -124.7 72C-136.4 48.7 -143.5 24.4 -150.7 0L0 0Z" fill="#bb9b26"></path><path d="M0 100.4C-17.9 98 -35.9 95.6 -50.2 87C-64.6 78.4 -75.4 63.5 -83.1 48C-90.9 32.5 -95.7 16.2 -100.4 0L0 0Z" fill="#e8c127"></path><path d="M0 50.2C-9 49 -17.9 47.8 -25.1 43.5C-32.3 39.2 -37.7 31.8 -41.6 24C-45.5 16.2 -47.8 8.1 -50.2 0L0 0Z" fill="#ffd427"></path></g><g transform="translate(0, 600)"><path d="M0 -351.5C53.4 -328.9 106.7 -306.2 161.5 -279.7C216.3 -253.3 272.5 -223 304.4 -175.8C336.4 -128.5 343.9 -64.3 351.5 0L0 0Z" fill="#1d190f"></path><path d="M0 -301.3C45.7 -281.9 91.5 -262.4 138.4 -239.8C185.4 -217.1 233.6 -191.2 261 -150.7C288.3 -110.2 294.8 -55.1 301.3 0L0 0Z" fill="#403618"></path><path d="M0 -251.1C38.1 -234.9 76.2 -218.7 115.4 -199.8C154.5 -180.9 194.7 -159.3 217.5 -125.6C240.3 -91.8 245.7 -45.9 251.1 0L0 0Z" fill="#66551e"></path><path d="M0 -200.9C30.5 -187.9 61 -175 92.3 -159.8C123.6 -144.7 155.7 -127.4 174 -100.4C192.2 -73.4 196.5 -36.7 200.9 0L0 0Z" fill="#8f7723"></path><path d="M0 -150.7C22.9 -140.9 45.7 -131.2 69.2 -119.9C92.7 -108.5 116.8 -95.6 130.5 -75.3C144.2 -55.1 147.4 -27.5 150.7 0L0 0Z" fill="#bb9b26"></path><path d="M0 -100.4C15.2 -94 30.5 -87.5 46.1 -79.9C61.8 -72.4 77.9 -63.7 87 -50.2C96.1 -36.7 98.3 -18.4 100.4 0L0 0Z" fill="#e8c127"></path><path d="M0 -50.2C7.6 -47 15.2 -43.7 23.1 -40C30.9 -36.2 38.9 -31.9 43.5 -25.1C48.1 -18.4 49.1 -9.2 50.2 0L0 0Z" fill="#ffd427"></path></g></svg>