<svg id="visual" viewBox="0 0 900 600" width="900" height="600" xmlns="http://www.w3.org/2000/svg" xmlns:xlink="http://www.w3.org/1999/xlink" version="1.1"><rect x="0" y="0" width="900" height="600" fill="#060606"></rect><defs><linearGradient id="grad1_0" x1="33.3%" y1="0%" x2="100%" y2="100%"><stop offset="20%" stop-color="#ffd427" stop-opacity="1"></stop><stop offset="80%" stop-color="#ffd427" stop-opacity="1"></stop></linearGradient></defs><defs><linearGradient id="grad1_1" x1="33.3%" y1="0%" x2="100%" y2="100%"><stop offset="20%" stop-color="#ffd427" stop-opacity="1"></stop><stop offset="80%" stop-color="#d1ae27" stop-opacity="1"></stop></linearGradient></defs><defs><linearGradient id="grad1_2" x1="33.3%" y1="0%" x2="100%" y2="100%"><stop offset="20%" stop-color="#a58924" stop-opacity="1"></stop><stop offset="80%" stop-color="#d1ae27" stop-opacity="1"></stop></linearGradient></defs><defs><linearGradient id="grad1_3" x1="33.3%" y1="0%" x2="100%" y2="100%"><stop offset="20%" stop-color="#a58924" stop-opacity="1"></stop><stop offset="80%" stop-color="#7b6620" stop-opacity="1"></stop></linearGradient></defs><defs><linearGradient id="grad1_4" x1="33.3%" y1="0%" x2="100%" y2="100%"><stop offset="20%" stop-color="#53451b" stop-opacity="1"></stop><stop offset="80%" stop-color="#7b6620" stop-opacity="1"></stop></linearGradient></defs><defs><linearGradient id="grad1_5" x1="33.3%" y1="0%" x2="100%" y2="100%"><stop offset="20%" stop-color="#53451b" stop-opacity="1"></stop><stop offset="80%" stop-color="#2e2714" stop-opacity="1"></stop></linearGradient></defs><defs><linearGradient id="grad1_6" x1="33.3%" y1="0%" x2="100%" y2="100%"><stop offset="20%" stop-color="#060606" stop-opacity="1"></stop><stop offset="80%" stop-color="#2e2714" stop-opacity="1"></stop></linearGradient></defs><defs><linearGradient id="grad2_0" x1="0%" y1="0%" x2="66.7%" y2="100%"><stop offset="20%" stop-color="#ffd427" stop-opacity="1"></stop><stop offset="80%" stop-color="#ffd427" stop-opacity="1"></stop></linearGradient></defs><defs><linearGradient id="grad2_1" x1="0%" y1="0%" x2="66.7%" y2="100%"><stop offset="20%" stop-color="#d1ae27" stop-opacity="1"></stop><stop offset="80%" stop-color="#ffd427" stop-opacity="1"></stop></linearGradient></defs><defs><linearGradient id="grad2_2" x1="0%" y1="0%" x2="66.7%" y2="100%"><stop offset="20%" stop-color="#d1ae27" stop-opacity="1"></stop><stop offset="80%" stop-color="#a58924" stop-opacity="1"></stop></linearGradient></defs><defs><linearGradient id="grad2_3" x1="0%" y1="0%" x2="66.7%" y2="100%"><stop offset="20%" stop-color="#7b6620" stop-opacity="1"></stop><stop offset="80%" stop-color="#a58924" stop-opacity="1"></stop></linearGradient></defs><defs><linearGradient id="grad2_4" x1="0%" y1="0%" x2="66.7%" y2="100%"><stop offset="20%" stop-color="#7b6620" stop-opacity="1"></stop><stop offset="80%" stop-color="#53451b" stop-opacity="1"></stop></linearGradient></defs><defs><linearGradient id="grad2_5" x1="0%" y1="0%" x2="66.7%" y2="100%"><stop offset="20%" stop-color="#2e2714" stop-opacity="1"></stop><stop offset="80%" stop-color="#53451b" stop-opacity="1"></stop></linearGradient></defs><defs><linearGradient id="grad2_6" x1="0%" y1="0%" x2="66.7%" y2="100%"><stop offset="20%" stop-color="#2e2714" stop-opacity="1"></stop><stop offset="80%" stop-color="#060606" stop-opacity="1"></stop></linearGradient></defs><g transform="translate(900, 0)"><path d="M0 405.6C-74.6 397.1 -149.1 388.6 -202.8 351.3C-256.5 314 -289.2 247.8 -319.6 184.5C-349.9 121.2 -377.8 60.6 -405.6 0L0 0Z" fill="#1d190f"></path><path d="M0 347.7C-63.9 340.4 -127.8 333.1 -173.8 301.1C-219.8 269.1 -247.9 212.4 -273.9 158.1C-299.9 103.8 -323.8 51.9 -347.7 0L0 0Z" fill="#403618"></path><path d="M0 289.7C-53.3 283.7 -106.5 277.6 -144.9 250.9C-183.2 224.3 -206.6 177 -228.3 131.8C-249.9 86.5 -269.8 43.3 -289.7 0L0 0Z" fill="#66551e"></path><path d="M0 231.8C-42.6 226.9 -85.2 222.1 -115.9 200.7C-146.6 179.4 -165.3 141.6 -182.6 105.4C-199.9 69.2 -215.9 34.6 -231.8 0L0 0Z" fill="#8f7723"></path><path d="M0 173.8C-32 170.2 -63.9 166.5 -86.9 150.5C-109.9 134.6 -124 106.2 -137 79.1C-149.9 51.9 -161.9 26 -173.8 0L0 0Z" fill="#bb9b26"></path><path d="M0 115.9C-21.3 113.5 -42.6 111 -57.9 100.4C-73.3 89.7 -82.6 70.8 -91.3 52.7C-100 34.6 -107.9 17.3 -115.9 0L0 0Z" fill="#e8c127"></path><path d="M0 57.9C-10.7 56.7 -21.3 55.5 -29 50.2C-36.6 44.9 -41.3 35.4 -45.7 26.4C-50 17.3 -54 8.7 -57.9 0L0 0Z" fill="#ffd427"></path></g><g transform="translate(0, 600)"><path d="M0 -405.6C71.8 -395.5 143.6 -385.4 202.8 -351.3C262 -317.2 308.6 -259 340.3 -196.5C372.1 -134 388.8 -67 405.6 0L0 0Z" fill="#1d190f"></path><path d="M0 -347.7C61.5 -339 123.1 -330.3 173.8 -301.1C224.6 -271.9 264.6 -222 291.7 -168.4C318.9 -114.8 333.3 -57.4 347.7 0L0 0Z" fill="#403618"></path><path d="M0 -289.7C51.3 -282.5 102.6 -275.3 144.9 -250.9C187.2 -226.5 220.5 -185 243.1 -140.4C265.8 -95.7 277.7 -47.8 289.7 0L0 0Z" fill="#66551e"></path><path d="M0 -231.8C41 -226 82.1 -220.2 115.9 -200.7C149.7 -181.2 176.4 -148 194.5 -112.3C212.6 -76.5 222.2 -38.3 231.8 0L0 0Z" fill="#8f7723"></path><path d="M0 -173.8C30.8 -169.5 61.5 -165.2 86.9 -150.5C112.3 -135.9 132.3 -111 145.9 -84.2C159.5 -57.4 166.6 -28.7 173.8 0L0 0Z" fill="#bb9b26"></path><path d="M0 -115.9C20.5 -113 41 -110.1 57.9 -100.4C74.9 -90.6 88.2 -74 97.2 -56.1C106.3 -38.3 111.1 -19.1 115.9 0L0 0Z" fill="#e8c127"></path><path d="M0 -57.9C10.3 -56.5 20.5 -55.1 29 -50.2C37.4 -45.3 44.1 -37 48.6 -28.1C53.2 -19.1 55.5 -9.6 57.9 0L0 0Z" fill="#ffd427"></path></g></svg>